<svg width="24" height="24" viewBox="0 0 24 24" fill="none" xmlns="http://www.w3.org/2000/svg">
    <path fill-rule="evenodd" clip-rule="evenodd"
          d="M11.992 4C7.576 4 4 7.584 4 12C4 16.416 7.576 20 11.992 20C16.416 20 20 16.416 20 12C20 7.584 16.416 4 11.992 4ZM6.21429 13C6.08242 12.68 6 12.345 6 12C6 11.655 6.08242 11.32 6.21429 11H9C8.93407 11.33 8.88462 11.66 8.88462 12C8.88462 12.34 8.93407 12.67 9 13H6.21429ZM13.872 13H10.128C10.056 12.67 10 12.34 10 12C10 11.66 10.056 11.325 10.128 11H13.872C13.944 11.325 14 11.66 14 12C14 12.34 13.944 12.67 13.872 13ZM15 13C15.0659 12.67 15.1154 12.34 15.1154 12C15.1154 11.66 15.0659 11.33 15 11H17.7857C17.9176 11.32 18 11.655 18 12C18 12.345 17.9176 12.68 17.7857 13H15ZM14 18C14.5543 16.7528 14.9792 15.4045 15.2748 14H18C17.1132 15.8539 15.6998 17.2921 14 18ZM12 19C11.1309 17.4848 10.4503 15.8056 10 14H14C13.5497 15.8056 12.8691 17.4848 12 19ZM6 14H8.72517C9.02078 15.4045 9.44573 16.7528 10 18C8.30023 17.2921 6.88684 15.8652 6 14H6ZM8.72517 10H6C6.88684 8.13483 8.30023 6.70786 10 6C9.44573 7.24719 9.02079 8.59551 8.72517 10H8.72517ZM12 5C12.8691 6.51515 13.5497 8.19444 14 10H10C10.4503 8.19444 11.1309 6.51515 12 5ZM18 10H15.2748C14.9792 8.59551 14.5543 7.24719 14 6C15.6998 6.70787 17.1132 8.14607 18 10Z"
          fill="#C7CED5"/>
    <mask id="mask0_2148_409" style="mask-type:luminance" maskUnits="userSpaceOnUse" x="4" y="4" width="16" height="16">
        <path fill-rule="evenodd" clip-rule="evenodd"
              d="M11.992 4C7.576 4 4 7.584 4 12C4 16.416 7.576 20 11.992 20C16.416 20 20 16.416 20 12C20 7.584 16.416 4 11.992 4ZM6.21429 13C6.08242 12.68 6 12.345 6 12C6 11.655 6.08242 11.32 6.21429 11H9C8.93407 11.33 8.88462 11.66 8.88462 12C8.88462 12.34 8.93407 12.67 9 13H6.21429ZM13.872 13H10.128C10.056 12.67 10 12.34 10 12C10 11.66 10.056 11.325 10.128 11H13.872C13.944 11.325 14 11.66 14 12C14 12.34 13.944 12.67 13.872 13ZM15 13C15.0659 12.67 15.1154 12.34 15.1154 12C15.1154 11.66 15.0659 11.33 15 11H17.7857C17.9176 11.32 18 11.655 18 12C18 12.345 17.9176 12.68 17.7857 13H15ZM14 18C14.5543 16.7528 14.9792 15.4045 15.2748 14H18C17.1132 15.8539 15.6998 17.2921 14 18ZM12 19C11.1309 17.4848 10.4503 15.8056 10 14H14C13.5497 15.8056 12.8691 17.4848 12 19ZM6 14H8.72517C9.02078 15.4045 9.44573 16.7528 10 18C8.30023 17.2921 6.88684 15.8652 6 14H6ZM8.72517 10H6C6.88684 8.13483 8.30023 6.70786 10 6C9.44573 7.24719 9.02079 8.59551 8.72517 10H8.72517ZM12 5C12.8691 6.51515 13.5497 8.19444 14 10H10C10.4503 8.19444 11.1309 6.51515 12 5ZM18 10H15.2748C14.9792 8.59551 14.5543 7.24719 14 6C15.6998 6.70787 17.1132 8.14607 18 10Z"
              fill="white"/>
    </mask>
    <g mask="url(#mask0_2148_409)">
        <rect width="24" height="24" fill="#4C5560"/>
    </g>
</svg>
