<svg xmlns="http://www.w3.org/2000/svg" width="23" height="24" viewBox="0 0 23 24" fill="none">
    <rect x="6.09473" width="1.52379" height="3.80947" rx="0.761896" fill="#2653C7"/>
    <rect x="15.2373" width="1.52379" height="3.80947" rx="0.761896" fill="#2653C7"/>
    <path fill-rule="evenodd" clip-rule="evenodd" d="M13.0786 12.6468C12.999 13.267 12.7418 13.8312 12.3578 14.2858C11.9548 14.7659 11.4122 15.1244 10.7927 15.3002L10.7659 15.3078L10.7054 15.3237L10.7003 15.325L5.90234 16.6113V15.4957C5.90234 15.4708 5.90234 15.446 5.90489 15.4212C5.93291 14.9544 6.22645 14.5584 6.63653 14.3833C6.68301 14.3629 6.73077 14.3457 6.78044 14.3323L6.82565 14.3202L13.078 12.6449V12.6468H13.0786Z" fill="#2653C7"/>
    <path fill-rule="evenodd" clip-rule="evenodd" d="M16.9546 8.53368C16.7916 9.80656 15.8766 10.8445 14.6686 11.1871L14.6419 11.1947L14.582 11.2106H14.5814L14.5763 11.2119L5.90234 13.5361V12.4205C5.90234 11.9212 6.20481 11.4927 6.63653 11.308L6.78044 11.2571L6.82501 11.245L16.954 8.53113V8.53368H16.9546Z" fill="#2653C7"/>
    <path d="M18.0957 1.14331C20.7253 1.14357 22.8574 3.27535 22.8574 5.90503V16.6833H21.333V5.90503C21.333 4.11691 19.8838 2.66701 18.0957 2.66675H4.76172C2.97357 2.66692 1.52447 4.11686 1.52441 5.90503V19.238C1.52441 21.0263 2.97354 22.4761 4.76172 22.4763H15.4795V23.9998H4.76172C2.13197 23.9996 0 21.8678 0 19.238V5.90503C5.42784e-05 3.27529 2.13201 1.14349 4.76172 1.14331H18.0957Z" fill="#2653C7"/>
    <path d="M22.8682 16.8612L15.7295 23.9999H15.4795V18.7762C15.4795 17.5807 16.449 16.6113 17.6445 16.6112H22.8682V16.8612Z" fill="#2653C7"/>
</svg>
