<svg preserveAspectRatio="none" width="100%" height="100%" overflow="visible" style="display: block;" viewBox="0 0 14 14" fill="none" xmlns="http://www.w3.org/2000/svg">
<path id="Vector" d="M6 1.5H1.5V12H6V1.5ZM7.5 1.5V12H12V1.5H7.5ZM0.75 0H12.75C12.9489 0 13.1397 0.0790176 13.2803 0.21967C13.421 0.360322 13.5 0.551088 13.5 0.75V12.75C13.5 12.9489 13.421 13.1397 13.2803 13.2803C13.1397 13.421 12.9489 13.5 12.75 13.5H0.75C0.551088 13.5 0.360322 13.421 0.21967 13.2803C0.0790176 13.1397 0 12.9489 0 12.75V0.75C0 0.551088 0.0790176 0.360322 0.21967 0.21967C0.360322 0.0790176 0.551088 0 0.75 0V0Z" fill="var(--fill-0, #525866)"/>
</svg>
