<svg xmlns="http://www.w3.org/2000/svg" viewBox="0 0 50 29.688"><path fill-rule="evenodd" d="M40.625 10.938a9.334 9.334 0 0 0-3.304.61l-4.913-8.423H37.5a1.562 1.562 0 0 1 1.563 1.563 1.562 1.562 0 1 0 3.124 0A4.688 4.688 0 0 0 37.5 0h-7.813a1.562 1.562 0 0 0-1.35 2.35l2.276 3.9H19.387L16.193.775A1.562 1.562 0 0 0 14.843 0H9.376a1.563 1.563 0 0 0 0 3.125h4.571l2.682 4.597-3.071 4.209a9.321 9.321 0 0 0-4.182-.994 9.375 9.375 0 1 0 9.375 9.376 9.34 9.34 0 0 0-2.667-6.543l2.264-3.102L24.432 21.1a1.563 1.563 0 0 0 2.699-1.575L21.21 9.375h11.226l2.183 3.742a9.375 9.375 0 1 0 6.006-2.18Zm-25 9.374a6.25 6.25 0 1 1-6.25-6.25c.814 0 1.59.16 2.303.444l-3.565 4.886a1.562 1.562 0 1 0 2.524 1.841l3.567-4.888a6.224 6.224 0 0 1 1.421 3.968Zm25 6.25a6.25 6.25 0 0 1-4.398-10.688l3.048 5.226a1.563 1.563 0 0 0 2.7-1.575l-3.047-5.223a6.24 6.24 0 0 1 1.697-.24 6.25 6.25 0 0 1 0 12.5Z"/></svg>