<svg xmlns="http://www.w3.org/2000/svg" viewBox="0 0 50 47.192"><path d="M46.154 12.577h-8.385A7.769 7.769 0 0 0 39.5 7.692a7.7 7.7 0 0 0-2.25-5.442A7.7 7.7 0 0 0 31.808 0a7.7 7.7 0 0 0-5.443 2.25h-.019c-.558.577-1 1.27-1.346 2-.346-.73-.788-1.423-1.346-2h-.02A7.7 7.7 0 0 0 18.193 0a7.7 7.7 0 0 0-5.442 2.25 7.7 7.7 0 0 0-2.25 5.442c0 1.789.615 3.5 1.73 4.885H3.847A3.857 3.857 0 0 0 0 16.423v7.692a3.857 3.857 0 0 0 3.846 3.846v15.385c0 1.02.404 2 1.135 2.712a3.78 3.78 0 0 0 2.711 1.134h34.616c1.019 0 2-.404 2.711-1.134a3.78 3.78 0 0 0 1.135-2.712V27.961A3.857 3.857 0 0 0 50 24.115v-7.692a3.857 3.857 0 0 0-3.846-3.846Zm-18.904-2.23c.154-1.116.385-2.27.712-3.27.346-1.039.75-1.73 1.115-2.116.73-.711 1.711-1.115 2.73-1.115s2 .404 2.731 1.115c.712.731 1.116 1.712 1.116 2.731s-.404 2-1.116 2.731c-.384.365-1.076.77-2.115 1.115-1 .327-2.154.558-3.27.712-.768.115-1.5.192-2.134.23a24.74 24.74 0 0 1 .231-2.134ZM15.462 4.96c.73-.711 1.711-1.115 2.73-1.115s2 .404 2.731 1.115c.365.385.77 1.077 1.115 2.116.327 1 .558 2.154.712 3.27.115.768.192 1.5.23 2.134a24.763 24.763 0 0 1-2.134-.231c-1.115-.154-2.27-.385-3.27-.712-1.038-.346-1.73-.75-2.114-1.115-.712-.73-1.116-1.712-1.116-2.73s.404-2 1.116-2.732ZM3.846 16.423h19.23v7.692H3.847v-7.692Zm3.846 11.538h15.385v15.385H7.692V27.961Zm34.616 15.385H26.923V27.961h15.385v15.385Zm3.846-19.23h-19.23v-7.693h19.23v7.692Z"/></svg>