<svg xmlns="http://www.w3.org/2000/svg" viewBox="0 0 50 50"><path fill-rule="evenodd" d="M49.091 22.067c-.491-.8-1.13-1.523-1.711-2.147a73.09 73.09 0 0 0-.63-.664c-.365-.381-.696-.728-1.018-1.1-.483-.558-.783-.998-.936-1.364-.15-.36-.245-.87-.293-1.595-.031-.478-.038-.939-.046-1.448-.004-.293-.009-.602-.019-.94-.045-1.582-.18-3.889-1.77-5.478-1.59-1.592-3.88-1.713-5.449-1.753a71.113 71.113 0 0 0-.878-.015 27.115 27.115 0 0 1-1.496-.047c-.72-.05-1.246-.149-1.633-.31-.396-.166-.85-.477-1.408-.958-.38-.33-.735-.669-1.125-1.043-.198-.19-.405-.388-.63-.599-.617-.578-1.333-1.213-2.127-1.703C27.117.407 26.136 0 25 0c-1.139 0-2.125.412-2.933.909-.8.491-1.523 1.13-2.147 1.711-.238.223-.457.432-.664.63-.381.365-.728.696-1.1 1.018-.558.483-.998.783-1.364.936-.36.15-.87.245-1.595.293-.478.031-.939.038-1.448.046-.293.004-.602.009-.94.019-1.582.045-3.889.18-5.478 1.77-1.592 1.59-1.713 3.88-1.753 5.449-.008.313-.012.602-.015.878-.007.528-.014 1.005-.047 1.496-.05.72-.149 1.246-.31 1.633-.166.396-.477.85-.958 1.408-.33.38-.669.735-1.042 1.125-.19.198-.39.405-.6.63-.578.617-1.213 1.333-1.702 2.127C.407 22.883 0 23.864 0 25c0 1.139.412 2.125.909 2.933.491.8 1.13 1.523 1.711 2.147.223.238.432.457.63.664.365.381.696.728 1.018 1.1.483.558.783.998.936 1.364.15.36.245.87.293 1.595.031.478.038.939.046 1.448.004.293.009.602.019.94.045 1.582.18 3.889 1.77 5.478 1.59 1.592 3.88 1.713 5.449 1.753.313.008.602.012.878.015.528.007 1.005.014 1.496.047.72.05 1.246.149 1.633.31.396.166.85.477 1.408.958.38.33.735.669 1.125 1.042.198.19.405.39.63.6.617.578 1.333 1.213 2.127 1.702.805.497 1.786.904 2.922.904 1.139 0 2.125-.412 2.933-.909.8-.491 1.523-1.13 2.147-1.711.238-.223.457-.431.664-.63.381-.365.728-.696 1.1-1.018.558-.483.998-.783 1.364-.936.36-.15.87-.245 1.595-.293.478-.031.939-.038 1.448-.046.293-.004.602-.009.94-.019 1.582-.045 3.889-.18 5.478-1.77 1.592-1.59 1.713-3.88 1.753-5.449.008-.313.012-.602.015-.878.007-.528.014-1.005.047-1.496.05-.72.149-1.246.31-1.633.166-.396.477-.85.958-1.408.33-.38.669-.735 1.042-1.125.19-.198.39-.405.6-.63.578-.617 1.213-1.333 1.702-2.127.497-.805.904-1.786.904-2.922 0-1.139-.412-2.125-.909-2.933Zm-3.035 3.981c-.29.47-.716.97-1.268 1.559-.15.16-.317.334-.49.516-.41.426-.86.896-1.25 1.348-.571.662-1.167 1.452-1.548 2.362-.385.919-.52 1.9-.579 2.77-.04.587-.049 1.233-.057 1.815a63.49 63.49 0 0 1-.012.71c-.044 1.706-.246 2.554-.708 3.016-.465.464-1.339.675-3.055.725-.233.006-.492.01-.762.015-.571.009-1.197.019-1.758.056-.857.056-1.831.184-2.732.559-.895.372-1.678.967-2.33 1.533-.437.377-.898.817-1.319 1.22-.192.183-.376.359-.545.517-.593.553-1.102.985-1.58 1.28-.47.29-.807.38-1.063.38-.259 0-.59-.09-1.048-.373-.47-.29-.97-.716-1.559-1.268-.16-.15-.334-.317-.516-.49-.426-.41-.896-.86-1.348-1.25-.662-.571-1.452-1.167-2.362-1.548-.919-.385-1.9-.52-2.77-.579-.587-.04-1.232-.049-1.815-.057a63.501 63.501 0 0 1-.71-.012c-1.706-.044-2.554-.246-3.016-.708-.464-.465-.675-1.339-.724-3.055-.007-.233-.011-.492-.016-.762-.009-.571-.019-1.197-.056-1.758-.056-.857-.184-1.831-.559-2.732-.372-.895-.967-1.678-1.533-2.33-.378-.437-.818-.898-1.22-1.319a68.309 68.309 0 0 1-.517-.545c-.553-.593-.985-1.102-1.28-1.58-.29-.47-.38-.807-.38-1.063 0-.259.09-.59.373-1.048.29-.47.716-.97 1.268-1.559.15-.16.317-.334.49-.516.41-.426.86-.896 1.25-1.348.571-.662 1.167-1.452 1.548-2.362.385-.919.52-1.9.579-2.77.04-.587.049-1.233.057-1.815.004-.252.007-.491.012-.71.044-1.706.247-2.554.708-3.016.465-.464 1.339-.675 3.055-.724.233-.007.492-.011.762-.016.571-.009 1.197-.019 1.758-.056.857-.056 1.831-.184 2.732-.559.895-.372 1.677-.967 2.33-1.533.437-.377.898-.818 1.319-1.22.192-.183.375-.359.545-.517.593-.553 1.102-.985 1.58-1.28.47-.29.807-.38 1.063-.38.259 0 .59.09 1.048.373.47.29.97.716 1.559 1.268.16.15.334.317.516.49.426.41.896.86 1.348 1.25.662.571 1.452 1.167 2.361 1.548.92.385 1.9.52 2.77.579.588.04 1.233.049 1.817.057.25.004.49.007.709.012 1.706.044 2.554.247 3.016.708.464.465.675 1.339.725 3.055.006.233.01.492.015.762.009.571.019 1.197.056 1.758.056.857.184 1.831.559 2.732.372.895.967 1.677 1.533 2.33.377.437.817.898 1.22 1.319.183.192.359.375.517.545.553.593.985 1.102 1.28 1.58.29.47.38.807.38 1.063 0 .259-.09.59-.373 1.048Zm-9.942-7.638c.68.714.654 1.844-.06 2.525l-13.103 12.5a1.786 1.786 0 0 1-2.466-.001l-6.54-6.25a1.786 1.786 0 1 1 2.467-2.582l5.308 5.072L33.589 18.35a1.786 1.786 0 0 1 2.525.06Z"/></svg>