<svg xmlns="http://www.w3.org/2000/svg" viewBox="0 0 24.002 23.997"><path d="M20.004 3.055C17.466.782 14.054-.3 10.639.072 5.127.682.685 5.123.076 10.636c-.67 6.064 3.155 11.765 8.897 13.257a3.188 3.188 0 0 0 2.771-.57A3.21 3.21 0 0 0 13 20.766v-2.87a5.01 5.01 0 0 0 4-4.899v-1a1 1 0 1 0 0-2h-2v-3a1 1 0 1 0-2 0v3h-2v-3a1 1 0 1 0-2 0v3H7a1 1 0 1 0 0 2v1a5.009 5.009 0 0 0 4 4.9v2.87c0 .383-.175.737-.479.973a1.206 1.206 0 0 1-1.045.217c-4.709-1.225-7.965-6.1-7.412-11.103.507-4.588 4.206-8.287 8.794-8.794 2.891-.316 5.665.562 7.812 2.484a10.016 10.016 0 0 1 3.331 7.452 9.941 9.941 0 0 1-6.363 9.318.999.999 0 0 0-.568 1.295.998.998 0 0 0 1.295.568c4.64-1.81 7.637-6.2 7.637-11.182a12.02 12.02 0 0 0-3.997-8.942l-.001.002ZM9.001 12.997v-1h6v1c0 1.654-1.346 3-3 3s-3-1.346-3-3Z"/></svg>