<svg xmlns="http://www.w3.org/2000/svg" viewBox="0 0 50 48.2"><path d="M31.56 0c-1.17-.07-2.32.32-3.23 1.1l-1.97 1.68c-.8.67-1.93.67-2.72 0L21.67 1.1C20.5.09 18.82-.24 17.27.26c-1.55.5-2.68 1.72-3.06 3.31l-.59 2.51c-.25 1.01-1.17 1.68-2.18 1.59l-2.56-.21c-1.59-.13-3.14.59-4.11 1.89-.96 1.3-1.13 2.98-.54 4.48l.96 2.39c.38.96.04 2.05-.84 2.6l-2.18 1.34C.79 21-.01 22.47-.01 24.1s.84 3.1 2.18 3.94l2.18 1.34c.88.54 1.22 1.64.84 2.6l-.96 2.39c-.63 1.51-.42 3.19.54 4.49.96 1.3 2.47 2.01 4.11 1.89l2.56-.21c1.05-.08 1.97.59 2.18 1.59l.59 2.51a4.604 4.604 0 0 0 3.06 3.31c.46.17.96.21 1.43.21a4.6 4.6 0 0 0 2.98-1.09l1.97-1.68c.8-.67 1.93-.67 2.72 0l1.97 1.68a4.552 4.552 0 0 0 4.4.88c1.55-.5 2.68-1.72 3.06-3.31l.59-2.51c.25-1.01 1.17-1.68 2.18-1.59l2.56.21c1.59.13 3.14-.59 4.11-1.89s1.13-2.98.55-4.49l-.96-2.39c-.38-1.01-.04-2.1.84-2.64L47.85 28c1.38-.84 2.18-2.31 2.18-3.94s-.84-3.1-2.18-3.94l-2.18-1.34c-.88-.54-1.22-1.64-.84-2.6l.96-2.39c.63-1.51.42-3.18-.55-4.48s-2.47-2.01-4.11-1.89l-2.56.21c-1.05.08-1.97-.59-2.18-1.59l-.59-2.51A4.604 4.604 0 0 0 32.74.22c-.39-.13-.78-.2-1.17-.22ZM18.55 2.6c.53-.03 1.04.14 1.48.51L22 4.79c1.72 1.47 4.23 1.47 5.99 0l1.97-1.68c.59-.5 1.3-.63 2.01-.42s1.22.8 1.38 1.51l.59 2.51c.54 2.22 2.56 3.69 4.82 3.52l2.56-.21c.75-.04 1.43.25 1.84.84.42.59.54 1.34.25 2.01l-.96 2.39c-.88 2.1-.08 4.48 1.84 5.7l2.18 1.34c.63.38 1.01 1.05 1.01 1.8s-.38 1.38-1.01 1.8l-2.14 1.3c-1.93 1.17-2.72 3.6-1.84 5.7l.96 2.39c.29.67.21 1.42-.25 2.01-.46.59-1.13.92-1.84.84l-2.56-.21c-2.26-.17-4.32 1.3-4.82 3.52l-.59 2.51a2.1 2.1 0 0 1-1.38 1.51c-.71.21-1.42.08-2.01-.42l-1.97-1.68c-1.72-1.47-4.23-1.47-5.99 0l-1.97 1.68c-.59.5-1.3.63-2.01.42-.71-.21-1.22-.8-1.38-1.51l-.59-2.51c-.5-2.1-2.35-3.52-4.48-3.52h-.38l-2.56.21c-.75.04-1.43-.25-1.84-.84-.42-.59-.54-1.34-.25-2.01l.96-2.39c.88-2.1.08-4.48-1.84-5.7l-2.18-1.34c-.63-.38-1.01-1.05-1.01-1.8s.38-1.38 1.01-1.8l2.18-1.34c1.93-1.17 2.72-3.6 1.84-5.7l-.96-2.35c-.29-.67-.21-1.43.25-2.01.42-.59 1.13-.92 1.84-.84l2.56.21c2.26.17 4.32-1.3 4.82-3.52l.59-2.51a2.1 2.1 0 0 1 1.38-1.51c.18-.05.36-.08.53-.09Zm1.02 12.25c-2.1 0-3.77 1.68-3.77 3.77s1.68 3.77 3.77 3.77 3.77-1.68 3.77-3.77-1.68-3.77-3.77-3.77Zm11.68.86c-.32.02-.63.17-.86.44l-9.22 10.44c-.46.5-.42 1.3.13 1.76.25.21.54.34.84.34.34 0 .71-.13.96-.42l9.22-10.44c.38-.59.34-1.38-.17-1.8-.25-.23-.58-.34-.9-.31Zm-11.68 1.66c.71 0 1.26.54 1.26 1.26s-.54 1.26-1.26 1.26-1.26-.54-1.26-1.26.54-1.26 1.26-1.26Zm10.9 8.38c-2.1 0-3.77 1.68-3.77 3.77s1.68 3.77 3.77 3.77 3.77-1.68 3.77-3.77-1.68-3.77-3.77-3.77Zm0 2.51c.71 0 1.26.54 1.26 1.26s-.54 1.26-1.26 1.26-1.26-.54-1.26-1.26.54-1.26 1.26-1.26Zm-11.74 1.68a1.261 1.261 0 1 0 .002 2.522 1.261 1.261 0 0 0-.002-2.522Z"/></svg>