<?xml version="1.0" encoding="UTF-8"?>
<svg xmlns="http://www.w3.org/2000/svg" viewBox="0 0 42 42">
  <path d="M29.49 27.983a6.955 6.955 0 0 0-3.918 1.203l-1.502-1.803 1.63-2.898h2.39a.7.7 0 0 0 0-1.4h-5.596a.7.7 0 0 0 0 1.4h1.602l-1.484 2.637-.017.03-3.014 5.355a2.722 2.722 0 0 0-2.945.231 9.744 9.744 0 0 0-4.538-6.184l.29-.579a9.639 9.639 0 0 0 1.012-4.288 2.798 2.798 0 0 0-2.799-2.799H7.803a2.798 2.798 0 1 0 0 5.597h2.099a.7.7 0 0 0 0-1.4H7.803a1.4 1.4 0 0 1 0-2.798h2.798a1.4 1.4 0 0 1 1.4 1.4 8.236 8.236 0 0 1-.865 3.663l-.584 1.164c0 .005-.007.007-.01.012-.002.004 0 .01-.004.015l-.951 1.903a7.01 7.01 0 1 0 1.251.63l.63-1.26a8.356 8.356 0 0 1 4.03 7.164c.004.99.53 1.904 1.386 2.403l-.513 1.795h-.873a.7.7 0 0 0 0 1.399h2.798a.7.7 0 0 0 0-1.4h-.471l.403-1.405c.023 0 .045.007.07.007a2.798 2.798 0 0 0 2.699-2.099h1.534a6.996 6.996 0 1 0 6.959-7.695ZM12.7 34.978a5.618 5.618 0 1 1-3.742-5.274l-2.48 4.962a.7.7 0 0 0 1.252.625l2.48-4.967a5.597 5.597 0 0 1 2.49 4.654Zm5.596 1.4a1.4 1.4 0 1 1 0-2.799 1.4 1.4 0 0 1 0 2.799Zm9.7-2.1H23.94a5.573 5.573 0 0 1 1.462-3.11l2.592 3.11Zm-5.469 0h-1.532a2.78 2.78 0 0 0-.35-.81l2.688-4.78 1.164 1.393a6.973 6.973 0 0 0-1.97 4.198Zm12.26 2.538a5.602 5.602 0 0 1-10.846-1.138h5.549a.7.7 0 0 0 .538-1.147l-3.552-4.26a5.597 5.597 0 0 1 8.312 6.545Zm6.973-17.843a1.4 1.4 0 0 1-.022 1.384l-1.94 3.365a1.464 1.464 0 0 1-1.18.763l-2.294.03-4.091 2.308a.7.7 0 0 1-.688-1.219l4.247-2.393a.695.695 0 0 1 .334-.09l2.444-.035c-.03-.003-.002-.029.014-.058l1.948-3.374-1.165-2.158a.7.7 0 0 1-.083-.332v-4.939a.7.7 0 0 1 .083-.332l1.159-2.152-1.942-3.383a.28.28 0 0 0-.048-.062l-2.392.028a.684.684 0 0 1-.358-.094L31.51 3.757a.69.69 0 0 1-.25-.245l-1.266-2.113h-3.891l-1.26 2.114a.7.7 0 0 1-.251.247l-4.275 2.47a.608.608 0 0 1-.358.093l-2.396-.027a.325.325 0 0 0-.059.077l-1.937 3.358 1.238 2.14a.7.7 0 0 1 .093.35v4.939a.7.7 0 0 1-.093.35l-1.238 2.148 1.944 3.396c.01.015.024.028.04.037l1.444-.005a.7.7 0 0 1 0 1.399h-1.49a1.47 1.47 0 0 1-1.198-.721l-1.953-3.414a1.4 1.4 0 0 1 0-1.392l1.143-1.985v-4.564l-1.147-1.986a1.4 1.4 0 0 1 0-1.388l1.947-3.375a1.47 1.47 0 0 1 1.19-.763l2.296.026 3.951-2.28L24.9.684c.255-.422.71-.681 1.204-.684h3.89a1.39 1.39 0 0 1 1.201.683l1.173 1.956 3.951 2.284 2.27-.026c.51.03.97.32 1.212.77l1.943 3.365c.247.425.252.948.014 1.378l-1.075 1.988v4.585l1.077 1.99Zm-13.71 2.714a6.996 6.996 0 0 0 0-13.992 7.004 7.004 0 0 0-6.995 6.996 6.996 6.996 0 0 0 6.996 6.996Zm0-12.593a5.597 5.597 0 1 1-5.596 5.597 5.603 5.603 0 0 1 5.597-5.597Z"></path>
</svg>
