<svg xmlns="http://www.w3.org/2000/svg" viewBox="0 0 50 36"><path d="M32.031 10.938a5.469 5.469 0 1 0 0-10.938 5.469 5.469 0 0 0 0 10.938Zm0-7.813a2.344 2.344 0 1 1 0 4.688 2.344 2.344 0 0 1 0-4.688Zm17.75 30.453L38.63 14.75l-.014-.022a3.146 3.146 0 0 0-5.357 0l-.014.023-5.094 8.615-8.269-14.06-.016-.027a3.145 3.145 0 0 0-5.357 0l-.016.026L.216 33.583a1.562 1.562 0 0 0 1.347 2.354h46.874a1.562 1.562 0 0 0 1.345-2.359ZM17.174 10.913a.02.02 0 0 1 .024-.004.02.02 0 0 1 .005.004l4.609 7.837h-9.247l4.609-7.837Zm-12.879 21.9 6.432-10.938H23.65l6.432 10.937H4.294Zm29.412 0-3.745-6.37 5.962-10.08a.02.02 0 0 1 .025-.005.018.018 0 0 1 .005.005l9.743 16.45h-11.99Z"></path></svg>