<svg xmlns="http://www.w3.org/2000/svg" style="display:block" viewBox="0 0 2048 2048" width="1024" height="1024"><defs><linearGradient id="Gradient1" gradientUnits="userSpaceOnUse" x1="176.277" y1="1230.2" x2="1940.38" y2="1767.63"><stop class="stop0" offset="0" stop-opacity="1" stop-color="rgb(0,13,75)"/><stop class="stop1" offset="1" stop-opacity="1" stop-color="rgb(5,44,105)"/></linearGradient></defs><path transform="translate(0,0)" fill="rgb(245,245,241)" d="M 0 0 L 2048 0 L 2048 2048 L 0 2048 L 0 0 z"/><path transform="translate(0,0)" fill="url(#Gradient1)" d="M 1172.49 901.541 C 1165.48 894.635 1153.9 887.327 1152.35 876.984 C 1153.27 873.938 1153.63 873.443 1155.93 871.239 C 1164.9 870.584 1162.76 879.094 1168.39 883.103 C 1169.9 884.175 1169.24 883.888 1171.25 883.555 C 1172.13 880.796 1173.09 876.234 1175.35 874.361 C 1176.4 873.491 1177.02 874.025 1178.22 874.285 C 1182.02 877.666 1184.08 882.39 1186.46 886.82 C 1189.64 886.517 1192.84 886.231 1196.05 886.252 C 1204.29 886.304 1212.54 888.182 1219.68 892.419 C 1235.9 902.043 1253.67 920.574 1268.08 933.273 C 1306.81 967.424 1346.13 1001.81 1382.86 1038.11 C 1381.81 1028.38 1380.87 1016.52 1386.22 1007.9 C 1394.39 994.943 1407.85 987.094 1422.55 983.72 C 1441.69 979.324 1461.63 982.027 1478.27 992.68 C 1493.29 1002.29 1502.84 1016.32 1507.21 1033.47 C 1508.79 1046.24 1507.35 1057.75 1499.28 1068.25 C 1492.89 1076.56 1483.84 1082.52 1475.22 1088.27 C 1477.38 1095.13 1480.07 1101.39 1483.21 1107.85 C 1510.48 1106.04 1537.64 1112.54 1558.66 1130.9 C 1564.6 1136.1 1569.93 1142.9 1574.35 1149.41 C 1600.89 1188.46 1624.08 1230.72 1648.06 1271.4 L 1680.84 1326.95 C 1686.07 1335.79 1691.97 1344.5 1696.69 1353.6 C 1698.06 1356.24 1699.53 1359.1 1699.45 1362.16 C 1699.35 1365.88 1696.91 1368.79 1694.14 1371 C 1693.66 1371.38 1693.17 1371.76 1692.68 1372.13 C 1704.74 1420.05 1714.4 1468.56 1724.98 1516.82 C 1728.09 1530.98 1731.53 1558.45 1737.57 1570.35 C 1743.26 1581.55 1757.66 1596.08 1765.98 1606.28 C 1780.89 1624.56 1881.84 1744.27 1882.6 1752.43 L 1880.13 1755.54 C 1884.52 1767.81 1907.99 1780.61 1917.72 1788.5 C 1923.3 1793.03 1928.71 1798.66 1933.07 1804.37 C 1925.6 1814.8 1915.87 1823.68 1906.8 1832.71 C 1893.65 1845.87 1880.36 1858.88 1866.94 1871.75 C 1859.08 1879.31 1851.68 1888.01 1843.38 1895 C 1836.13 1887.68 1830.89 1880.17 1826.77 1870.68 C 1833.07 1851.48 1837.5 1831.4 1842.18 1811.74 C 1839.75 1808.28 1837.34 1804.91 1835.36 1801.16 C 1832.44 1803.88 1829.56 1806.69 1826.5 1809.25 C 1788.43 1777.88 1753.13 1741.93 1717.4 1707.92 C 1688.73 1680.63 1657.49 1654.12 1631.99 1623.86 C 1631.02 1681.75 1631.77 1739.59 1631.68 1797.48 C 1631.66 1810.29 1633.52 1846.67 1630.68 1855.9 C 1630.33 1856.02 1629.98 1856.14 1629.64 1856.28 C 1628.05 1856.89 1628.65 1856.63 1627.03 1857.59 C 1625.71 1869.08 1633.56 1904.59 1626.77 1911.82 C 1622.91 1913.04 1619.08 1913.8 1615.04 1914.07 C 1600.39 1915.07 1516.99 1915.74 1507.67 1912.48 C 1503.64 1906.06 1507.4 1893.1 1509.01 1886.03 C 1509.08 1885.75 1509.15 1885.46 1509.22 1885.18 C 1517.41 1881.4 1556.48 1862.57 1559.76 1856.14 C 1557.16 1854.01 1554.88 1856.24 1553.01 1853.25 C 1552.49 1829.44 1550.12 1805.58 1548.6 1781.81 L 1540.19 1641.61 C 1539.33 1626.38 1537.79 1611.13 1537.17 1595.89 C 1535.66 1558.7 1535.98 1521.23 1535.71 1484.01 C 1535.59 1466.63 1537.15 1446.33 1534.1 1429.32 C 1532.34 1419.47 1477.94 1296.2 1471.77 1289.13 C 1474.7 1313.65 1476.98 1337.84 1478.37 1362.51 C 1484.76 1456.02 1464.79 1565.65 1427.14 1651.39 C 1422.2 1662.62 1417.31 1674.52 1411.24 1685.18 C 1408.01 1693.7 1402.77 1702.26 1398.36 1710.25 C 1377.85 1747.78 1352.58 1782.5 1323.19 1813.57 C 1231.19 1797.18 1138.82 1742.28 1072.24 1677.66 C 1062.3 1668.01 1053.21 1657.42 1044.01 1647.08 L 1043.69 1809.42 C 1059.35 1809.54 1095.33 1807.15 1108.16 1810.51 C 1110.01 1812.35 1110.24 1812.7 1110.25 1815.5 C 1110.27 1823.89 1076.99 1879.67 1069.9 1886.83 C 1032.85 1888.62 994.953 1886.92 957.826 1886.89 L 738.512 1886.93 L 364.074 1886.91 L 158.647 1886.72 C 149.925 1876.6 129.432 1838.32 123.139 1824.83 C 121.212 1820.7 119.357 1816.23 120.935 1811.78 C 129.82 1807.88 172.708 1809.88 184.925 1809.89 L 185.038 1393 L 184.863 1269.94 C 184.786 1247.58 183.704 1224.67 184.914 1202.36 C 185.548 1190.67 189.996 1185.15 198.48 1177.59 C 202.457 1175.22 206.304 1173.75 210.658 1172.26 C 242.457 1171.47 274.403 1171.83 306.215 1172.03 L 317.916 1172.19 L 631.24 1172.06 C 634.986 1169.07 639.449 1166.88 644.222 1166.15 C 651.183 1165.09 656.127 1168.3 661.567 1172.13 L 906.66 1171.98 L 974.425 1171.85 C 987.568 1171.77 1001.39 1170.88 1014.45 1172.08 C 1026.03 1173.14 1032.71 1179.69 1039.81 1188.15 C 1065.79 1171.83 1091.77 1148.68 1116.68 1130.24 C 1121.58 1126.61 1128.53 1121.07 1134.71 1120.62 C 1146.2 1119.8 1158.68 1122.34 1170.07 1123.72 C 1189.15 1126.1 1208.24 1128.37 1227.34 1130.54 L 1329.52 1141.6 C 1350.51 1143.77 1371.72 1145.29 1392.58 1148.44 C 1342.33 1097.59 1294.15 1044.56 1244.8 992.82 C 1228.95 976.21 1213.6 959.272 1197.21 943.175 C 1192.05 942.19 1186.82 941.15 1181.76 939.677 C 1177.78 938.517 1173.67 936.408 1171.93 932.4 C 1170 927.962 1172.14 924.288 1173.91 920.215 L 1165.59 911.896 C 1167.85 908.419 1170.19 904.991 1172.49 901.541 z"/><path transform="translate(0,0)" fill="rgb(245,245,241)" d="M 1147.84 1163.05 C 1177.91 1163.35 1208.89 1168.1 1238.89 1170.82 C 1288.88 1175.35 1339 1179.11 1388.95 1184.09 C 1394.88 1199.25 1399.83 1214.77 1405.73 1229.91 C 1399.56 1253.95 1390.8 1277.36 1385.34 1301.54 C 1343.72 1293.07 1301.47 1286.65 1260.04 1277.49 C 1256.3 1276.67 1252.24 1275.97 1248.69 1274.55 C 1243.07 1272.32 1238.71 1267.53 1232.53 1266.69 C 1227.19 1265.96 1220.93 1267.11 1216.34 1269.98 C 1209.73 1274.12 1206.46 1280.3 1203.52 1287.23 C 1196.07 1284.15 1188.22 1281.39 1181.52 1276.88 C 1180.97 1276.51 1180.41 1276.15 1179.86 1275.77 C 1179.53 1275.55 1179.21 1275.31 1178.89 1275.07 C 1165.88 1282.21 1145.24 1305.71 1132.22 1316.66 C 1114.03 1331.95 1093.56 1345.16 1075.96 1360.95 C 1091.31 1418.5 1115.95 1508.83 1149.68 1556.94 C 1164.93 1578.86 1184.84 1597.12 1207.99 1610.42 C 1230.33 1623.35 1257.34 1633.87 1282.93 1638.22 C 1318.47 1588.48 1344.43 1535.16 1345.06 1472.59 C 1345.15 1463.42 1346.3 1450.29 1343.8 1441.57 C 1343.67 1441.14 1343.48 1440.74 1343.32 1440.33 C 1341.34 1408.45 1330.01 1376.78 1321.44 1346.2 C 1336.75 1350.37 1417.76 1377.5 1426.92 1374.15 C 1434.63 1371.34 1440.01 1351.68 1442.71 1344.58 C 1447.32 1467.12 1422.49 1590.94 1357.32 1695.89 C 1353.01 1699.78 1342.78 1716.35 1337.97 1722.46 C 1329.32 1733.44 1319.25 1743.46 1310.89 1754.57 C 1301.31 1750.84 1291.1 1748.27 1281.35 1744.95 C 1266.97 1739.96 1252.85 1734.26 1239.03 1727.87 C 1113.91 1670.49 1037.98 1557.18 991.401 1431.89 C 977.697 1391.61 962.638 1351.3 954.035 1309.54 C 964.992 1299.52 978.795 1292.29 989.26 1281.73 C 1004.17 1271.71 1018.39 1260.26 1032.78 1249.48 C 1071.1 1220.75 1108.86 1190.85 1147.84 1163.05 z"/><path transform="translate(0,0)" fill="rgb(250,189,9)" d="M 1389.75 1311.38 L 1433.45 1165.94 C 1438.71 1147.81 1446.82 1132.25 1464.15 1122.89 C 1482.03 1113.24 1502.97 1113.49 1521.92 1119.65 C 1534.58 1123.76 1548.25 1131.08 1557.53 1140.76 C 1571.78 1155.65 1582.11 1176.66 1592.73 1194.35 C 1610.28 1223.33 1627.52 1252.5 1644.43 1281.87 C 1659.87 1308.42 1677.41 1334.61 1691.42 1361.9 C 1640.89 1381.83 1589.17 1399.19 1538.22 1418.07 C 1523.73 1382.04 1508.26 1346.41 1491.82 1311.22 C 1485.39 1297.21 1479.51 1280.55 1470.67 1268.03 L 1477.06 1249.19 C 1479.73 1242.39 1492.82 1212.47 1490.46 1207.46 C 1489.66 1205.79 1489.39 1205.96 1487.89 1205.21 C 1483.4 1207.13 1481.07 1213.68 1479.38 1217.96 C 1466.21 1251.29 1455.08 1285.89 1443.09 1319.68 C 1437.4 1335.72 1432.15 1352.35 1424.91 1367.75 C 1411.97 1365.13 1252.9 1318.2 1247.48 1313.56 C 1246.84 1313.01 1246.49 1312.19 1246 1311.51 C 1246.74 1309.84 1247.57 1308.63 1248.72 1307.21 C 1248.87 1307.11 1249.04 1307.04 1249.16 1306.91 C 1254.35 1301.08 1254.03 1290.93 1253.23 1283.74 C 1298.75 1293.03 1344.57 1300.4 1389.75 1311.38 z"/><path transform="translate(0,0)" fill="rgb(250,189,9)" d="M 1116.16 1140.88 L 1115.81 1138.62 C 1120.34 1134.51 1126.14 1128.91 1132.88 1129.87 C 1135.78 1130.29 1137.59 1131.36 1139.41 1133.66 C 1141.9 1136.83 1141.98 1141.59 1141.81 1145.4 C 1134.23 1154.11 1102.94 1169.19 1100.35 1178.08 C 1102.17 1177.22 1101.28 1177.84 1102.79 1176.17 C 1108.54 1169.81 1134.91 1151.43 1142.72 1148.29 L 1143.67 1148.92 C 1115.69 1166.99 1089.74 1188.28 1063.07 1208.2 C 1020.38 1240.1 977.483 1271.56 935.447 1304.33 C 939.255 1311.1 941.2 1317.84 943.123 1325.33 C 944.12 1333.19 948.056 1341.24 948.568 1348.93 C 954.568 1367.24 958.866 1386.11 965.026 1404.38 C 987.222 1470.2 1015.58 1531.04 1053.52 1589.18 C 1105.4 1657.58 1172.43 1718.51 1253.93 1748.87 L 1253.44 1750.13 L 1251.89 1750.51 C 1266.44 1759.41 1286.34 1762.99 1302.74 1767.36 C 1306.1 1768.25 1310.86 1768.65 1313.9 1769.99 C 1316.63 1771.19 1316.51 1772.31 1317.28 1774.96 C 1316.71 1775.74 1316.33 1776.64 1315.44 1777.04 C 1315.12 1786.09 1317.9 1795.97 1319.59 1804.86 C 1267.52 1797.07 1213.44 1769.94 1169.22 1742.47 C 1116.4 1709.66 1061.06 1661.28 1024.08 1611.16 C 963.832 1529.52 922.307 1404.28 899.236 1305.36 C 913.994 1289.54 934.715 1277.25 952.175 1264.35 L 1058.41 1184.19 C 1077.39 1170.07 1099.01 1157.12 1116.16 1140.88 z"/><path transform="translate(0,0)" fill="rgb(1,16,74)" d="M 941.34 1340.85 C 937.035 1328.83 933.081 1313.87 931.062 1301.3 C 932.108 1298.26 934.369 1297.01 936.864 1295.22 L 934.493 1302.53 L 935.447 1304.33 C 939.255 1311.1 941.2 1317.84 943.123 1325.33 C 944.12 1333.19 948.056 1341.24 948.568 1348.93 C 954.568 1367.24 958.866 1386.11 965.026 1404.38 C 987.222 1470.2 1015.58 1531.04 1053.52 1589.18 C 1105.4 1657.58 1172.43 1718.51 1253.93 1748.87 L 1253.44 1750.13 L 1251.89 1750.51 C 1266.44 1759.41 1286.34 1762.99 1302.74 1767.36 C 1306.1 1768.25 1310.86 1768.65 1313.9 1769.99 C 1316.63 1771.19 1316.51 1772.31 1317.28 1774.96 C 1316.71 1775.74 1316.33 1776.64 1315.44 1777.04 L 1314.78 1775.27 C 1310.36 1771.81 1284.93 1766 1277.91 1763.79 C 1204.88 1740.78 1141.86 1697.55 1090.08 1641.58 C 1081.76 1632.59 1069.27 1621.79 1063.67 1611 C 1054.78 1602.15 1047.51 1590.23 1040.66 1579.7 C 996.993 1512.57 959.887 1418.46 941.34 1340.85 z"/><path transform="translate(0,0)" fill="rgb(1,16,74)" d="M 1116.16 1140.88 L 1115.81 1138.62 C 1120.34 1134.51 1126.14 1128.91 1132.88 1129.87 C 1135.78 1130.29 1137.59 1131.36 1139.41 1133.66 C 1141.9 1136.83 1141.98 1141.59 1141.81 1145.4 C 1134.23 1154.11 1102.94 1169.19 1100.35 1178.08 C 1102.17 1177.22 1101.28 1177.84 1102.79 1176.17 C 1108.54 1169.81 1134.91 1151.43 1142.72 1148.29 L 1143.67 1148.92 C 1115.69 1166.99 1089.74 1188.28 1063.07 1208.2 C 1020.38 1240.1 977.483 1271.56 935.447 1304.33 L 934.493 1302.53 L 936.864 1295.22 C 939.131 1291.84 1125.79 1152.52 1140.34 1144.12 C 1138.2 1139.2 1135.39 1134.71 1132.63 1130.13 C 1127.11 1133.66 1121.62 1137.25 1116.16 1140.88 z"/><path transform="translate(0,0)" fill="rgb(1,16,74)" d="M 1424.91 1367.75 C 1432.15 1352.35 1437.4 1335.72 1443.09 1319.68 C 1455.08 1285.89 1466.21 1251.29 1479.38 1217.96 C 1481.07 1213.68 1483.4 1207.13 1487.89 1205.21 C 1489.39 1205.96 1489.66 1205.79 1490.46 1207.46 C 1492.82 1212.47 1479.73 1242.39 1477.06 1249.19 L 1475.87 1248.6 C 1477.69 1239.77 1490.18 1216.43 1488.58 1209.5 L 1486.8 1209.66 C 1481.5 1216.04 1461.45 1273.34 1459.72 1282.33 L 1461.12 1281.6 C 1462.03 1281.13 1463.32 1281.58 1464.17 1281.98 C 1465.84 1282.76 1467.51 1284.5 1469.08 1285.56 C 1470.52 1286.54 1471.05 1287.6 1471.77 1289.13 C 1474.7 1313.65 1476.98 1337.84 1478.37 1362.51 C 1484.76 1456.02 1464.79 1565.65 1427.14 1651.39 C 1422.2 1662.62 1417.31 1674.52 1411.24 1685.18 L 1410.21 1685.06 C 1410.62 1681.28 1412.87 1675.97 1414.95 1672.78 C 1420.88 1663.69 1424.67 1652.69 1428.86 1642.68 C 1453.46 1583.83 1468.81 1521.53 1474.34 1457.99 L 1473.36 1457.16 L 1473.13 1457.84 L 1474.32 1456.54 L 1474.19 1455.96 C 1468.55 1466.32 1470.74 1491.54 1466.49 1505 C 1466.93 1518.29 1459.99 1538.55 1456.56 1551.81 C 1433.78 1639.9 1393.54 1727.57 1332.84 1796.21 C 1330.64 1798.7 1329.59 1799.88 1326.26 1800.21 C 1323.93 1798.85 1322.91 1798.19 1322.06 1795.53 C 1319.09 1786.19 1323.69 1775.09 1320.9 1766.51 C 1320.46 1766.77 1320.03 1767.05 1319.58 1767.27 C 1311.92 1771.11 1263.36 1755.59 1255.17 1751.31 C 1254.25 1750.82 1254.15 1750.7 1253.44 1750.13 L 1253.93 1748.87 C 1267.7 1754.15 1301.3 1767.03 1314.96 1766.29 C 1323.12 1765.84 1333.71 1750.14 1338.78 1744.15 C 1330.2 1747.88 1325.97 1759.85 1318.27 1762.82 C 1317.75 1753.48 1333.56 1746.25 1336.33 1737.06 C 1336.5 1736.48 1336.63 1735.89 1336.78 1735.3 C 1328.95 1743.62 1319.22 1752.16 1314.96 1762.9 C 1290.55 1755.06 1266.03 1747.29 1242.55 1736.92 C 1155.82 1698.59 1083.34 1627.66 1036.73 1545.69 C 1017.72 1512.27 1002.59 1475.88 988.789 1440.08 C 978.622 1412.93 969.375 1385.45 961.062 1357.68 C 957.889 1346.68 954.854 1325.13 950.414 1316.13 C 949.687 1314.66 949.955 1315.15 948.159 1314.63 L 944.01 1312.58 L 943.752 1311.61 C 952.194 1302.4 970.659 1289.65 981.118 1282.19 L 981.513 1282.76 C 980.641 1287.11 972.728 1288.37 971.635 1292.77 C 976.622 1291.4 983.197 1284.06 987.799 1280.8 L 989.26 1281.73 C 978.795 1292.29 964.992 1299.52 954.035 1309.54 C 962.638 1351.3 977.697 1391.61 991.401 1431.89 C 1037.98 1557.18 1113.91 1670.49 1239.03 1727.87 C 1252.85 1734.26 1266.97 1739.96 1281.35 1744.95 C 1291.1 1748.27 1301.31 1750.84 1310.89 1754.57 C 1319.25 1743.46 1329.32 1733.44 1337.97 1722.46 C 1342.78 1716.35 1353.01 1699.78 1357.32 1695.89 C 1422.49 1590.94 1447.32 1467.12 1442.71 1344.58 C 1440.01 1351.68 1434.63 1371.34 1426.92 1374.15 C 1417.76 1377.5 1336.75 1350.37 1321.44 1346.2 C 1330.01 1376.78 1341.34 1408.45 1343.32 1440.33 C 1337.18 1428.49 1335.99 1392.21 1328.55 1377.43 C 1326.78 1373.91 1319.58 1348.68 1320.32 1345.52 C 1331.97 1341.37 1411.71 1377.14 1425.48 1372.37 C 1434.83 1369.13 1439.69 1344.87 1444.59 1336.16 C 1444.78 1335.82 1444.97 1335.49 1445.17 1335.16 C 1446.73 1323.99 1453.55 1313.96 1454.68 1302.94 L 1452.51 1303.83 L 1453.35 1302.81 C 1445.21 1315.44 1434.51 1364.89 1425.01 1370.15 C 1414.44 1369.75 1398 1362.99 1387.53 1359.96 C 1339.3 1345.98 1291.87 1330.15 1243.91 1315.39 C 1242.41 1313.65 1242.44 1313.61 1242.38 1311.3 C 1244.7 1308.59 1245.48 1308.38 1248.72 1307.21 C 1247.57 1308.63 1246.74 1309.84 1246 1311.51 C 1246.49 1312.19 1246.84 1313.01 1247.48 1313.56 C 1252.9 1318.2 1411.97 1365.13 1424.91 1367.75 z"/><path transform="translate(0,0)" fill="rgb(58,147,163)" d="M 1455.47 1307.51 C 1462.09 1359.54 1463.82 1409.97 1457.12 1462.13 C 1454.56 1482.08 1449.32 1502.08 1447.35 1521.95 C 1429.47 1592.66 1403.08 1660.36 1359.2 1719.08 C 1353.44 1726.79 1346.4 1738.6 1338.78 1744.15 C 1330.2 1747.88 1325.97 1759.85 1318.27 1762.82 C 1317.75 1753.48 1333.56 1746.25 1336.33 1737.06 C 1336.5 1736.48 1336.63 1735.89 1336.78 1735.3 C 1350.3 1716.96 1365.55 1698.79 1375.79 1678.34 C 1375.91 1678.22 1376.06 1678.12 1376.17 1677.98 C 1382.64 1669.38 1388.85 1652.71 1393.61 1642.69 C 1430.76 1563.35 1449.74 1476.73 1449.18 1389.14 C 1449.1 1371.08 1449.17 1353.34 1446.15 1335.46 C 1449.3 1326.26 1453.1 1316.94 1455.47 1307.51 z"/><path transform="translate(0,0)" fill="rgb(250,189,9)" d="M 1464.78 1330.55 C 1466.46 1327.86 1467.61 1324.87 1468.86 1321.96 C 1471.55 1339.23 1471.72 1357.12 1472.24 1374.57 C 1472.02 1396.45 1474.31 1421.71 1470.07 1443.12 C 1469.9 1450.46 1469.16 1457.7 1468.39 1465 C 1456.16 1570.26 1420.4 1675.41 1356.76 1761.01 C 1347.34 1773.7 1337.52 1786.8 1326.57 1798.2 C 1324.68 1789.18 1323.15 1780.07 1322.88 1770.84 C 1390.59 1702.06 1431.87 1616.02 1453.48 1522.47 C 1458.38 1502.25 1461.34 1481.06 1463.71 1460.41 C 1464.76 1451.28 1464.69 1441.27 1466.75 1432.36 C 1468.47 1398.06 1467.64 1364.77 1464.78 1330.55 z"/><path transform="translate(0,0)" fill="rgb(247,176,23)" d="M 1464.78 1330.55 C 1466.46 1327.86 1467.61 1324.87 1468.86 1321.96 C 1471.55 1339.23 1471.72 1357.12 1472.24 1374.57 C 1472.02 1396.45 1474.31 1421.71 1470.07 1443.12 C 1468.94 1435.14 1468.52 1411.06 1470.45 1403.66 C 1470.72 1402.63 1471.22 1401.67 1471.2 1400.58 C 1471.16 1397.85 1470.63 1394.34 1468.92 1392.22 C 1464.63 1402.44 1473.2 1418.99 1467.2 1431.45 C 1467.06 1431.75 1466.9 1432.06 1466.75 1432.36 C 1468.47 1398.06 1467.64 1364.77 1464.78 1330.55 z"/><path transform="translate(0,0)" fill="rgb(250,189,9)" d="M 1464.78 1330.55 C 1464.75 1330.36 1464.72 1330.17 1464.69 1329.97 C 1463.38 1320.04 1457.44 1292.74 1463.63 1284.51 C 1467.33 1289.96 1468.73 1314.31 1468.86 1321.96 C 1467.61 1324.87 1466.46 1327.86 1464.78 1330.55 z"/><path transform="translate(0,0)" fill="rgb(16,115,142)" d="M 1193.08 1147.89 C 1202.57 1148.51 1212.05 1149.32 1221.51 1150.31 C 1245.32 1152.28 1270.67 1152.68 1294.16 1156.91 C 1321.03 1158.09 1348.1 1161.15 1374.9 1163.62 C 1381.79 1164.27 1398.3 1167.93 1404 1164.01 C 1403.79 1162.12 1403.99 1161.94 1402.72 1160.31 C 1399.32 1155.96 1392.48 1156.28 1387.42 1155.77 C 1391.42 1153.47 1394.29 1151.91 1399 1153.16 C 1403.59 1154.37 1405.29 1158.08 1407.24 1161.96 C 1407.8 1163.08 1408.33 1164.23 1408.86 1165.37 C 1411.67 1171.42 1415.92 1175.62 1419.31 1181.17 C 1423.65 1188.25 1415.41 1209.72 1412.48 1217.74 C 1412.13 1218.7 1411.61 1219.81 1410.67 1220.35 C 1410.32 1220.55 1409.92 1220.65 1409.54 1220.79 C 1403.38 1207 1400.28 1190.93 1392.78 1177.91 C 1364.49 1173.77 1335.59 1172.87 1307.1 1170.4 L 1147.68 1156.68 C 1136.27 1161.16 1086.96 1201.77 1073.68 1211.78 L 1011.81 1258.18 C 1001.59 1265.92 990.436 1273.45 981.118 1282.19 C 970.659 1289.65 952.194 1302.4 943.752 1311.61 L 944.01 1312.58 L 948.159 1314.63 C 949.955 1315.15 949.687 1314.66 950.414 1316.13 C 954.854 1325.13 957.889 1346.68 961.062 1357.68 C 969.375 1385.45 978.622 1412.93 988.789 1440.08 C 1002.59 1475.88 1017.72 1512.27 1036.73 1545.69 C 1083.34 1627.66 1155.82 1698.59 1242.55 1736.92 C 1266.03 1747.29 1290.55 1755.06 1314.96 1762.9 C 1319.22 1752.16 1328.95 1743.62 1336.78 1735.3 C 1336.63 1735.89 1336.5 1736.48 1336.33 1737.06 C 1333.56 1746.25 1317.75 1753.48 1318.27 1762.82 C 1325.97 1759.85 1330.2 1747.88 1338.78 1744.15 C 1333.71 1750.14 1323.12 1765.84 1314.96 1766.29 C 1301.3 1767.03 1267.7 1754.15 1253.93 1748.87 C 1172.43 1718.51 1105.4 1657.58 1053.52 1589.18 C 1015.58 1531.04 987.222 1470.2 965.026 1404.38 C 958.866 1386.11 954.568 1367.24 948.568 1348.93 C 948.056 1341.24 944.12 1333.19 943.123 1325.33 C 941.2 1317.84 939.255 1311.1 935.447 1304.33 C 977.483 1271.56 1020.38 1240.1 1063.07 1208.2 C 1089.74 1188.28 1115.69 1166.99 1143.67 1148.92 C 1149.98 1149.17 1156.28 1149.51 1162.58 1149.96 L 1179.62 1151.24 C 1184.18 1149.2 1188.1 1148.4 1193.08 1147.89 z"/><path transform="translate(0,0)" fill="rgb(1,16,74)" d="M 1193.08 1147.89 C 1202.57 1148.51 1212.05 1149.32 1221.51 1150.31 C 1245.32 1152.28 1270.67 1152.68 1294.16 1156.91 C 1321.03 1158.09 1348.1 1161.15 1374.9 1163.62 C 1370.1 1165.5 1366.02 1167.11 1360.77 1167.22 C 1345.77 1166.71 1330.64 1164.94 1315.67 1163.7 C 1299.31 1162.35 1282.75 1161.46 1266.5 1159.13 C 1252.98 1159.7 1237.7 1157.21 1224.25 1155.53 C 1209.34 1154.33 1194.44 1153.34 1179.62 1151.24 C 1184.18 1149.2 1188.1 1148.4 1193.08 1147.89 z"/><path transform="translate(0,0)" fill="rgb(1,16,74)" d="M 1387.42 1155.77 C 1391.42 1153.47 1394.29 1151.91 1399 1153.16 C 1403.59 1154.37 1405.29 1158.08 1407.24 1161.96 C 1407.8 1163.08 1408.33 1164.23 1408.86 1165.37 C 1411.67 1171.42 1415.92 1175.62 1419.31 1181.17 C 1423.65 1188.25 1415.41 1209.72 1412.48 1217.74 C 1412.13 1218.7 1411.61 1219.81 1410.67 1220.35 C 1410.32 1220.55 1409.92 1220.65 1409.54 1220.79 C 1410.6 1218.41 1411.48 1215.95 1412.17 1213.43 C 1415.83 1200 1405 1182.41 1398.64 1171.08 C 1385.99 1169.98 1373.35 1168.94 1360.77 1167.22 C 1366.02 1167.11 1370.1 1165.5 1374.9 1163.62 C 1381.79 1164.27 1398.3 1167.93 1404 1164.01 C 1403.79 1162.12 1403.99 1161.94 1402.72 1160.31 C 1399.32 1155.96 1392.48 1156.28 1387.42 1155.77 z"/><path transform="translate(0,0)" fill="rgb(58,147,163)" d="M 1405.37 1166.62 C 1409.04 1169.31 1412.36 1174.13 1414.85 1177.94 C 1418.57 1183.61 1419.71 1186.19 1418.26 1192.79 L 1417.3 1193.47 C 1412.14 1187.06 1408.18 1174.48 1405.37 1166.62 z"/><path transform="translate(0,0)" fill="rgb(250,189,9)" d="M 1141.13 1128.5 C 1222.98 1139.57 1305.34 1146.77 1387.42 1155.77 C 1392.48 1156.28 1399.32 1155.96 1402.72 1160.31 C 1403.99 1161.94 1403.79 1162.12 1404 1164.01 C 1398.3 1167.93 1381.79 1164.27 1374.9 1163.62 C 1348.1 1161.15 1321.03 1158.09 1294.16 1156.91 C 1270.67 1152.68 1245.32 1152.28 1221.51 1150.31 C 1212.05 1149.32 1202.57 1148.51 1193.08 1147.89 C 1188.1 1148.4 1184.18 1149.2 1179.62 1151.24 L 1162.58 1149.96 C 1160.63 1148.61 1159.94 1146.67 1158.85 1144.61 C 1155.25 1144.05 1151.68 1143.68 1148.06 1143.38 L 1141.13 1128.5 z"/><path transform="translate(0,0)" fill="rgb(1,16,74)" d="M 1158.85 1144.61 C 1169.86 1145.38 1182.3 1145.56 1193.08 1147.89 C 1188.1 1148.4 1184.18 1149.2 1179.62 1151.24 L 1162.58 1149.96 C 1160.63 1148.61 1159.94 1146.67 1158.85 1144.61 z"/><path transform="translate(0,0)" fill="rgb(1,16,74)" d="M 1386.22 1007.9 C 1394.39 994.943 1407.85 987.094 1422.55 983.72 C 1441.69 979.324 1461.63 982.027 1478.27 992.68 C 1493.29 1002.29 1502.84 1016.32 1507.21 1033.47 C 1506.51 1035.12 1505.79 1036.77 1505.05 1038.4 L 1503.35 1038.96 L 1502.12 1037.71 C 1502.08 1035.95 1502.14 1033.89 1501.72 1032.19 C 1501.37 1030.74 1488.12 1008.65 1486.58 1006.85 C 1483.19 1002.89 1478.29 999.695 1473.85 996.985 C 1451.28 983.193 1424.19 983.256 1402.62 999.178 C 1398.19 1002.45 1392.51 1009.2 1387.28 1010.45 L 1386.22 1007.9 z"/><path transform="translate(0,0)" fill="rgb(245,245,241)" d="M 615.439 1250.4 C 626.892 1236.58 637.836 1216.45 634.892 1197.77 C 634.236 1193.61 630.791 1189.27 631.291 1185.18 C 631.703 1181.82 634.242 1177.03 637.197 1175.21 C 640.564 1173.13 644.058 1173.04 647.791 1174 C 657.09 1176.39 662.486 1182.77 667.272 1190.56 C 662.287 1196.56 654.835 1200.13 650.269 1206.44 C 643.702 1215.52 637.011 1238.93 639.261 1249.88 C 640.623 1256.51 666.148 1267.43 672.79 1271.46 L 672.896 1270.27 L 674.035 1270.07 C 676.58 1272.38 679.337 1274.96 682.564 1276.27 C 685.428 1277.43 688.486 1277.19 691.22 1275.79 C 696.109 1273.29 707.838 1262.36 709.45 1257.07 C 703.406 1259.66 701.252 1270.57 689.298 1273.13 C 686.352 1273.76 683.391 1273.53 680.618 1272.32 C 676.117 1270.36 672.46 1265.71 668.154 1263.07 C 661.802 1259.16 654.183 1256.8 648.182 1252.4 C 645.175 1250.2 643.184 1246.94 642.795 1243.22 C 642.262 1238.12 646.773 1220.29 650.237 1216.79 C 650.484 1216.54 650.798 1216.37 651.079 1216.16 L 649.988 1216.66 L 650.582 1215.93 L 651.513 1216.19 C 670.057 1216.06 704.363 1213.93 721.316 1216.43 C 721.825 1216.38 722.335 1216.34 722.844 1216.29 C 724.393 1216.13 725.719 1215.77 727.207 1215.33 C 731.548 1214.06 736.916 1213.63 741.031 1215.89 C 741.29 1216.04 741.519 1216.23 741.763 1216.39 C 776.047 1214.19 811.25 1215.75 845.637 1215.79 C 898.44 1215.85 951.279 1215.32 1004.08 1216.04 C 982.774 1230.27 962.524 1246.58 941.95 1261.87 C 927.28 1272.78 910.691 1283.45 897.155 1295.67 C 894.443 1298.12 892.725 1301.19 891.068 1304.4 C 893.868 1319.75 898.443 1334.8 902.469 1349.86 C 918.239 1410.15 939.254 1468.96 965.271 1525.59 C 971.664 1539.38 978.543 1552.93 985.897 1566.23 C 990.842 1575.23 998.767 1585.38 1001.43 1595.25 C 1004.71 1607.45 1002.36 1654.98 1002.29 1669.91 C 1002.16 1695.93 1003.87 1729.57 1001.2 1754.94 C 955.406 1755.25 909.609 1755.29 863.814 1755.07 L 635.969 1755.1 C 499.778 1755.11 363.49 1756.63 227.311 1755.22 L 227.589 1394.81 C 227.692 1335.24 226.254 1275.37 227.631 1215.84 C 300.648 1215.67 374.073 1214.29 447.039 1216.67 C 440.624 1221.81 432.792 1229.82 431.737 1238.36 C 431.268 1242.16 432.395 1245.29 434.764 1248.2 C 443.038 1258.36 453.51 1254.87 462.539 1260.61 C 468.916 1264.66 477.36 1280.75 480.162 1287.77 C 467.475 1301.95 457.04 1315.17 448.46 1332.3 C 437.116 1329.61 421.516 1326.92 415.016 1316.01 C 410.644 1308.66 410.159 1301.58 400.668 1298.89 C 395.62 1297.45 390.687 1298.37 386.283 1301.16 C 379.799 1305.27 375.171 1312.49 373.838 1320.01 C 372.658 1326.67 374.054 1334.73 378.024 1340.28 C 380.784 1344.14 384.696 1346.4 389.409 1346.9 C 396.445 1347.64 402.723 1344.28 408.745 1341.05 C 419.409 1345.36 430.019 1351.63 438.475 1359.49 C 435.053 1374.17 432.561 1389.79 433.011 1404.92 C 421.851 1408.7 405.757 1415.45 394.407 1409.46 C 387.558 1405.85 382.417 1396 373.528 1398.42 C 368.128 1399.89 362.19 1405.07 359.5 1409.92 C 355.879 1416.45 355.76 1424.61 358.13 1431.58 C 360.214 1437.7 364.537 1443.69 370.545 1446.44 C 375.092 1448.52 380.078 1448.54 384.64 1446.49 C 389.844 1444.16 392.795 1439.04 395.83 1434.46 C 409.775 1431.39 420.623 1431.25 434.756 1433.2 C 436.987 1451.64 443.782 1468.96 452.488 1485.22 L 423.594 1502.52 C 414.851 1499.4 407.418 1496.68 398.405 1501.24 C 394.7 1503.11 391.922 1506.1 390.717 1510.11 C 388.741 1516.67 390.489 1524.78 393.762 1530.65 C 397.056 1536.55 402.521 1541.51 409.191 1543.14 C 413.093 1544.09 419.116 1543.93 422.524 1541.52 C 428.091 1537.58 428.76 1530.09 432.213 1524.63 C 437.594 1516.12 458.201 1510.1 467.584 1507.53 C 478.432 1520.33 489.108 1529.7 503.118 1538.94 C 499.092 1551.1 492.649 1563.18 485.289 1573.65 C 478.435 1575.02 469.528 1576.66 465.63 1583.29 C 463.436 1587.01 463.153 1590.9 464.465 1594.99 C 466.759 1602.16 472.818 1607.72 479.481 1610.88 C 485.922 1613.93 494.782 1615.57 501.576 1612.69 C 504.769 1611.34 507.114 1608.87 508.302 1605.61 C 511.097 1597.93 507.928 1590.43 505.203 1583.26 C 510.345 1570.67 518.61 1560.9 528.699 1551.92 C 543.703 1558.64 558.118 1564.05 574.66 1565.4 C 575.856 1574.46 580.642 1594.76 575.288 1602.52 C 570.991 1608.75 560.102 1612.61 561.042 1621.65 C 561.576 1626.79 566.348 1632.23 570.267 1635.21 C 576.319 1639.82 585.694 1641.26 593.048 1640.01 C 598.982 1639.01 605.157 1636.45 608.64 1631.31 C 610.84 1628.06 612.079 1624.81 611.376 1620.86 L 610.483 1622.49 C 610.275 1621.93 610.08 1621.36 609.86 1620.8 C 606.968 1613.47 599.987 1606.23 596.075 1596.65 C 595.936 1596.32 595.669 1596.05 595.466 1595.74 C 594.193 1600.15 597.68 1605.88 599.85 1609.78 C 602.266 1614.12 606.201 1618.18 607.056 1623.13 L 606.398 1625.16 L 605.366 1624.23 C 602.299 1627.48 599.003 1631.37 594.546 1632.69 C 588.895 1634.35 577.591 1632.52 572.631 1629.42 C 570.438 1628.05 569.114 1626.25 568.92 1623.6 C 568.373 1616.09 577.628 1610.4 581.066 1604.64 C 585.252 1597.62 583.402 1570.68 580.432 1563.12 C 579.831 1561.59 579.529 1560.71 577.935 1559.98 C 571.762 1557.16 562.659 1556.54 555.908 1554.69 C 546.107 1552.02 536.806 1547.9 527.547 1543.78 C 513.899 1554.15 503.651 1567.95 499.44 1584.58 C 501.206 1590.21 504.26 1597.06 501.45 1602.82 C 500.239 1605.3 498.512 1606.51 495.897 1607.22 C 490.581 1608.67 483.319 1605.18 479.185 1602.11 C 475.772 1599.58 471.671 1595.12 471.379 1590.63 C 471.208 1587.99 471.709 1585.92 473.632 1584 C 477.326 1580.32 482.9 1580.61 487.735 1580.36 C 492.258 1574.23 496.703 1568.03 500.669 1561.52 C 505.062 1554.3 511.672 1543.41 509.54 1534.68 C 503.127 1528.1 494.232 1524.97 487.453 1519.03 C 482.436 1514.63 476.985 1505.6 471.206 1502.93 C 467.828 1501.37 463.363 1502.55 459.93 1503.46 C 451.55 1505.68 430.892 1513.47 426.508 1521.2 C 424.42 1524.88 424.179 1529.8 421.724 1533.23 C 420.169 1535.4 417.205 1536.41 414.631 1536.39 C 409.832 1536.35 405.526 1534.58 402.424 1530.92 C 398.677 1526.49 396.317 1520.02 396.894 1514.2 C 397.196 1511.15 398.439 1508.24 401.02 1506.42 C 406.861 1502.29 417.044 1506.64 423.436 1508.23 C 436.527 1503.42 451.72 1495.48 461.791 1485.75 C 454.998 1475.29 449.492 1464.29 446.646 1452.08 C 445.237 1446.03 444.546 1439.15 442.132 1433.43 C 441.105 1431 439.469 1428.93 437.206 1427.54 C 427.519 1421.6 404.586 1426.43 394.013 1428.63 C 390.049 1431.91 386.132 1439.13 381.258 1440.65 C 378.862 1441.39 375.504 1441.12 373.237 1440.09 C 369.19 1438.25 366.707 1434.17 365.436 1430.06 C 363.523 1423.87 363.953 1416.39 367.386 1410.79 C 369.087 1408.02 371.646 1405.78 374.989 1405.35 C 379.442 1404.78 382.271 1407.02 385.36 1409.83 C 388.042 1412.28 390.775 1414.53 393.643 1416.75 C 410.851 1417.93 424.353 1416.06 440.016 1408.56 C 441.496 1390.88 442.868 1374.73 446.888 1357.38 C 436.506 1345.94 420.226 1339.23 406.02 1334.01 C 401.667 1337.42 396.647 1341.75 390.674 1340.54 C 387.844 1339.96 385.698 1338.12 384.246 1335.7 C 381.546 1331.22 381.067 1325.25 382.308 1320.23 C 383.469 1315.53 386.584 1309.48 391.108 1307.19 C 393.744 1305.85 395.921 1305.66 398.733 1306.59 C 405.96 1308.97 408.225 1317.62 410.941 1323.78 C 422.586 1332.06 438.771 1337.01 452.521 1340.47 C 457.162 1331.54 461.72 1320.9 467.982 1313.05 C 473.109 1306.63 479.714 1301.13 484.162 1294.2 C 485.365 1292.33 485.876 1290.78 485.871 1288.5 C 485.846 1277.2 468.88 1257.55 460.667 1250.63 C 454.424 1250.67 448.323 1250.67 442.904 1247.07 C 440.806 1245.68 439.245 1243.58 438.964 1241.03 C 438.454 1236.39 441.727 1231.64 444.797 1228.49 C 449.147 1224.02 457.055 1218.75 463.616 1219.12 C 466.138 1219.27 468.204 1219.94 469.799 1221.94 C 473.672 1226.79 471.465 1235.9 470.844 1241.52 C 478.234 1257.8 490.272 1267.37 503.994 1278.07 C 518.184 1269.73 532.339 1263.04 547.601 1256.98 C 549.691 1245.19 552.037 1228.79 547.15 1217.44 C 543.028 1207.87 528.464 1204.41 528.234 1193.11 C 528.18 1190.45 529.484 1188.03 531.437 1186.32 C 538.293 1180.29 547.191 1180.97 555.599 1181.42 C 557.641 1182.61 559.381 1183.93 561.229 1185.4 C 565.036 1192.86 559.207 1203.72 558.236 1211.72 C 556.529 1225.8 561.178 1240.07 569.91 1251.03 C 585.303 1250.65 600 1249.65 615.439 1250.4 z"/><path transform="translate(0,0)" fill="rgb(58,147,163)" d="M 615.439 1250.4 C 626.892 1236.58 637.836 1216.45 634.892 1197.77 C 634.236 1193.61 630.791 1189.27 631.291 1185.18 C 631.703 1181.82 634.242 1177.03 637.197 1175.21 C 640.564 1173.13 644.058 1173.04 647.791 1174 C 657.09 1176.39 662.486 1182.77 667.272 1190.56 C 662.287 1196.56 654.835 1200.13 650.269 1206.44 C 643.702 1215.52 637.011 1238.93 639.261 1249.88 C 640.623 1256.51 666.148 1267.43 672.79 1271.46 L 672.896 1270.27 L 674.035 1270.07 C 676.58 1272.38 679.337 1274.96 682.564 1276.27 C 685.428 1277.43 688.486 1277.19 691.22 1275.79 C 696.109 1273.29 707.838 1262.36 709.45 1257.07 C 703.406 1259.66 701.252 1270.57 689.298 1273.13 C 686.352 1273.76 683.391 1273.53 680.618 1272.32 C 676.117 1270.36 672.46 1265.71 668.154 1263.07 C 661.802 1259.16 654.183 1256.8 648.182 1252.4 C 645.175 1250.2 643.184 1246.94 642.795 1243.22 C 642.262 1238.12 646.773 1220.29 650.237 1216.79 C 650.484 1216.54 650.798 1216.37 651.079 1216.16 L 649.988 1216.66 L 650.582 1215.93 L 651.513 1216.19 C 670.057 1216.06 704.363 1213.93 721.316 1216.43 C 721.825 1216.38 722.335 1216.34 722.844 1216.29 C 724.393 1216.13 725.719 1215.77 727.207 1215.33 C 731.548 1214.06 736.916 1213.63 741.031 1215.89 C 741.29 1216.04 741.519 1216.23 741.763 1216.39 C 752.713 1222.87 756.198 1230.99 759.989 1242.7 C 752.584 1258.69 745.543 1254.69 732.722 1263.21 C 722.743 1269.84 715.437 1283.43 710.855 1294.23 C 721.017 1306.65 729.791 1319.2 738.25 1332.83 C 749.925 1331.19 763.058 1329.37 773.853 1324.37 C 778.13 1316.4 783.061 1305.23 792.593 1302.62 C 795.749 1301.76 798.831 1302.47 801.502 1304.24 C 808.871 1309.1 814.289 1320.4 815.514 1328.93 C 816.394 1335.05 815.617 1343.02 811.492 1347.93 C 808.905 1351.02 805.38 1352.53 801.409 1352.8 C 796.528 1353.12 792.805 1351.17 788.427 1349.34 C 773.652 1343.17 760.138 1353.3 748.55 1361.7 C 749.98 1369.71 751.308 1377.7 751.832 1385.83 C 752.241 1392.19 751.43 1399.43 752.827 1405.62 C 753.483 1408.52 754.69 1410.72 757.036 1412.64 C 764.511 1418.76 784.244 1417.24 793.51 1417.16 C 799.098 1411.61 806.458 1403.87 814.835 1403.68 C 818.129 1403.6 821.231 1405.03 823.507 1407.37 C 828.643 1412.66 829.718 1421.4 829.271 1428.42 C 828.779 1436.12 826.114 1444.41 820.01 1449.51 C 817.482 1451.62 814.159 1453.36 810.805 1453.25 C 797.188 1452.8 789.78 1428.34 749.317 1439.58 C 745.144 1456.49 738.203 1471.42 730.677 1487.06 C 737.896 1494.3 745.6 1502.18 754.014 1508.01 C 761.169 1506.71 776.552 1501.89 782.632 1506.72 C 786.144 1509.51 787.469 1513.41 787.691 1517.77 C 788.17 1527.17 784.325 1537.03 777.835 1543.81 C 773.468 1548.37 767.482 1551.82 761.046 1551.98 C 756.307 1552.09 751.878 1549.91 748.616 1546.56 C 741.924 1539.68 740.562 1530.68 738.779 1521.69 C 729.634 1516.67 720.905 1513.76 710.771 1511.38 C 704.329 1518.86 698.337 1525.08 690.345 1530.87 C 684.85 1534.86 677.612 1538.71 673.028 1543.66 C 676.016 1556.83 679.519 1571.57 688.73 1581.96 C 693.732 1583.02 700.97 1583.68 704.402 1587.86 C 707.719 1591.89 707.95 1599.36 706.803 1604.19 C 705.204 1610.93 700.393 1616.32 694.382 1619.56 C 687.731 1623.23 679.861 1623.98 672.637 1621.64 C 668.174 1620.15 664.089 1617.17 662.035 1612.85 C 659.806 1608.16 659.918 1602.59 661.994 1597.88 C 663.015 1595.56 664.483 1593.42 665.874 1591.31 C 661.034 1578.49 655.487 1567.1 648.366 1555.37 C 634.01 1560.07 619.846 1562.18 605.213 1565.44 C 599.955 1578.2 598.142 1589.28 599.279 1603.08 C 604.468 1608.93 609.932 1612.83 611.376 1620.86 L 610.483 1622.49 C 610.275 1621.93 610.08 1621.36 609.86 1620.8 C 606.968 1613.47 599.987 1606.23 596.075 1596.65 C 595.936 1596.32 595.669 1596.05 595.466 1595.74 C 594.193 1600.15 597.68 1605.88 599.85 1609.78 C 602.266 1614.12 606.201 1618.18 607.056 1623.13 L 606.398 1625.16 L 605.366 1624.23 C 602.299 1627.48 599.003 1631.37 594.546 1632.69 C 588.895 1634.35 577.591 1632.52 572.631 1629.42 C 570.438 1628.05 569.114 1626.25 568.92 1623.6 C 568.373 1616.09 577.628 1610.4 581.066 1604.64 C 585.252 1597.62 583.402 1570.68 580.432 1563.12 C 579.831 1561.59 579.529 1560.71 577.935 1559.98 C 571.762 1557.16 562.659 1556.54 555.908 1554.69 C 546.107 1552.02 536.806 1547.9 527.547 1543.78 C 513.899 1554.15 503.651 1567.95 499.44 1584.58 C 501.206 1590.21 504.26 1597.06 501.45 1602.82 C 500.239 1605.3 498.512 1606.51 495.897 1607.22 C 490.581 1608.67 483.319 1605.18 479.185 1602.11 C 475.772 1599.58 471.671 1595.12 471.379 1590.63 C 471.208 1587.99 471.709 1585.92 473.632 1584 C 477.326 1580.32 482.9 1580.61 487.735 1580.36 C 492.258 1574.23 496.703 1568.03 500.669 1561.52 C 505.062 1554.3 511.672 1543.41 509.54 1534.68 C 503.127 1528.1 494.232 1524.97 487.453 1519.03 C 482.436 1514.63 476.985 1505.6 471.206 1502.93 C 467.828 1501.37 463.363 1502.55 459.93 1503.46 C 451.55 1505.68 430.892 1513.47 426.508 1521.2 C 424.42 1524.88 424.179 1529.8 421.724 1533.23 C 420.169 1535.4 417.205 1536.41 414.631 1536.39 C 409.832 1536.35 405.526 1534.58 402.424 1530.92 C 398.677 1526.49 396.317 1520.02 396.894 1514.2 C 397.196 1511.15 398.439 1508.24 401.02 1506.42 C 406.861 1502.29 417.044 1506.64 423.436 1508.23 C 436.527 1503.42 451.72 1495.48 461.791 1485.75 C 454.998 1475.29 449.492 1464.29 446.646 1452.08 C 445.237 1446.03 444.546 1439.15 442.132 1433.43 C 441.105 1431 439.469 1428.93 437.206 1427.54 C 427.519 1421.6 404.586 1426.43 394.013 1428.63 C 390.049 1431.91 386.132 1439.13 381.258 1440.65 C 378.862 1441.39 375.504 1441.12 373.237 1440.09 C 369.19 1438.25 366.707 1434.17 365.436 1430.06 C 363.523 1423.87 363.953 1416.39 367.386 1410.79 C 369.087 1408.02 371.646 1405.78 374.989 1405.35 C 379.442 1404.78 382.271 1407.02 385.36 1409.83 C 388.042 1412.28 390.775 1414.53 393.643 1416.75 C 410.851 1417.93 424.353 1416.06 440.016 1408.56 C 441.496 1390.88 442.868 1374.73 446.888 1357.38 C 436.506 1345.94 420.226 1339.23 406.02 1334.01 C 401.667 1337.42 396.647 1341.75 390.674 1340.54 C 387.844 1339.96 385.698 1338.12 384.246 1335.7 C 381.546 1331.22 381.067 1325.25 382.308 1320.23 C 383.469 1315.53 386.584 1309.48 391.108 1307.19 C 393.744 1305.85 395.921 1305.66 398.733 1306.59 C 405.96 1308.97 408.225 1317.62 410.941 1323.78 C 422.586 1332.06 438.771 1337.01 452.521 1340.47 C 457.162 1331.54 461.72 1320.9 467.982 1313.05 C 473.109 1306.63 479.714 1301.13 484.162 1294.2 C 485.365 1292.33 485.876 1290.78 485.871 1288.5 C 485.846 1277.2 468.88 1257.55 460.667 1250.63 C 454.424 1250.67 448.323 1250.67 442.904 1247.07 C 440.806 1245.68 439.245 1243.58 438.964 1241.03 C 438.454 1236.39 441.727 1231.64 444.797 1228.49 C 449.147 1224.02 457.055 1218.75 463.616 1219.12 C 466.138 1219.27 468.204 1219.94 469.799 1221.94 C 473.672 1226.79 471.465 1235.9 470.844 1241.52 C 478.234 1257.8 490.272 1267.37 503.994 1278.07 C 518.184 1269.73 532.339 1263.04 547.601 1256.98 C 549.691 1245.19 552.037 1228.79 547.15 1217.44 C 543.028 1207.87 528.464 1204.41 528.234 1193.11 C 528.18 1190.45 529.484 1188.03 531.437 1186.32 C 538.293 1180.29 547.191 1180.97 555.599 1181.42 C 557.641 1182.61 559.381 1183.93 561.229 1185.4 C 565.036 1192.86 559.207 1203.72 558.236 1211.72 C 556.529 1225.8 561.178 1240.07 569.91 1251.03 C 585.303 1250.65 600 1249.65 615.439 1250.4 z"/><path transform="translate(0,0)" fill="rgb(1,16,74)" d="M 721.316 1216.43 C 721.825 1216.38 722.335 1216.34 722.844 1216.29 C 724.393 1216.13 725.719 1215.77 727.207 1215.33 C 731.548 1214.06 736.916 1213.63 741.031 1215.89 C 741.29 1216.04 741.519 1216.23 741.763 1216.39 C 752.713 1222.87 756.198 1230.99 759.989 1242.7 C 752.584 1258.69 745.543 1254.69 732.722 1263.21 C 722.743 1269.84 715.437 1283.43 710.855 1294.23 C 721.017 1306.65 729.791 1319.2 738.25 1332.83 C 749.925 1331.19 763.058 1329.37 773.853 1324.37 C 778.13 1316.4 783.061 1305.23 792.593 1302.62 C 795.749 1301.76 798.831 1302.47 801.502 1304.24 C 808.871 1309.1 814.289 1320.4 815.514 1328.93 C 816.394 1335.05 815.617 1343.02 811.492 1347.93 C 808.905 1351.02 805.38 1352.53 801.409 1352.8 C 796.528 1353.12 792.805 1351.17 788.427 1349.34 C 773.652 1343.17 760.138 1353.3 748.55 1361.7 C 749.98 1369.71 751.308 1377.7 751.832 1385.83 C 752.241 1392.19 751.43 1399.43 752.827 1405.62 C 753.483 1408.52 754.69 1410.72 757.036 1412.64 C 764.511 1418.76 784.244 1417.24 793.51 1417.16 C 799.098 1411.61 806.458 1403.87 814.835 1403.68 C 818.129 1403.6 821.231 1405.03 823.507 1407.37 C 828.643 1412.66 829.718 1421.4 829.271 1428.42 C 828.779 1436.12 826.114 1444.41 820.01 1449.51 C 817.482 1451.62 814.159 1453.36 810.805 1453.25 C 797.188 1452.8 789.78 1428.34 749.317 1439.58 C 745.144 1456.49 738.203 1471.42 730.677 1487.06 C 737.896 1494.3 745.6 1502.18 754.014 1508.01 C 761.169 1506.71 776.552 1501.89 782.632 1506.72 C 786.144 1509.51 787.469 1513.41 787.691 1517.77 C 788.17 1527.17 784.325 1537.03 777.835 1543.81 C 773.468 1548.37 767.482 1551.82 761.046 1551.98 C 756.307 1552.09 751.878 1549.91 748.616 1546.56 C 741.924 1539.68 740.562 1530.68 738.779 1521.69 C 729.634 1516.67 720.905 1513.76 710.771 1511.38 C 704.329 1518.86 698.337 1525.08 690.345 1530.87 C 684.85 1534.86 677.612 1538.71 673.028 1543.66 C 676.016 1556.83 679.519 1571.57 688.73 1581.96 C 693.732 1583.02 700.97 1583.68 704.402 1587.86 C 707.719 1591.89 707.95 1599.36 706.803 1604.19 C 705.204 1610.93 700.393 1616.32 694.382 1619.56 C 687.731 1623.23 679.861 1623.98 672.637 1621.64 C 668.174 1620.15 664.089 1617.17 662.035 1612.85 C 659.806 1608.16 659.918 1602.59 661.994 1597.88 C 663.015 1595.56 664.483 1593.42 665.874 1591.31 C 661.034 1578.49 655.487 1567.1 648.366 1555.37 C 634.01 1560.07 619.846 1562.18 605.213 1565.44 C 599.955 1578.2 598.142 1589.28 599.279 1603.08 C 604.468 1608.93 609.932 1612.83 611.376 1620.86 L 610.483 1622.49 C 610.275 1621.93 610.08 1621.36 609.86 1620.8 C 606.968 1613.47 599.987 1606.23 596.075 1596.65 C 595.936 1596.32 595.669 1596.05 595.466 1595.74 C 594.193 1600.15 597.68 1605.88 599.85 1609.78 C 602.266 1614.12 606.201 1618.18 607.056 1623.13 L 606.398 1625.16 L 605.366 1624.23 C 605.819 1619.36 596.357 1608.89 594.446 1602.82 C 590.133 1589.13 595.107 1570.86 601.31 1558.39 C 608.689 1557.44 616.195 1556.53 623.451 1554.86 C 630.334 1553.27 637.561 1550.3 644.613 1549.85 C 647.401 1549.67 650.12 1550.18 652.526 1551.64 C 662.159 1557.48 669.474 1582.04 671.901 1592.97 C 669.133 1597.69 666.098 1602.86 667.071 1608.6 C 667.52 1611.25 668.863 1612.91 671.101 1614.35 C 674.048 1616.24 679.337 1615.96 682.6 1615.33 C 689.385 1614.01 696.588 1609.46 700.119 1603.42 C 701.435 1601.16 702.26 1598.41 701.309 1595.85 C 699.03 1589.72 689.181 1587.95 683.656 1586.03 C 674.51 1572.2 668.825 1556.37 667.082 1539.88 C 672.915 1534.1 680.45 1529.78 687.049 1524.92 C 695.066 1519.01 701.09 1511.97 707.157 1504.15 C 716.24 1505.89 726.272 1507.88 734.722 1511.74 C 745.331 1516.58 743.451 1523.17 747.15 1532.47 C 748.856 1536.76 753.155 1543.07 757.874 1544.37 C 761.389 1545.33 765.069 1543.82 767.841 1541.72 C 773.843 1537.17 778.312 1529.14 779.332 1521.7 C 779.758 1518.6 779.459 1516.32 777.461 1513.79 C 771.237 1510.88 761.344 1513.39 754.753 1514.27 C 742.474 1508.64 730.111 1498.71 722.709 1487.36 C 730.715 1470.35 737.937 1454.42 741.801 1435.87 C 749.646 1432.22 758.075 1431.12 766.642 1430.77 C 784.697 1430.02 789.554 1431.17 803.146 1443.18 C 805.884 1445.6 807.839 1446.22 811.554 1446.03 C 814.84 1444.47 816.776 1442.06 818.171 1438.73 C 820.608 1432.92 822.51 1422.07 819.289 1416.23 C 818.18 1414.22 816.447 1412.73 814.082 1412.5 C 807.357 1411.85 801.889 1418.61 797.559 1422.81 C 780.066 1423.5 761.493 1423.58 745.795 1414.96 C 745.417 1396.46 743.698 1378.83 741.045 1360.52 C 753.839 1347.59 766.988 1342.65 784.92 1340.65 C 788.924 1342.7 793.285 1344.4 797.518 1345.92 C 800.72 1347.07 802.284 1346.87 805.305 1345.44 C 806.596 1343.74 807.393 1342.33 807.807 1340.24 C 809.296 1332.74 806.742 1322.71 802.376 1316.51 C 799.796 1312.84 797.051 1309.81 792.508 1308.97 C 783.756 1311.23 784.588 1323.08 778.279 1328.36 C 770.557 1334.82 747.066 1340.14 737.162 1338.73 C 734.777 1338.39 733.033 1337.82 731.439 1335.95 C 726.661 1330.34 723.177 1322.59 719.049 1316.36 C 714.128 1308.93 708.374 1302.02 703.118 1294.82 C 707.922 1285.04 714.398 1272.15 722.022 1264.38 C 727.921 1258.36 747.744 1250.36 750.395 1245.25 C 752.205 1241.77 751.545 1237.91 750.047 1234.47 C 747.531 1228.69 742.911 1225.07 737 1223.1 C 733.113 1221.8 727.433 1221.01 723.746 1223.36 C 714.3 1229.35 722.811 1238.23 720.438 1246.3 C 716.991 1258.01 698.466 1274.14 687.924 1279.68 C 687.549 1279.88 687.169 1280.06 686.792 1280.25 C 681.768 1277.61 677.297 1274.92 672.79 1271.46 L 672.896 1270.27 L 674.035 1270.07 C 676.58 1272.38 679.337 1274.96 682.564 1276.27 C 685.428 1277.43 688.486 1277.19 691.22 1275.79 C 696.109 1273.29 707.838 1262.36 709.45 1257.07 C 703.406 1259.66 701.252 1270.57 689.298 1273.13 C 686.352 1273.76 683.391 1273.53 680.618 1272.32 C 676.117 1270.36 672.46 1265.71 668.154 1263.07 C 661.802 1259.16 654.183 1256.8 648.182 1252.4 C 645.175 1250.2 643.184 1246.94 642.795 1243.22 C 642.262 1238.12 646.773 1220.29 650.237 1216.79 C 650.484 1216.54 650.798 1216.37 651.079 1216.16 L 649.988 1216.66 L 650.582 1215.93 L 651.513 1216.19 C 670.057 1216.06 704.363 1213.93 721.316 1216.43 z"/><path transform="translate(0,0)" fill="rgb(245,245,241)" d="M 651.513 1216.19 C 670.057 1216.06 704.363 1213.93 721.316 1216.43 C 718.678 1217.99 716.489 1219.68 714.872 1222.32 C 710.922 1228.76 714.016 1237.18 715.681 1243.89 C 709.042 1256.11 698.649 1265.67 687.012 1273.02 C 678.678 1268.3 650.606 1251.87 645.628 1246.62 C 644.378 1235.92 649.089 1226.41 651.513 1216.19 z"/><path transform="translate(0,0)" fill="rgb(1,16,74)" d="M 503.59 1386.38 C 516.734 1377.89 532.725 1375 548.012 1378.35 C 560.993 1381.14 572.464 1387.46 579.405 1399.08 C 584.462 1407.54 586.662 1417.19 584.258 1426.88 C 581.689 1437.25 574.021 1445.48 564.888 1450.63 C 551.427 1458.22 534.976 1458.85 520.365 1454.48 C 508.984 1451.07 498.291 1444.4 492.506 1433.72 C 488.499 1426.32 487.771 1419.35 487.939 1411.14 C 488.073 1410.7 488.212 1410.27 488.342 1409.83 C 491.412 1399.39 495.152 1393.3 503.59 1386.38 z"/><path transform="translate(0,0)" fill="rgb(245,245,241)" d="M 508.956 1388.26 C 524.062 1381.5 537.019 1378.66 553.029 1384.74 C 563.252 1388.63 573.518 1395.86 577.983 1406.18 C 581.183 1413.68 581.056 1422.19 577.633 1429.59 C 573.157 1439.42 563.755 1446.07 553.764 1449.48 C 541.203 1453.78 526.334 1452.75 514.486 1446.77 C 503.141 1441.04 498.132 1433.61 493.277 1422.24 C 493.043 1418.64 492.835 1415.02 493.281 1411.43 C 494.601 1400.79 500.976 1394.53 508.956 1388.26 z"/><path transform="translate(0,0)" fill="rgb(1,16,74)" d="M 651.887 1367.17 C 656.969 1366.51 661.779 1366.46 666.732 1367.99 C 678.515 1371.63 687.776 1380.9 693.522 1391.58 C 700.288 1404.16 703.605 1420.83 699.148 1434.6 C 696.187 1443.75 690.721 1449.32 682.436 1453.78 C 677.159 1455.18 672.697 1455.4 667.396 1453.85 C 656.129 1450.57 647.423 1441.37 641.842 1431.36 C 634.593 1418.35 631.275 1400.81 635.686 1386.38 C 638.513 1377.12 643.469 1371.66 651.887 1367.17 z"/><path transform="translate(0,0)" fill="rgb(245,245,241)" d="M 654.987 1372.06 C 658.095 1371.86 661.027 1371.86 664.078 1372.58 C 673.762 1374.88 681.94 1382.12 687.099 1390.41 C 694.117 1401.69 697.421 1417.41 694.051 1430.37 C 691.763 1439.17 687.569 1444.23 679.901 1448.83 C 676.004 1449.12 671.964 1449.56 668.193 1448.3 C 658.105 1444.92 650.406 1435.52 645.762 1426.29 C 639.817 1414.48 637.146 1398.8 641.731 1386.17 C 644.332 1379 648.107 1375.14 654.987 1372.06 z"/><path transform="translate(0,0)" fill="rgb(1,16,74)" d="M 575.281 1324.3 C 572.228 1318.6 570.765 1312.46 572.72 1306.08 C 574.516 1300.23 579.396 1295.73 584.816 1293.16 C 594.153 1288.75 605.419 1289.45 614.83 1293.27 C 623.057 1296.61 630.132 1302.74 633.57 1311.03 C 636.307 1317.64 637.017 1325.83 633.63 1332.38 C 632.979 1333.64 631.979 1334.95 631.002 1335.96 C 629.479 1338.11 627.792 1339.69 625.498 1340.99 C 617.759 1345.38 608.546 1345.4 600.134 1343.12 C 589.47 1340.23 580.63 1334 575.281 1324.3 z"/><path transform="translate(0,0)" fill="rgb(245,245,241)" d="M 577.055 1310.01 C 580.261 1303.46 583.04 1299.06 590.184 1296.44 C 598.219 1293.49 607.418 1294.94 614.907 1298.79 C 621.758 1302.31 627.519 1308.53 629.61 1316.05 C 630.649 1319.79 630.491 1323.27 630.073 1327.08 C 629.277 1328.82 628.364 1330.66 627.235 1332.21 C 624.21 1336.36 618.571 1338.98 613.561 1339.5 C 604.13 1340.49 594.09 1336.54 587.049 1330.37 C 580.244 1324.42 577.751 1318.89 577.055 1310.01 z"/><path transform="translate(0,0)" fill="rgb(1,16,74)" d="M 553.028 1499.19 C 551.582 1494.97 550.568 1491.16 551.305 1486.67 C 552.248 1480.93 555.631 1476.09 560.477 1472.92 C 569.777 1466.85 580.009 1467.45 590.277 1469.86 C 598.859 1473.6 605.249 1477.7 610.067 1486.03 C 612.918 1491.89 614.615 1498.76 612.287 1505.14 C 610.252 1510.72 605.247 1514.41 599.9 1516.52 C 590.306 1520.32 578.772 1519.76 569.461 1515.41 C 561.7 1511.79 556.923 1506.71 553.028 1499.19 z"/><path transform="translate(0,0)" fill="rgb(245,245,241)" d="M 578.411 1473.52 C 588.229 1474.72 597.556 1477.64 603.989 1485.67 C 605.486 1487.54 606.742 1489.57 607.835 1491.7 C 608.467 1498.33 608.395 1503.26 603.707 1508.48 C 600.15 1512.44 594.258 1513.75 589.157 1513.9 C 578.929 1514.14 569.063 1510.11 561.926 1502.78 C 560.219 1501.05 558.694 1499.16 557.196 1497.25 C 556.262 1491.38 555.967 1486.24 559.701 1481.17 C 563.983 1475.36 571.767 1474.33 578.411 1473.52 z"/><path transform="translate(0,0)" fill="rgb(1,16,74)" d="M 519.04 1310.05 C 522.255 1309.84 525.83 1309.72 528.984 1310.39 C 536.135 1311.93 543.167 1317.23 546.922 1323.46 C 549.307 1327.41 550.553 1332.31 549.225 1336.84 C 547.415 1343.02 542.586 1346.17 537.131 1348.88 C 533.547 1349.24 529.584 1349.57 526.045 1348.81 C 519.317 1347.36 512.775 1342.44 509.203 1336.61 C 506.548 1332.28 505.313 1327.1 506.846 1322.16 C 508.77 1315.95 513.527 1312.83 519.04 1310.05 z"/><path transform="translate(0,0)" fill="rgb(245,245,241)" d="M 518.937 1315.14 C 521.533 1314.88 524.134 1314.66 526.739 1314.96 C 532.626 1315.65 539.058 1320.14 542.57 1324.79 C 544.707 1327.62 545.969 1331.32 545.063 1334.86 C 543.997 1339.02 541.076 1341.17 537.58 1343.25 C 535.008 1343.75 532.518 1344.03 529.889 1343.89 C 524.488 1343.62 518.883 1340.55 515.323 1336.54 C 512.695 1333.58 511.201 1329.89 511.641 1325.9 C 512.215 1320.69 515.075 1318.22 518.937 1315.14 z"/><path transform="translate(0,0)" fill="rgb(1,16,74)" d="M 676.91 1306.06 C 679.091 1306.1 681.473 1306.06 683.579 1306.68 C 688.368 1308.09 692.688 1312.69 695.019 1316.94 C 697.539 1321.54 698.429 1327.18 696.86 1332.24 C 695.374 1337.03 692.409 1339.28 688.124 1341.51 C 686.791 1341.44 685.303 1341.42 683.984 1341.14 C 678.386 1339.98 673.476 1335.71 670.622 1330.86 C 667.978 1326.36 666.906 1320.95 668.27 1315.85 C 669.601 1310.88 672.72 1308.66 676.91 1306.06 z"/><path transform="translate(0,0)" fill="rgb(245,245,241)" d="M 679.767 1311.02 C 684.431 1312.07 687.57 1314.03 690.183 1318.06 C 692.424 1321.52 693.372 1325.4 692.338 1329.45 C 691.38 1333.2 689.378 1334.56 686.301 1336.42 C 681.623 1334.94 678.497 1332.78 675.744 1328.62 C 673.727 1325.58 672.149 1321.61 673.22 1317.93 C 674.352 1314.04 676.438 1312.79 679.767 1311.02 z"/><path transform="translate(0,0)" fill="rgb(1,16,74)" d="M 261.09 1503.44 C 263.471 1504.57 265.067 1505.76 266.981 1507.57 C 279.232 1519.15 290.502 1531.77 302.378 1543.74 L 381.143 1622.81 L 438.467 1680.15 C 449.614 1691.28 461.352 1702.1 471.743 1713.93 C 471.772 1717.06 470.714 1717.74 468.891 1720.21 C 468.673 1720.14 468.452 1720.08 468.235 1720.01 C 465.573 1719.09 463.883 1717.88 461.765 1716.03 C 452.377 1707.84 443.795 1698.32 434.954 1689.51 L 383.344 1637.93 L 291.337 1545.75 C 283.305 1537.58 262.763 1519.17 258.171 1510.14 C 258.003 1507.3 259.543 1505.64 261.09 1503.44 z"/><path transform="translate(0,0)" fill="rgb(1,16,74)" d="M 275.916 1601.33 C 278.405 1601.64 279.93 1601.98 281.902 1603.59 C 288.537 1609.03 294.586 1616.13 300.629 1622.25 L 336.589 1658.65 C 347.015 1669.21 357.518 1679.69 368.096 1690.1 C 374.989 1696.86 382.58 1703.43 388.672 1710.91 C 388.782 1714.05 387.818 1714.9 386.196 1717.53 L 383.601 1717.35 C 377.56 1713.87 279.038 1615.2 275.056 1608.97 C 273.405 1606.39 275.05 1603.95 275.916 1601.33 z"/><path transform="translate(0,0)" fill="rgb(58,147,163)" d="M 1013.85 1817.48 C 1043.35 1817.16 1072.86 1817.13 1102.36 1817.39 C 1092.37 1837.03 1079.26 1861.05 1066.54 1878.85 L 218.5 1878.91 L 162.858 1878.91 C 151.658 1858.59 140.264 1838.38 128.677 1818.28 C 160.253 1817.46 191.935 1817.94 223.528 1817.91 L 391.886 1817.83 L 1013.85 1817.48 z"/><path transform="translate(0,0)" fill="rgb(166,209,229)" d="M 210.193 1180.43 C 262.577 1178.48 315.596 1180.12 368.051 1180.09 C 421.168 1180.06 474.94 1178.34 527.972 1180.58 C 524.577 1184.82 521.55 1188.87 521.466 1194.54 C 521.379 1200.43 525.066 1204.66 528.849 1208.72 L 219.047 1207.43 L 219.103 1763.22 L 918.5 1763.12 L 968.624 1763.37 C 977.38 1763.41 986.619 1764.09 995.282 1762.81 C 999.109 1762.24 1002.99 1761.4 1005.91 1758.69 C 1007.83 1756.92 1008.66 1755.12 1009.06 1752.57 C 1011.39 1737.6 1010.06 1721.01 1010.13 1705.86 C 1010.27 1673.14 1009.87 1640.18 1011.63 1607.51 C 1019.19 1617.71 1026.95 1628.02 1035.54 1637.36 C 1036.62 1687.88 1035.57 1738.59 1035.38 1789.12 L 192.124 1789.07 L 193.125 1413.35 L 193.126 1271.6 C 193.121 1249.29 191.92 1226.4 192.984 1204.17 C 193.183 1200.01 194.016 1195.81 195.885 1192.06 C 198.799 1186.21 204.078 1182.4 210.193 1180.43 z"/><path transform="translate(0,0)" fill="rgb(58,147,163)" d="M 1683.74 1374.13 C 1689.15 1380.19 1715.33 1509.82 1720.16 1532.51 C 1722.73 1544.57 1724.11 1558.25 1728.25 1569.76 C 1732.16 1580.63 1765.26 1618.27 1774.78 1629.97 C 1807.89 1670.65 1842.55 1710.81 1873.92 1752.82 C 1857.85 1767.71 1841.18 1782.72 1826.46 1798.94 C 1815.01 1787.75 1803.01 1777.04 1791.3 1766.13 C 1766.37 1743.67 1742.73 1719.73 1718.28 1696.75 C 1702.37 1682 1686.56 1667.14 1670.86 1652.17 C 1659.5 1641.36 1646.32 1630.43 1637.77 1617.19 C 1626.15 1599.2 1616.53 1562.55 1609.24 1541.44 C 1594.81 1499.7 1579.69 1458.1 1566.12 1416.07 C 1605.47 1402.83 1644.63 1388.17 1683.74 1374.13 z"/><path transform="translate(0,0)" fill="rgb(58,147,163)" d="M 1175.79 1286.89 C 1180.01 1291.11 1219 1430 1223.99 1448.23 C 1193.67 1456 1161.54 1467.36 1131.25 1476.51 L 1121.04 1479.63 C 1106.5 1442.03 1095.6 1402.91 1085.3 1363.97 C 1101.41 1349.39 1119.77 1336.53 1136.49 1322.52 C 1150.05 1311.16 1162.39 1298.43 1175.79 1286.89 z"/><path transform="translate(0,0)" fill="rgb(250,189,9)" d="M 1225.1 1455.15 C 1230.56 1461.98 1273.29 1612.86 1278 1629.99 C 1253.34 1622.6 1229.93 1613.46 1207.4 1600.87 C 1164.36 1574.4 1140.32 1532.83 1123.57 1486.45 C 1134.82 1482.22 1146.88 1479.2 1158.41 1475.72 C 1180.71 1469.08 1202.94 1462.23 1225.1 1455.15 z"/><path transform="translate(0,0)" fill="rgb(58,147,163)" d="M 1331.5 1420.99 C 1332.56 1421.18 1331.8 1420.99 1333.58 1422.05 C 1334.02 1423.58 1334.44 1425.13 1334.73 1426.69 C 1347.94 1498.77 1324.27 1565.2 1283.73 1623.75 C 1280.91 1613.11 1277.96 1602.5 1274.86 1591.94 C 1261.44 1545.46 1245.93 1499.55 1233.96 1452.65 C 1266.04 1440.94 1299.1 1431.8 1331.5 1420.99 z"/><path transform="translate(0,0)" fill="rgb(250,189,9)" d="M 1234.41 914.113 C 1249.77 925.775 1263.83 940.544 1278.27 953.422 C 1312.61 983.718 1346.53 1014.49 1380.01 1045.72 C 1377.74 1052.52 1375.99 1058.75 1376.09 1066.03 C 1376.28 1079.66 1382.34 1093.22 1392.15 1102.66 C 1402.64 1112.76 1415.39 1116.07 1429.58 1115.63 L 1440.78 1132.14 C 1431.46 1145.25 1427.4 1157.87 1422.61 1173.06 C 1399.13 1137.97 1366.2 1108.86 1337.15 1078.42 L 1210.21 943.28 C 1218.46 933.692 1226.59 924.063 1234.41 914.113 z"/><path transform="translate(0,0)" fill="rgb(250,189,9)" d="M 1185.45 1288.31 C 1207.11 1294.75 1204.29 1310 1220.61 1316.99 C 1225.17 1318.95 1231.12 1317.44 1236.12 1318.79 C 1244.03 1320.94 1251.8 1324 1259.64 1326.45 C 1278.02 1332.05 1296.34 1337.86 1314.59 1343.86 C 1319.7 1366.96 1327.57 1389.46 1332.6 1412.64 L 1309.75 1420.46 C 1284 1429.36 1257.83 1437 1232.09 1446.01 C 1223.16 1415.07 1214.07 1384.18 1204.81 1353.34 C 1198.22 1331.73 1191.05 1310.2 1185.45 1288.31 z"/><path transform="translate(0,0)" fill="rgb(166,209,229)" d="M 192.591 1796.98 C 228.041 1796.23 263.651 1796.99 299.119 1796.98 L 513.48 1796.93 L 1034.93 1797.22 L 1034.95 1809.73 L 561.73 1809.95 L 345.463 1809.93 C 294.634 1809.52 243.801 1809.5 192.972 1809.87 L 192.591 1796.98 z"/><path transform="translate(0,0)" fill="rgb(166,209,229)" d="M 669.455 1180.17 L 895.879 1180.16 L 969.912 1180.17 C 986.262 1180.18 1002.88 1179.58 1019.17 1181.15 C 1024.4 1184.71 1028.42 1188.84 1032.44 1193.64 L 1014.49 1206.9 C 1007.33 1210.23 694.696 1207.1 655.637 1208.07 C 661.74 1205.11 669.406 1201.4 671.819 1194.54 C 673.658 1189.31 671.745 1184.86 669.455 1180.17 z"/><path transform="translate(0,0)" fill="rgb(245,245,241)" d="M 1397.63 1037.27 C 1405.44 1036.48 1413.39 1036.23 1421.1 1037.88 C 1436.2 1041.09 1444.38 1048.27 1452.61 1060.72 C 1456.32 1061.18 1462.81 1061.01 1465.16 1064.22 C 1467.29 1067.12 1467.53 1070.66 1466.61 1074.04 C 1463.36 1085.94 1452.42 1096.01 1441.81 1101.66 C 1431.85 1106.95 1421.98 1109.28 1411.04 1105.95 C 1406.84 1104 1402.75 1101.38 1399.32 1098.27 C 1387.47 1087.53 1383.72 1073.85 1382.9 1058.47 C 1393.82 1057.92 1416.9 1061.07 1425.43 1058.95 C 1428.13 1058.28 1428.48 1056.92 1429.71 1054.7 C 1429.52 1053.4 1429.68 1052.43 1428.68 1051.46 C 1420.82 1043.8 1397.72 1047.05 1387.56 1046.63 L 1387.01 1044.96 C 1387.38 1043.9 1387.81 1042.35 1388.48 1041.38 C 1390.33 1038.71 1394.67 1038.08 1397.63 1037.27 z"/><path transform="translate(0,0)" fill="rgb(250,189,9)" d="M 1898.86 1786.86 C 1906.37 1786.9 1917.6 1799.05 1923.24 1804.08 C 1900.54 1827.39 1876.65 1849.63 1853.64 1872.66 L 1843.73 1882.65 C 1840.61 1879.11 1838.16 1875.29 1835.61 1871.35 C 1840.2 1851.19 1846.31 1831.4 1850.53 1811.15 C 1866.87 1803.99 1882.82 1794.8 1898.86 1786.86 z"/><path transform="translate(0,0)" fill="rgb(250,189,9)" d="M 1562.41 1864.91 C 1581.94 1871.43 1599.17 1880.86 1619.81 1884.46 C 1620.83 1891.8 1621.06 1899.14 1621.33 1906.54 C 1604.81 1906.28 1588.28 1906.17 1571.75 1906.24 C 1552.57 1906.39 1533.39 1906.45 1514.21 1906.41 L 1516.41 1891.03 C 1531.71 1882.26 1547.6 1874.55 1562.41 1864.91 z"/><path transform="translate(0,0)" fill="rgb(245,245,241)" d="M 473.224 1216.5 C 495.487 1215.75 517.869 1216.2 540.146 1216.18 C 544.445 1228.06 544.964 1238.84 540.791 1250.86 L 529.449 1256 C 520.838 1260.01 512.875 1264.78 504.782 1269.72 C 493.99 1262.12 484.743 1255.3 478.078 1243.65 C 478.457 1233.04 478.536 1226.07 473.224 1216.5 z"/><path transform="translate(0,0)" fill="rgb(166,209,229)" d="M 565.629 1180.02 C 578.367 1179.92 611.716 1177.86 622.335 1180.63 C 625.057 1181.34 625.883 1193.26 627.9 1196.66 C 629.292 1199 630.048 1200.9 629.888 1203.75 C 629.747 1206.25 629.979 1206.54 628.047 1208.29 C 606.804 1208.09 585.546 1208.29 564.302 1208.33 C 566.47 1203.89 568.845 1199.37 569.71 1194.46 C 570.726 1188.69 568.953 1184.63 565.629 1180.02 z"/><path transform="translate(0,0)" fill="rgb(245,245,241)" d="M 563.722 1215.89 L 628.348 1216.06 C 625.993 1222.8 622.941 1228.75 619.228 1234.82 C 617.272 1237.9 614.879 1240.62 612.533 1243.41 C 607.032 1243.07 601.438 1242.59 595.926 1242.82 C 589.98 1243.07 583.554 1244.34 577.678 1243.74 C 575.063 1243.48 572.601 1242.76 570.579 1240.99 C 564.224 1235.43 564.429 1223.64 563.722 1215.89 z"/><path transform="translate(0,0)" fill="rgb(245,245,241)" d="M 1178.35 889.5 L 1179.29 889.88 C 1180.7 892.096 1182.01 894.037 1183.79 895.988 C 1188.98 896.767 1193.91 894.749 1199.08 894.35 C 1210.42 893.472 1220.38 901.693 1228.33 908.762 C 1223.7 915.768 1218.17 922.11 1212.8 928.545 L 1204.27 938.572 C 1203.82 937.977 1203.35 937.388 1202.87 936.805 C 1200.47 933.887 1199.14 932.773 1195.24 932.391 C 1190.84 931.961 1185.77 931.929 1181.81 929.907 C 1180.82 926.973 1182.79 922.719 1183.36 919.533 C 1182.72 916.484 1180.69 914.755 1178.64 912.543 L 1177.62 911.448 C 1178.27 910.839 1178.91 910.211 1179.53 909.572 C 1190.25 898.592 1178.49 899.418 1178.35 889.5 z"/><path transform="translate(0,0)" fill="rgb(245,245,241)" d="M 1224.24 1275.38 C 1233.52 1273 1242.97 1278.53 1245.46 1287.77 C 1247.95 1297.01 1242.54 1306.53 1233.33 1309.14 C 1227.27 1310.85 1220.76 1309.17 1216.28 1304.74 C 1211.8 1300.31 1210.06 1293.82 1211.7 1287.74 C 1213.35 1281.66 1218.14 1276.94 1224.24 1275.38 z"/><path transform="translate(0,0)" fill="rgb(245,245,241)" d="M 1875.15 1762.96 C 1880.99 1768.7 1886.54 1774.76 1892.15 1780.73 C 1879.5 1787.11 1866.97 1793.72 1854.55 1800.53 C 1852.63 1801.87 1851.13 1802.76 1848.88 1803.43 C 1845.26 1802.78 1842.51 1798.9 1840.07 1796.33 C 1851.63 1785.07 1863.32 1773.94 1875.15 1762.96 z"/><path transform="translate(0,0)" fill="rgb(245,245,241)" d="M 1570.38 1855.45 L 1618.91 1856.04 C 1619.15 1861.25 1620.69 1870.62 1617.85 1875 L 1614.75 1875.29 C 1602.98 1872.75 1591.6 1867.83 1580.4 1863.47 C 1576.74 1862.05 1567.92 1859.61 1566.45 1856.27 L 1570.38 1855.45 z"/><path transform="translate(0,0)" fill="rgb(58,147,163)" d="M 1466.01 1091.81 C 1470.2 1095.23 1473.7 1105.08 1476.45 1110.12 C 1465.13 1114.19 1456.46 1118.94 1446.84 1126.18 C 1442.8 1124.65 1438.91 1116.02 1436.74 1112.31 C 1448.04 1107.52 1457.38 1100.41 1466.01 1091.81 z"/><path transform="translate(0,0)" fill="rgb(203,201,200)" d="M 371.473 557.255 C 389.808 556.162 408.625 557.025 427.003 557.024 L 530.543 557.057 L 687.111 557.226 C 713.785 557.21 740.547 556.542 767.211 557.049 C 770.284 557.107 774.771 556.888 777.419 558.516 C 778.532 559.201 778.505 560.312 778.848 561.478 C 778.359 562.941 778.074 565.116 776.83 566.112 C 775.136 567.469 773.124 567.695 771.037 567.822 C 759.29 568.538 747.096 567.873 735.287 567.943 L 658.071 568.348 L 376.617 568.164 C 362.877 587.126 350.974 607.891 338.341 627.638 C 327.686 644.292 315.659 660.38 306.426 677.872 C 338.52 678.248 370.704 677.396 402.811 677.402 L 628.788 677.548 C 689.918 677.396 751.078 676.636 812.206 677.23 L 1001.79 991.602 L 1049.17 1070.01 C 1055.54 1080.4 1063.3 1090.21 1069.05 1100.91 C 1071.02 1104.57 1072.38 1107.62 1072.16 1111.81 C 1070.73 1114.12 1070.74 1114.07 1068.14 1114.88 C 1064.52 1113.68 1063.28 1111.61 1061.13 1108.5 C 1052.66 1096.27 1045.23 1083.03 1037.41 1070.35 L 982.626 980.345 L 805.589 687.488 C 779.623 687.273 753.582 688 727.601 688.005 L 498.447 688.04 L 622.128 884.996 C 613 902.593 601.036 919.237 590.242 935.87 C 569.011 968.586 547.522 1001.13 525.776 1033.51 C 518.387 1044.65 502.17 1073.81 493.818 1081.09 C 491.201 1080.68 489.491 1078.64 487.601 1076.93 C 487.306 1074.08 488.02 1072.32 489.428 1069.82 C 498.226 1054.16 513.16 1034.24 523.46 1018.46 C 552.654 974.284 581.479 929.867 609.933 885.212 C 595.906 865.511 583.514 844.262 570.569 823.826 C 542.031 778.849 514.003 733.55 486.49 687.939 C 466.294 686.496 445.239 687.872 424.926 687.879 L 299.434 687.91 L 199.774 840.746 C 185.167 863.211 169.381 885.102 156.13 908.402 C 168.135 933.535 184.993 957.289 200.216 980.585 C 220.748 1012.01 241.104 1043.47 260.136 1075.82 C 272.864 1060.6 289.333 1031.27 300.604 1013.71 C 313.487 993.638 328.541 974.007 339.642 952.945 C 335.238 944.75 331.337 936.752 329.535 927.552 C 326.502 912.075 329.512 896.67 338.339 883.575 C 347.882 869.417 362.513 860.142 379.278 857.12 C 396.041 853.985 413.358 857.821 427.229 867.743 C 440.88 877.51 450.003 892.381 452.525 908.976 C 454.769 924.613 450.072 940.649 440.784 953.284 C 431.107 966.449 416.809 974.386 400.739 976.627 C 380.578 979.437 363.237 973.563 347.136 961.608 C 336.329 976.694 326.803 993.133 316.623 1008.68 C 299.731 1034.49 282.134 1060.11 266.905 1086.93 C 282.711 1115.99 302.975 1142.6 317.916 1172.19 L 306.215 1172.03 C 274.403 1171.83 242.457 1171.47 210.658 1172.26 C 206.304 1173.75 202.457 1175.22 198.48 1177.59 C 198.309 1174.97 198.223 1172.37 199.281 1169.91 C 202.404 1162.64 208.328 1155.55 212.664 1148.88 C 226.43 1127.68 241.154 1107.01 254.448 1085.55 C 225.692 1038.62 194.483 993.251 165.875 946.247 C 158.176 933.596 148.287 922.184 142.454 908.479 C 152.142 890.747 165.033 874.489 176.143 857.588 C 194.131 830.227 211.527 802.486 229.67 775.22 C 248.656 746.687 269.005 717.982 285.582 688.024 C 274.17 688.064 216.364 690.148 209.406 687.346 C 206.727 686.267 205.397 684.729 204.461 682.035 C 204.384 681.812 205.956 679.693 206.103 679.48 C 213.525 675.718 280.159 677.904 293.764 677.773 C 306.931 655.805 321.298 634.449 334.964 612.779 C 346.541 594.42 357.843 574.115 371.473 557.255 z"/><path transform="translate(0,0)" fill="rgb(245,245,241)" d="M 259.454 1096.18 C 276.617 1119.79 292.085 1146.5 306.215 1172.03 C 274.403 1171.83 242.457 1171.47 210.658 1172.26 C 226.436 1146.61 243.612 1121.81 259.454 1096.18 z"/><path transform="translate(0,0)" fill="rgb(16,115,142)" d="M 1831.47 75.0934 C 1835.09 75.1434 1839.73 75.6963 1842.94 77.4412 C 1845.25 78.6912 1845.36 79.4399 1845.83 81.7522 C 1844.87 85.0805 1843.14 86.9143 1840.85 89.476 L 1839.9 90.5231 C 1838.85 96.3074 1839.94 102.185 1840.59 107.98 C 1851.71 108.862 1860.76 109.932 1871.17 113.991 C 1875.58 108.418 1878.83 102.068 1882.29 95.8866 C 1880.74 94.0165 1878.79 91.9264 1878.67 89.3421 C 1878.54 86.5093 1879.49 85.6683 1881.24 83.7369 C 1883.82 82.7277 1885.7 82.3564 1888.49 82.699 C 1893.49 83.3129 1899.06 86.0208 1901.93 90.2873 C 1903.54 92.6824 1904.22 95.8617 1903.16 98.6244 C 1902.09 101.386 1901.26 101.807 1898.76 102.938 C 1897.16 102.71 1895.36 102.317 1893.76 102.347 C 1893.75 102.347 1891.44 102.504 1891.14 102.741 C 1888.68 104.696 1884.24 115.361 1880.31 119.372 C 1889.87 126.297 1897.26 134.062 1904.45 143.396 C 1909.32 140.717 1915.62 138.172 1919.29 133.953 C 1919.69 131.079 1919.69 128.362 1921.79 126.159 C 1924.18 125.3 1925.46 124.597 1928.01 125.55 C 1931.34 126.794 1934.15 130.225 1935.82 133.234 C 1937.68 136.573 1939.54 142.109 1937.7 145.798 C 1936.41 148.378 1934.88 148.765 1932.41 149.704 C 1929.29 149.397 1927.61 147.974 1925.18 146.175 L 1924.17 145.412 C 1919.63 145.629 1912.64 150.875 1908.54 153.277 C 1912.57 163.573 1914.82 172.414 1914.98 183.484 C 1917.91 183.373 1933.47 185.309 1934.51 184.016 C 1936.74 181.237 1937.16 178.914 1940.64 177.21 C 1943.58 177.269 1944 177.471 1946.49 179.048 C 1947.81 181.129 1948.71 182.773 1949.14 185.234 C 1950.24 191.572 1949.07 197.906 1945.3 203.114 C 1942.66 204.558 1942.63 204.537 1939.67 203.988 C 1936.89 202.053 1936.09 200.258 1934.73 197.174 L 1934.24 196.041 C 1927.38 195.584 1920.63 195.262 1913.93 193.631 C 1911.37 204.178 1908.58 213.53 1903.43 223.117 C 1906.77 226.258 1913.27 233.738 1917.49 234.597 C 1919.25 233.262 1920.84 231.945 1922.97 231.261 C 1924.43 230.797 1925.51 231.218 1926.8 232.033 C 1928.63 233.189 1929.63 235.387 1929.92 237.429 C 1930.45 241.22 1927.95 245.535 1925.66 248.382 C 1922.98 251.725 1918.86 255.378 1914.33 255.525 C 1911.78 255.607 1910.33 253.884 1908.67 252.258 C 1907.77 249.006 1908.65 247.851 1909.75 244.728 C 1909.03 240.811 1900.11 235.095 1896.66 232.09 C 1888.68 240.768 1880.83 246.502 1870.12 251.378 C 1873.32 257.687 1875.75 264.399 1879.24 270.532 C 1880.86 270.745 1882.47 270.976 1884.08 271.226 C 1887.01 271.706 1888.88 271.985 1890.64 274.45 C 1890.53 275.302 1890.52 275.858 1890.14 276.693 C 1888.75 279.798 1884.68 283.289 1881.72 284.698 C 1878.13 286.407 1871.91 288.665 1868 286.841 C 1865.46 285.657 1864.72 283.771 1863.79 281.311 C 1863.9 278.2 1865.43 276.699 1867.29 274.397 L 1868.1 273.423 C 1868.16 268.203 1862.72 259.479 1860.27 254.684 C 1854.76 255.799 1849.21 256.153 1843.62 256.6 L 1831.89 255.957 C 1830.85 260.427 1827.93 269.241 1829.1 273.662 C 1829.72 275.981 1832.04 278.223 1833.1 280.426 C 1834.19 282.692 1833.95 284.031 1833.12 286.276 C 1831.05 287.603 1829.47 287.978 1827.06 288.009 C 1821.42 288.08 1813.69 287.013 1809.56 282.711 C 1807.63 280.709 1807.23 278.666 1807.16 275.965 C 1808.29 273.286 1808.25 272.931 1810.73 271.487 C 1813.12 271.646 1814.86 272.044 1817.09 271.005 C 1818.72 265.628 1820.29 260.232 1821.79 254.818 C 1812.04 251.878 1803.84 246.664 1795.25 241.372 C 1792.23 245.745 1783.64 253.392 1782.39 258.027 C 1781.64 260.828 1782.62 264.363 1781.81 267.373 C 1781.22 269.543 1780.62 269.742 1778.83 270.858 C 1775.35 270.646 1772.96 269.592 1769.98 267.811 C 1765.6 265.193 1761.05 261.07 1760.46 255.622 C 1760.12 252.548 1760.94 251.782 1762.6 249.375 C 1766.3 247.943 1767.95 249.589 1771.52 251.02 C 1776.52 248.913 1783.43 239.18 1787.33 234.994 C 1780 226.778 1774.55 218.672 1771.01 208.226 C 1765.07 210.306 1758.75 211.561 1753.07 214.256 C 1751.72 218.894 1749.67 221.771 1746.39 225.252 C 1745.06 225.635 1744.27 226.196 1742.91 225.655 C 1739.5 224.294 1737.42 220.187 1736.2 216.928 C 1734.27 211.731 1733.65 206.544 1735.85 201.389 C 1736.92 200.46 1737.54 199.532 1739.01 199.348 C 1743.02 198.848 1745.89 201.206 1748.81 203.549 L 1749.76 204.321 C 1755.49 202.241 1761.17 200.534 1767.09 199.054 C 1766.67 187.656 1766.87 177.076 1768.95 165.835 C 1762.97 164.241 1755.93 159.78 1749.93 159.755 C 1748.65 162.036 1747.32 164.052 1745.76 166.149 C 1743.42 167.137 1742.31 167.636 1739.72 166.637 C 1738.11 166.012 1736.74 164.588 1736.02 163.038 C 1734.18 159.056 1735.26 153.775 1736.96 149.938 C 1738.76 145.869 1741.01 143.122 1745.19 141.441 C 1748.05 141.698 1748.65 141.716 1750.97 143.359 C 1751.55 145.422 1752 147.109 1753.08 148.984 C 1755.51 153.208 1768.17 155.089 1772.94 156.292 C 1776.82 146.178 1781.72 138.808 1789.77 131.538 C 1786.05 126.228 1782.75 120.187 1778.12 115.64 C 1776.68 116.105 1775.06 116.749 1773.57 116.953 C 1771.37 117.254 1769.38 117.27 1767.72 115.556 C 1766.67 114.477 1765.81 112.798 1765.79 111.289 C 1765.74 107.775 1767.64 104.477 1770.14 102.102 C 1773.43 98.9798 1778.78 95.9926 1783.47 96.6045 C 1785.72 96.8976 1787.82 98.1689 1788.89 100.215 C 1790.36 103.039 1789.03 105.785 1788.35 108.656 C 1789.95 113.397 1797.16 119.405 1800.72 123.185 C 1810.79 117.342 1820.16 112.113 1831.39 108.907 C 1830.51 105.589 1830.11 102.161 1829.49 98.7852 C 1828.29 92.2652 1827.03 92.0717 1822.08 88.3343 C 1819.79 86.6015 1819.25 85.8225 1818.83 83.006 C 1821.17 78.7664 1827.18 76.7051 1831.47 75.0934 z"/><path transform="translate(0,0)" fill="rgb(58,147,163)" d="M 1836.95 117.829 C 1872.96 115.535 1904.02 142.822 1906.39 178.821 C 1908.75 214.82 1881.52 245.937 1845.53 248.373 C 1809.44 250.815 1778.21 223.496 1775.84 187.398 C 1773.47 151.299 1800.85 120.13 1836.95 117.829 z"/><path transform="translate(0,0)" fill="rgb(16,115,142)" d="M 1799.76 169.795 C 1807.31 167.163 1812.72 165.933 1820.26 169.488 C 1820.9 169.789 1821.52 170.102 1822.14 170.428 C 1824.52 171.649 1826.58 173.63 1828.38 175.602 C 1833.27 180.979 1835.56 186.765 1835.3 194.036 C 1835.05 201.142 1832.06 207.596 1826.67 212.261 C 1821.47 216.763 1814.44 219.118 1807.57 218.378 C 1801.4 217.755 1795.76 214.64 1791.94 209.753 C 1787.31 203.762 1785.93 195.262 1787.21 187.916 C 1788.63 179.826 1793.26 174.43 1799.76 169.795 z"/><path transform="translate(0,0)" fill="rgb(245,245,241)" d="M 1798.04 175.732 C 1805.93 171.582 1810.99 171.371 1819.51 173.982 C 1824.89 177.929 1829.44 182.852 1830.41 189.763 C 1831.12 194.825 1829.06 200.246 1826 204.209 C 1822.34 208.939 1817 211.962 1811.02 212.432 C 1805.97 212.829 1800.47 211.431 1796.69 207.94 C 1792.78 204.329 1791.67 199.054 1791.74 193.92 C 1791.85 186.467 1793.68 181.667 1798.04 175.732 z"/><path transform="translate(0,0)" fill="rgb(245,245,241)" d="M 1863.02 193.98 C 1859.99 193.011 1857.02 191.952 1854.53 189.888 C 1851.12 187.071 1849.16 182.661 1849.07 178.273 C 1848.96 172.977 1851.5 168.103 1855.31 164.556 C 1860.49 159.743 1865.69 158.849 1872.54 159.056 C 1878.44 162.714 1883.57 166.595 1885.31 173.721 C 1886.31 177.802 1885.29 183.062 1882.82 186.456 C 1881.83 187.814 1880.55 189.022 1879.26 190.09 C 1874.26 194.58 1869.44 194.193 1863.02 193.98 z"/><path transform="translate(0,0)" fill="rgb(16,115,142)" d="M 1863.02 193.98 C 1859.99 193.011 1857.02 191.952 1854.53 189.888 C 1851.12 187.071 1849.16 182.661 1849.07 178.273 C 1848.96 172.977 1851.5 168.103 1855.31 164.556 C 1860.49 159.743 1865.69 158.849 1872.54 159.056 L 1870.83 163.001 C 1865.43 163.132 1861.17 163.58 1857.29 167.709 C 1854.7 170.457 1853.4 173.908 1853.73 177.676 C 1854.06 181.404 1855.97 185.149 1858.97 187.446 C 1860.4 188.548 1862.07 189.421 1863.65 190.282 C 1869.47 190.418 1872.73 189.274 1877.83 186.385 L 1879.26 190.09 C 1874.26 194.58 1869.44 194.193 1863.02 193.98 z"/><path transform="translate(0,0)" fill="rgb(17,91,118)" d="M 1872.54 159.056 C 1878.44 162.714 1883.57 166.595 1885.31 173.721 C 1886.31 177.802 1885.29 183.062 1882.82 186.456 C 1881.83 187.814 1880.55 189.022 1879.26 190.09 L 1877.83 186.385 C 1880.24 182.352 1881.85 178.354 1880.57 173.595 C 1879.16 168.351 1875.37 165.498 1870.83 163.001 L 1872.54 159.056 z"/><path transform="translate(0,0)" fill="rgb(16,115,142)" d="M 1848.96 206.206 C 1857.37 204.087 1865.9 209.204 1867.99 217.619 C 1870.08 226.035 1864.93 234.546 1856.51 236.605 C 1848.13 238.653 1839.67 233.537 1837.59 225.164 C 1835.51 216.791 1840.6 208.315 1848.96 206.206 z"/><path transform="translate(0,0)" fill="rgb(245,245,241)" d="M 1848.88 211.368 C 1854.46 209.181 1860.75 211.95 1862.91 217.541 C 1865.06 223.132 1862.26 229.411 1856.66 231.537 C 1851.1 233.646 1844.88 230.868 1842.74 225.321 C 1840.6 219.773 1843.34 213.539 1848.88 211.368 z"/><path transform="translate(0,0)" fill="rgb(16,115,142)" d="M 1833 131.086 C 1836.15 130.849 1839.49 130.588 1842.62 130.911 C 1846.71 131.332 1850.7 134.498 1852.96 137.81 C 1854.8 140.507 1855.53 143.81 1854.81 147.018 C 1853.53 152.634 1850.16 155.72 1845.49 158.722 C 1843.37 158.941 1841.12 159.16 1838.99 159.014 C 1834.62 158.716 1829.62 155.945 1826.97 152.492 C 1824.62 149.5 1823.7 145.636 1824.43 141.907 C 1825.48 136.592 1828.74 134.007 1833 131.086 z"/><path transform="translate(0,0)" fill="rgb(245,245,241)" d="M 1837.7 133.263 C 1843.45 132.241 1848.94 136.055 1849.99 141.797 C 1851.04 147.538 1847.25 153.047 1841.51 154.122 C 1835.74 155.205 1830.18 151.386 1829.13 145.606 C 1828.07 139.827 1831.92 134.292 1837.7 133.263 z"/><path transform="translate(0,0)" fill="rgb(203,201,200)" d="M 1041.15 610.687 C 1084.41 609.792 1120.29 643.971 1121.49 687.225 C 1122.7 730.48 1088.77 766.602 1045.53 768.115 C 1001.84 769.643 965.276 735.301 964.059 691.608 C 962.843 647.915 997.445 611.592 1041.15 610.687 z"/><path transform="translate(0,0)" fill="rgb(245,245,241)" d="M 1032.14 621.574 C 1069.75 615.559 1105.05 641.375 1110.71 679.039 C 1116.37 716.703 1090.23 751.754 1052.51 757.062 C 1015.29 762.3 980.802 736.574 975.215 699.406 C 969.628 662.238 995.03 627.509 1032.14 621.574 z"/><path transform="translate(0,0)" fill="rgb(203,201,200)" d="M 1600.34 542.312 C 1641.8 535.435 1680.96 563.537 1687.71 605.013 C 1694.47 646.489 1666.25 685.564 1624.76 692.198 C 1583.43 698.804 1544.55 670.73 1537.83 629.425 C 1531.1 588.121 1559.06 549.16 1600.34 542.312 z"/><path transform="translate(0,0)" fill="rgb(245,245,241)" d="M 1601.98 553.46 C 1637.39 547.298 1671.07 571.09 1677.1 606.528 C 1683.13 641.966 1659.21 675.556 1623.75 681.452 C 1588.48 687.316 1555.11 663.552 1549.11 628.302 C 1543.11 593.051 1566.75 559.589 1601.98 553.46 z"/><path transform="translate(0,0)" fill="rgb(203,201,200)" d="M 1297.88 563.284 C 1300.7 563.149 1303.68 563.082 1306.5 563.307 C 1317.35 564.122 1327.44 569.212 1334.54 577.459 C 1342.03 586.177 1345.98 597.75 1344.74 609.23 C 1343.44 621.149 1337.46 630.751 1328.25 638.157 C 1349.39 672.346 1368.75 707.671 1389.26 742.239 C 1419.6 793.349 1450.75 844.06 1479.49 896.084 L 1751.73 896.059 C 1762.53 909.073 1770.99 925.194 1779.9 939.559 L 1828.12 1016.52 L 1912.72 1149.9 L 1936.6 1187 C 1939.66 1191.76 1944.5 1197.5 1946.46 1202.67 C 1947.41 1205.14 1947.13 1206.44 1946.14 1208.8 C 1943.88 1210.77 1943.57 1210.86 1940.6 1211.27 C 1937.42 1209.73 1937.06 1208.92 1935.15 1206.07 L 1816.06 1017.86 L 1770.76 946.234 C 1762.68 933.284 1755.45 919.326 1746.37 907.09 C 1655.35 905.694 1564.26 907.105 1473.23 906.718 C 1465.91 896.323 1460.02 884.209 1453.71 873.149 L 1420.99 816.519 C 1387.27 758.977 1353.21 701.628 1318.83 644.473 C 1305.88 646.915 1293.44 647.819 1281.51 640.919 C 1272.2 635.536 1265.52 626.557 1263.04 616.093 C 1260.37 604.874 1262.3 592.074 1268.41 582.259 C 1275.29 571.209 1285.61 566.048 1297.88 563.284 z"/><path transform="translate(0,0)" fill="rgb(203,201,200)" d="M 792.908 933.013 C 829.083 929.961 860.857 956.873 863.798 993.057 C 866.739 1029.24 839.729 1060.93 803.536 1063.76 C 767.5 1066.58 735.976 1039.71 733.048 1003.68 C 730.12 967.658 756.89 936.052 792.908 933.013 z"/><path transform="translate(0,0)" fill="rgb(7,52,102)" d="M 1755.02 335.25 C 1772.4 333.68 1784.43 336.376 1798.47 347.222 L 1798.78 335.007 L 1827.08 335.058 C 1826.99 355.873 1829.59 398.981 1826.35 417.313 C 1825.27 423.405 1823.3 429.233 1819.98 434.483 C 1812.78 445.859 1800.93 451.789 1788.15 454.535 C 1768.41 458.776 1741.05 458.065 1723.69 446.875 C 1722.84 443.709 1724.66 441.772 1726.09 438.896 C 1728.03 434.854 1730.4 430.961 1732.59 427.045 C 1741.52 430.723 1750.29 433.476 1759.95 434.421 C 1769 435.307 1781.33 435.18 1788.49 428.89 C 1792.91 425.005 1799.91 415.131 1799.36 408.915 C 1799.14 406.393 1798.97 405.918 1797.03 404.396 C 1790.72 410.593 1784.71 414.741 1775.93 416.633 C 1761.68 419.706 1745.05 417.138 1733 408.886 C 1724.27 402.908 1717.73 393.955 1715.91 383.419 C 1714.17 373.365 1716.93 362.268 1722.82 353.963 C 1730.45 343.19 1742.39 337.586 1755.02 335.25 z"/><path transform="translate(0,0)" fill="rgb(245,245,241)" d="M 1763.16 357.175 C 1768.64 356.818 1774.16 356.158 1779.48 357.899 C 1785.54 359.877 1791.14 363.927 1793.81 369.84 C 1795.66 373.925 1796.02 378.789 1794.28 382.975 C 1791.63 389.348 1785.29 393.462 1779.11 395.812 C 1773.26 396.732 1767.83 397.216 1762.1 395.274 C 1756.34 393.32 1751.25 389.375 1748.62 383.811 C 1746.59 379.608 1746.36 374.758 1747.98 370.381 C 1750.68 363.223 1756.53 360.07 1763.16 357.175 z"/><path transform="translate(0,0)" fill="rgb(7,52,102)" d="M 932.998 310.165 C 956.802 310.415 998.002 306.089 1018.99 317.821 C 1028.36 323.061 1034.89 331.161 1037.39 341.662 C 1040.17 353.313 1038.39 366.69 1031.83 376.805 C 1024.65 387.869 1013.97 391.99 1001.71 394.762 L 997.503 395.197 C 986.759 396.307 975.944 396.136 965.152 396.207 L 965.135 428.844 L 932.968 428.809 L 932.998 310.165 z"/><path transform="translate(0,0)" fill="rgb(245,245,241)" d="M 965.276 333.984 C 976.198 333.794 993.098 331.368 1001.8 339.089 C 1005.45 342.331 1008.3 348.141 1008.43 353.052 C 1008.6 359.131 1005.98 362.739 1001.92 366.931 C 990.424 373.267 977.982 372.079 965.343 371.907 C 964.94 359.301 965.255 346.6 965.276 333.984 z"/><path transform="translate(0,0)" fill="rgb(7,52,102)" d="M 1546.63 334.297 C 1562.85 333.033 1578.76 334.784 1592.44 344.352 C 1602.36 351.285 1609.92 361.295 1612 373.402 C 1614.04 385.264 1611 398.602 1603.85 408.298 C 1594.52 420.956 1580.81 426.3 1565.89 428.694 C 1549.05 429.946 1533.1 428.928 1518.86 418.74 C 1508.58 411.393 1500.99 399.947 1499.27 387.325 C 1497.71 375.6 1500.89 363.737 1508.11 354.366 C 1517.81 341.591 1531.44 336.623 1546.63 334.297 z"/><path transform="translate(0,0)" fill="rgb(245,245,241)" d="M 1549.63 356.978 C 1563.09 353.35 1576.97 361.208 1580.79 374.619 C 1584.61 388.03 1576.95 402.021 1563.59 406.028 C 1554.78 408.671 1545.23 406.366 1538.6 399.996 C 1531.97 393.626 1529.28 384.177 1531.56 375.269 C 1533.84 366.36 1540.75 359.371 1549.63 356.978 z"/><path transform="translate(0,0)" fill="rgb(7,52,102)" d="M 114.85 310.868 L 143.061 310.761 C 148.966 326.879 157.745 342.589 164.992 358.187 C 175.913 381.694 186.144 405.508 197.607 428.763 L 163.096 428.763 C 159.646 421.553 156.472 414.201 153.213 406.903 L 142.378 406.279 C 128.614 405.732 114.746 406.021 100.968 406.008 C 98.1811 413.595 94.5581 420.944 91.2263 428.309 L 58.9064 428.463 C 64.6289 414.583 72.0266 401.149 78.4599 387.556 C 90.4128 361.91 102.543 336.346 114.85 310.868 z"/><path transform="translate(0,0)" fill="rgb(245,245,241)" d="M 126.483 343.506 C 133.417 350.077 140.13 373.533 143.784 383.014 L 129.5 383.016 L 111.844 382.966 C 115.904 369.566 121.393 356.546 126.483 343.506 z"/><path transform="translate(0,0)" fill="rgb(7,52,102)" d="M 1091.88 335.231 C 1107.42 334.141 1122.37 335.388 1135.27 345.277 C 1145.25 352.988 1151.69 364.404 1153.13 376.933 C 1154.6 389.25 1152.12 402.911 1144.18 412.716 C 1135.75 423.116 1123.13 427.801 1110.21 429.266 C 1095.79 430.093 1081.89 429.243 1069.24 421.36 C 1059.05 415.146 1051.8 405.084 1049.13 393.452 C 1046.34 381.313 1048.34 367.993 1055.13 357.485 C 1063.62 344.348 1077.23 338.408 1091.88 335.231 z"/><path transform="translate(0,0)" fill="rgb(245,245,241)" d="M 1093.92 358.268 C 1098.09 357.627 1102.22 357.282 1106.36 358.334 C 1112.33 359.839 1117.45 363.698 1120.54 369.032 C 1124.09 375.132 1124.76 382.703 1122.92 389.463 C 1120.73 397.549 1115.91 402.498 1108.81 406.535 C 1104.41 407.223 1099.54 407.421 1095.25 406.062 C 1089.36 404.151 1084.47 399.979 1081.66 394.463 C 1078.41 387.904 1077.85 380.333 1080.11 373.367 C 1082.58 365.787 1087 361.798 1093.92 358.268 z"/><path transform="translate(0,0)" fill="rgb(203,201,200)" d="M 1837.72 1371.43 C 1864.65 1368.54 1888.84 1387.99 1891.82 1414.91 C 1894.79 1441.83 1875.43 1466.09 1848.52 1469.16 C 1821.48 1472.24 1797.07 1452.76 1794.09 1425.71 C 1791.1 1398.66 1810.65 1374.32 1837.72 1371.43 z"/><path transform="translate(0,0)" fill="rgb(7,52,102)" d="M 714.434 335.49 L 744.814 335.615 C 744.718 350.378 740.919 389.941 750.555 399.955 C 753.78 403.306 757.933 404.577 762.5 404.596 C 767.163 404.616 771.735 403.108 775.029 399.707 C 785.085 389.324 780.997 350.586 781.077 335.571 L 812.171 335.722 L 812.209 397.114 C 812.21 406.336 813.61 418.479 811.449 427.33 C 809.854 427.865 808.486 428.249 806.817 428.551 C 799.041 427.556 790.52 428.274 782.659 428.315 C 782.711 425.67 783.342 422.531 782.058 420.212 L 780.9 421.011 C 769.75 428.573 757.498 431.28 744.184 428.775 C 734.926 427.033 725.598 422.023 720.488 413.898 C 710.311 397.718 714.362 354.97 714.434 335.49 z"/><path transform="translate(0,0)" fill="rgb(7,52,102)" d="M 1281.58 335.277 C 1282.73 335.205 1283.89 335.142 1285.05 335.088 C 1297.52 334.488 1310.51 336.282 1319.87 345.341 C 1324.79 350.097 1327.94 356.377 1329.45 363.008 C 1333.26 379.815 1330.81 410.24 1330.75 428.688 L 1300.5 428.735 C 1300.5 413.344 1302.93 386.829 1298.86 373.004 C 1297.34 367.845 1294.55 363.167 1289.68 360.588 C 1284.28 357.729 1278.11 358.706 1272.52 360.38 C 1270.71 361.5 1269.04 362.596 1267.57 364.153 C 1258.14 374.12 1261.25 414.064 1261.2 428.535 C 1250.96 428.524 1240.71 428.566 1230.46 428.661 L 1230.26 336.481 C 1237.14 336.308 1244.28 335.831 1251.13 336.406 C 1254.82 336.716 1257.6 337.101 1260.07 339.983 C 1259.72 341.714 1259.47 343.301 1259.42 345.067 L 1261.12 346.003 C 1267.12 340.786 1272.59 337.697 1280.28 335.617 L 1281.58 335.277 z"/><path transform="translate(0,0)" fill="rgb(7,52,102)" d="M 256.458 335.226 C 259.359 334.996 262.263 334.814 265.17 334.681 C 276.214 334.194 287.244 336.715 295.385 344.624 C 312.186 360.947 307.063 405.561 306.942 428.029 L 276.192 428.03 C 275.851 411.626 278.004 393.946 275.931 377.732 C 275.167 371.751 272.921 365.806 267.876 362.181 C 262.52 358.335 256.361 359.187 250.273 360.355 C 248.097 361.43 246.082 362.437 244.29 364.103 C 233.794 373.86 237.86 413.514 237.308 428.589 L 207.956 428.63 L 207.853 336.224 C 213.589 336.174 219.33 335.942 225.066 335.834 C 243.768 335.481 232.514 339.293 238.085 344.66 C 243.66 341.204 249.066 337.568 255.357 335.554 C 255.721 335.437 256.091 335.335 256.458 335.226 z"/><path transform="translate(0,0)" fill="rgb(203,201,200)" d="M 845.119 162.393 C 873.188 160.991 901.941 162.399 930.072 162.558 L 1074.37 162.861 L 1248.11 162.981 C 1273.36 162.984 1299.02 161.92 1324.23 162.774 C 1329.31 162.946 1334.58 163.38 1338.94 166.18 L 1338.47 168.692 C 1334.66 170.665 1330.32 171.451 1326.06 171.752 C 1303.2 173.369 1277.63 171.652 1254.41 171.573 L 1109.07 171.342 L 850.408 172.052 C 839.543 185.524 830.264 200.854 820.626 215.244 L 779.606 275.687 C 774.861 282.723 765.666 299.296 760.139 304.6 C 758.072 306.583 756.848 306.121 754.248 305.907 C 752.657 304.666 751.824 304.24 751.836 301.977 C 751.852 299.246 753.435 296.264 754.729 293.947 C 760.158 284.222 767.679 275.067 773.871 265.772 C 791.045 239.993 808.169 214.287 825.854 188.84 C 831.694 180.437 837.488 169.147 845.119 162.393 z"/><path transform="translate(0,0)" fill="rgb(7,52,102)" d="M 864.137 335.302 C 880.58 333.212 894.732 335.889 910.308 340.932 C 908.518 348.335 906.383 355.08 902.989 361.911 C 892.709 357.637 880.403 354.166 869.176 356.203 C 865.115 356.939 860.66 359.647 858.419 363.093 C 861.149 371.54 895.287 373.083 906.015 381.451 C 910.997 385.337 914.337 390.655 915.071 396.98 C 915.873 403.902 913.74 412.703 909.046 417.971 C 900.727 427.309 885.983 428.818 874.25 429.492 C 858.904 430.459 844.394 426.931 830.431 420.825 C 833.24 414.168 836.116 407.539 839.059 400.939 C 847.336 404.414 855.246 407.599 864.215 408.719 C 869.681 409.401 880.568 410.497 884.693 406.214 C 886.582 404.253 886.737 403.148 886.884 400.624 C 882.161 391.86 853.517 392.104 843.139 386.04 C 837.354 382.66 832.894 377.315 831.513 370.661 C 830.033 363.534 832.156 354.57 836.469 348.728 C 843.034 339.834 853.788 336.958 864.137 335.302 z"/><path transform="translate(0,0)" fill="rgb(203,201,200)" d="M 1863.48 791.52 C 1885.75 790.65 1904.51 808.016 1905.35 830.291 C 1906.19 852.566 1888.8 871.3 1866.53 872.116 C 1844.29 872.93 1825.6 855.578 1824.75 833.341 C 1823.91 811.104 1841.24 792.389 1863.48 791.52 z"/><path transform="translate(0,0)" fill="rgb(245,245,241)" d="M 1861.12 802.725 C 1877.05 800.347 1891.93 811.228 1894.5 827.131 C 1897.06 843.035 1886.36 858.042 1870.49 860.794 C 1860.05 862.602 1849.45 858.662 1842.73 850.477 C 1836.01 842.292 1834.21 831.127 1838.02 821.245 C 1841.82 811.362 1850.65 804.289 1861.12 802.725 z"/><path transform="translate(0,0)" fill="rgb(7,52,102)" d="M 537.72 335.176 C 546.264 336.061 555.227 335.618 563.828 335.701 C 561.024 343.325 557.724 350.774 554.547 358.249 C 544.885 381.799 534.311 405.064 524.092 428.383 L 494.215 428.063 C 482.258 402.806 460.994 360.718 454.662 335.385 L 484.692 335.561 C 494.054 354.868 502.902 375.013 510.697 395.007 C 519.76 375.079 528.364 354.975 537.72 335.176 z"/><path transform="translate(0,0)" fill="rgb(203,201,200)" d="M 782.659 428.315 C 790.52 428.274 799.041 427.556 806.817 428.551 C 803.07 429.254 799.166 429.248 795.361 429.446 C 808.103 452.175 820.04 475.413 833.096 497.953 C 841.281 512.083 850.229 525.768 858.534 539.829 L 958.572 707.962 C 975.84 736.901 993.606 765.526 1010.23 794.84 C 1012.86 799.462 1017.72 805.301 1018.98 810.33 C 1019.67 813.065 1019.17 814.698 1017.95 817.128 C 1015.96 818.319 1015.98 818.356 1013.7 817.978 C 1011.03 816.16 1009.48 813.826 1007.75 811.129 C 998.973 797.472 991.65 782.797 983.484 768.765 C 969.682 745.049 955.037 721.667 940.886 698.141 C 897.993 628.049 855.843 557.505 814.446 486.52 C 806.611 472.963 786.009 441.97 782.659 428.315 z"/><path transform="translate(0,0)" fill="rgb(7,52,102)" d="M 332.911 314.506 C 343.315 314.553 353.717 314.706 364.117 314.965 L 364.274 336.577 L 385.013 336.479 L 385.019 358.81 L 364.884 358.646 C 364.954 370.529 362.67 385.188 365.451 396.664 C 366.306 400.191 368.015 403.404 371.447 405.015 C 375.179 406.766 380.286 404.456 383.996 403.333 C 387.883 406.888 391.706 417.274 394.523 422.227 L 394.067 423.439 C 386.297 428.269 378.904 429.728 369.818 429.611 C 359.029 429.472 348.167 426.184 340.58 418.158 C 329.206 406.128 333.097 374.118 333.268 358.362 L 320.119 358.68 L 320.193 336.131 L 333.028 336.159 L 332.911 314.506 z"/><path transform="translate(0,0)" fill="rgb(7,52,102)" d="M 1357.81 318.266 C 1367.71 318.143 1377.55 318.086 1387.45 318.554 L 1387.49 338.051 L 1410.15 337.926 L 1410.02 360.505 L 1387.57 360.506 C 1387.43 371.403 1384.82 386.118 1387.37 396.546 C 1388.21 399.972 1390.02 403.286 1393.42 404.772 C 1397.81 406.691 1403.23 404.671 1407.58 403.492 C 1409.43 409.422 1412.01 415.077 1414.45 420.781 C 1415.33 422.691 1415.21 421.649 1414.5 423.925 C 1408.49 427.244 1403.57 428.642 1396.7 428.964 C 1386.09 429.462 1373.74 429.072 1365.67 421.199 C 1353.82 409.641 1357.68 376.196 1357.5 359.996 L 1343.16 359.834 L 1343.05 337.031 L 1357.69 337.139 C 1357.67 330.848 1357.71 324.557 1357.81 318.266 z"/><path transform="translate(0,0)" fill="rgb(7,52,102)" d="M 1693.29 335.117 C 1696.19 334.947 1699.38 334.244 1701.88 335.988 C 1705.85 342.116 1703.07 354.833 1702.94 362.146 C 1693.69 361.828 1683.74 360.644 1676.45 367.659 C 1673.61 370.391 1672 373.816 1671.16 377.625 C 1668.68 388.901 1670.72 416.131 1670.67 428.995 L 1641.21 428.956 L 1640.46 428.291 C 1637.99 420 1639.7 350.538 1639.71 335.905 C 1647.58 335.792 1655.51 335.524 1663.38 335.673 C 1676.34 335.917 1667.55 340.633 1672.25 345.579 L 1674.82 343.467 C 1680.76 338.5 1685.94 336.934 1693.29 335.117 z"/><path transform="translate(0,0)" fill="rgb(7,52,102)" d="M 638.081 335.297 C 647.868 335.132 657.599 335.056 667.386 335.421 C 669.405 337.683 668.247 341.759 669.318 344.808 C 679.768 338.38 686.976 334.746 699.478 334.954 L 699.573 361.545 C 691.754 361.641 681.859 361.237 675.684 366.853 C 670.054 371.973 669.909 379.01 669.415 386.045 L 669.025 428.779 L 638.033 428.823 L 638.081 335.297 z"/><path transform="translate(0,0)" fill="rgb(7,52,102)" d="M 409.118 335.218 L 440.404 335.164 C 439.73 366.188 440.203 397.313 440.177 428.349 C 429.669 428.24 419.16 428.264 408.653 428.42 L 409.118 335.218 z"/><path transform="translate(0,0)" fill="rgb(7,52,102)" d="M 579.604 335.205 L 609.534 335.207 C 609.715 366.158 611.164 397.784 609.508 428.68 C 599.441 428.439 589.353 428.586 579.283 428.608 L 579.604 335.205 z"/><path transform="translate(0,0)" fill="rgb(7,52,102)" d="M 1177.42 336.43 C 1186.18 336.313 1194.95 336.37 1203.71 336.344 L 1203.94 399.792 C 1203.96 408.316 1205.44 420.094 1203.49 428.251 L 1201.19 428.803 L 1173.93 428.798 C 1173.91 413.528 1171.85 347.051 1174.97 337.55 L 1177.42 336.43 z"/><path transform="translate(0,0)" fill="rgb(203,201,200)" d="M 1153.02 896.999 C 1156 896.66 1158.09 896.349 1160.96 897.534 C 1162.83 899.802 1162.99 900.074 1163.3 902.987 C 1161.73 905.624 1161.22 905.966 1158.4 907.233 C 1150.5 910.791 1141.41 912.428 1133.13 914.995 C 1119.05 919.357 1105.13 924.426 1091.2 929.236 C 1090.75 929.385 1090.31 929.573 1089.85 929.685 C 1087.28 930.309 1085.7 930.306 1083.48 929.012 C 1082.16 926.404 1081.97 925.935 1082.16 923.04 C 1083.11 921.317 1084.05 920.546 1085.78 919.709 C 1092.56 916.427 1100.59 914.525 1107.77 912.128 L 1153.02 896.999 z"/><path transform="translate(0,0)" fill="rgb(7,52,102)" d="M 590.47 295.182 C 593.991 295.048 597.491 294.857 600.901 295.909 C 605.184 297.23 608.939 300.18 610.932 304.231 C 612.693 307.81 612.781 311.77 611.242 315.451 C 608.893 321.069 604.523 323.271 599.194 325.534 C 595.047 325.513 590.569 325.559 586.707 323.878 C 582.248 321.937 578.017 317.981 576.479 313.287 C 575.437 310.108 575.661 306.705 577.29 303.768 C 580.161 298.594 585.13 296.857 590.47 295.182 z"/><path transform="translate(0,0)" fill="rgb(7,52,102)" d="M 418.832 294.152 C 422.748 293.916 426.828 293.542 430.663 294.586 C 435.084 295.791 439.604 299.061 441.738 303.173 C 443.318 306.217 443.725 309.646 442.581 312.905 C 440.607 318.525 436.133 321.402 431.053 323.928 C 427.882 324.087 424.729 324.217 421.6 323.568 C 416.649 322.54 411.57 319.391 409.003 314.946 C 407.383 312.139 406.807 308.806 407.73 305.664 C 409.412 299.936 413.882 296.906 418.832 294.152 z"/><path transform="translate(0,0)" fill="rgb(7,52,102)" d="M 1188.65 295.223 C 1191.33 295.468 1193.84 295.744 1196.36 296.744 C 1200.29 298.307 1203.66 301.645 1205.12 305.633 C 1206.5 309.392 1206.15 313.62 1204.42 317.208 C 1201.69 322.883 1197.36 324.426 1191.68 326.28 C 1187.51 326.101 1183.14 325.604 1179.58 323.243 C 1176.18 320.989 1173.65 317.435 1172.87 313.413 C 1172.14 309.669 1172.98 305.791 1175.18 302.678 C 1178.6 297.817 1183.07 296.356 1188.65 295.223 z"/><path transform="translate(0,0)" fill="rgb(7,52,102)" d="M 1446.28 399.038 C 1448.82 398.949 1451.58 399.256 1454.04 399.916 C 1458.62 401.144 1462.7 404.083 1464.96 408.294 C 1466.85 411.771 1467.1 415.906 1465.64 419.584 C 1463.58 424.881 1460.12 426.923 1455.2 429.316 C 1451.51 429.81 1448.04 430.188 1444.44 429.03 C 1440.56 427.786 1437.15 425.1 1435.29 421.453 C 1433.46 417.878 1433.33 413.663 1434.69 409.91 C 1436.79 404.114 1441 401.637 1446.28 399.038 z"/><path transform="translate(0,0)" fill="rgb(203,201,200)" d="M 1246.24 814.504 C 1247.58 815.065 1249.64 815.717 1250.73 816.649 C 1252.77 818.398 1252.51 819.401 1252.42 821.82 C 1247.55 829.926 1212.84 865.304 1204.76 870.262 C 1203.64 870.202 1202.22 869.808 1201.12 869.593 C 1200.18 868.453 1199.39 868.032 1199.4 866.449 C 1199.48 858.131 1238.21 822.067 1246.24 814.504 z"/><path transform="translate(0,0)" fill="rgb(203,201,200)" d="M 1097.84 833.497 C 1098.29 833.547 1098.75 833.571 1099.19 833.648 C 1104.9 834.634 1146.24 863.939 1149.06 868.856 C 1151.39 872.913 1150.31 876.746 1149.48 881.067 C 1139.42 874.33 1100.19 848.97 1095.15 840.164 C 1095.27 837.04 1096.2 836.096 1097.84 833.497 z"/><path transform="translate(0,0)" fill="rgb(203,201,200)" d="M 1165.1 786.266 C 1166.24 786.513 1167.69 786.728 1168.63 787.478 C 1174.03 791.771 1177.17 837.223 1177.2 845.951 C 1177.22 850.905 1177.13 852.744 1173.59 856.324 C 1172.17 855.815 1170.84 855.161 1169.47 854.518 C 1164.74 845.784 1163.48 818.731 1162.37 807.415 C 1161.64 799.923 1160.01 792.438 1165.1 786.266 z"/><path transform="translate(0,0)" fill="rgb(203,201,200)" d="M 1055.09 828.331 C 1061.71 831.143 1061.38 836.387 1066.83 839.67 C 1073.03 843.402 1080.89 844.906 1087.46 848.126 C 1090.45 849.59 1091.95 850.822 1093.06 853.955 C 1092.26 856.933 1090.11 858.171 1087.79 859.947 C 1079.73 856.416 1066.52 848.903 1057.95 849.013 C 1057.83 849.015 1055.43 849.116 1055.18 849.088 C 1052.7 848.81 1051.83 847.579 1050.64 845.624 C 1049.92 839.78 1052.66 833.527 1055.09 828.331 z"/><metadata/></svg>