<svg xmlns="http://www.w3.org/2000/svg" xmlns:xlink="http://www.w3.org/1999/xlink" width="603" height="352" viewBox="0 0 603 352"><defs><style>.a{fill:#fff;}.b{filter:url(#c);}.c{filter:url(#a);}</style><filter id="a" x="3" y="280" width="600" height="72" filterUnits="userSpaceOnUse"><feOffset dy="7" input="SourceAlpha"/><feGaussianBlur stdDeviation="5" result="b"/><feFlood flood-color="#d5d6e8"/><feComposite operator="in" in2="b"/><feComposite in="SourceGraphic"/></filter><filter id="c" x="0" y="0" width="600" height="352" filterUnits="userSpaceOnUse"><feOffset dy="7" input="SourceAlpha"/><feGaussianBlur stdDeviation="5" result="d"/><feFlood flood-color="#d5d6e8"/><feComposite operator="in" in2="d"/><feComposite in="SourceGraphic"/></filter></defs><g transform="translate(-1172 -332)"><g class="c" transform="matrix(1, 0, 0, 1, 1172, 332)"><path class="a" d="M16,0H554a16,16,0,0,1,16,16V42a0,0,0,0,1,0,0H0a0,0,0,0,1,0,0V16A16,16,0,0,1,16,0Z" transform="translate(588 330) rotate(180)"/></g><g class="b" transform="matrix(1, 0, 0, 1, 1172, 332)"><rect class="a" width="570" height="322" rx="17" transform="translate(585 330) rotate(180)"/></g></g></svg>