<svg xmlns="http://www.w3.org/2000/svg" width="13" height="13" viewBox="0 0 13 13">
  <g id="calendar-60" transform="translate(-1 -1)">
    <g id="Group_7208" data-name="Group 7208">
      <path id="Path_3622" data-name="Path 3622" d="M14.629,1H14.21a.209.209,0,0,0-.21.21V3.726a.209.209,0,0,0,.21.21h.419a.209.209,0,0,0,.21-.21V1.21A.209.209,0,0,0,14.629,1Z" transform="translate(-10.274)" fill="#f6f6fd"/>
      <path id="Path_3623" data-name="Path 3623" d="M46.629,1H46.21a.209.209,0,0,0-.21.21V3.726a.209.209,0,0,0,.21.21h.419a.209.209,0,0,0,.21-.21V1.21A.209.209,0,0,0,46.629,1Z" transform="translate(-35.564)" fill="#f6f6fd"/>
      <path id="Path_3624" data-name="Path 3624" d="M13.581,7H11.694V8.887a.21.21,0,0,1-.21.21H10.226a.21.21,0,0,1-.21-.21V7H4.984V8.887a.21.21,0,0,1-.21.21H3.516a.21.21,0,0,1-.21-.21V7H1.419A.419.419,0,0,0,1,7.419v10.9a.419.419,0,0,0,.419.419H13.581A.419.419,0,0,0,14,18.323V7.419A.419.419,0,0,0,13.581,7Zm-.21,11.323H1.629a.21.21,0,0,1-.21-.21V10.565a.21.21,0,0,1,.21-.21H13.371a.21.21,0,0,1,.21.21v7.548A.21.21,0,0,1,13.371,18.323Z" transform="translate(0 -4.742)" fill="#f6f6fd"/>
    </g>
  </g>
</svg>
