<svg xmlns="http://www.w3.org/2000/svg" width="19.694" height="20.528" viewBox="0 0 19.694 20.528"><defs><style>.a{fill:#5a60fd;}</style></defs><path class="a" d="M1219.3,985.161c-.083.517-.128,1.044-.257,1.55a1.3,1.3,0,0,1-1.9.959,10.683,10.683,0,0,1-1.565-.861,8.805,8.805,0,0,0-5.762-1.214,2.087,2.087,0,0,0-.784.275.745.745,0,0,0-.353,1.031c.345.806.666,1.625,1.063,2.406.139.273.5.426.7.676.186.224.439.524.409.758a1.066,1.066,0,0,1-.577.65c-.632.3-1.3.517-1.961.764a.9.9,0,0,1-1.279-.425,17.033,17.033,0,0,1-.778-1.609c-.224-.5-.447-.993-.634-1.5a1.033,1.033,0,0,0-.913-.742,1.467,1.467,0,0,1-.79-.366.638.638,0,0,0-.792-.132,2.686,2.686,0,0,1-3.488-3,2.226,2.226,0,0,1,1.49-1.854,22.274,22.274,0,0,0,6.222-3.592,8.674,8.674,0,0,0,3.011-5.114,6.856,6.856,0,0,1,.338-1.214,1.193,1.193,0,0,1,1.658-.74,6.529,6.529,0,0,1,1.856,1.336,19.874,19.874,0,0,1,4.931,10.743c.03.208.063.417.077.627.013.192,0,.386,0,.579Zm-7.138-11.115a5.477,5.477,0,0,0-.173,1.04,17.78,17.78,0,0,0,.209,2.459,13.079,13.079,0,0,0,3.867,7.324,4.934,4.934,0,0,0,.967.568,4.406,4.406,0,0,0,.219-1.086,14.975,14.975,0,0,0-4.333-9.736A6.252,6.252,0,0,0,1212.164,974.046Z" transform="translate(-1199.608 -971.737)"/></svg>