<svg xmlns="http://www.w3.org/2000/svg" width="27.108" height="27.109" viewBox="0 0 27.108 27.109"><defs><style>.a{fill:#6a6ffe;}</style></defs><g transform="translate(-1694.569 -625.154) rotate(-25)"><path class="a" d="M1276.681,1290.551h2.948a.8.8,0,0,1,.453.73c.036.481.117.959.17,1.441a.215.215,0,0,0,.166.206q.838.329,1.667.689a.219.219,0,0,0,.265-.025c.413-.333.832-.66,1.25-.986a.609.609,0,0,1,.888.053q.881.878,1.759,1.76a.608.608,0,0,1,.049.888c-.327.418-.653.836-.986,1.25a.206.206,0,0,0-.028.247q.362.837.7,1.685a.213.213,0,0,0,.205.165c.481.053.96.135,1.441.171a.794.794,0,0,1,.729.453v2.948a.792.792,0,0,1-.729.453c-.481.037-.961.119-1.442.171a.214.214,0,0,0-.2.167c-.221.56-.453,1.115-.691,1.668a.219.219,0,0,0,.025.265c.333.413.66.832.986,1.251a.605.605,0,0,1-.055.887q-.87.875-1.745,1.747a.612.612,0,0,1-.9.057c-.414-.322-.828-.644-1.236-.972a.218.218,0,0,0-.264-.036q-.837.361-1.686.7a.2.2,0,0,0-.157.19c-.056.521-.127,1.04-.185,1.561a.621.621,0,0,1-.68.621q-1.234,0-2.469,0a.623.623,0,0,1-.677-.624c-.058-.52-.13-1.04-.185-1.561-.012-.114-.063-.149-.16-.188q-.848-.337-1.686-.7a.206.206,0,0,0-.248.027c-.408.328-.821.651-1.235.974a.612.612,0,0,1-.918-.049q-.874-.872-1.743-1.748a.61.61,0,0,1-.052-.888c.326-.419.653-.837.985-1.252a.2.2,0,0,0,.028-.247c-.24-.558-.472-1.121-.7-1.685-.039-.1-.073-.148-.188-.16-.527-.056-1.054-.128-1.58-.188a.621.621,0,0,1-.607-.673v-2.45a.632.632,0,0,1,.641-.7c.507-.056,1.014-.125,1.521-.179a.233.233,0,0,0,.219-.179q.325-.831.68-1.65a.233.233,0,0,0-.025-.282c-.334-.412-.66-.832-.985-1.251a.6.6,0,0,1,.053-.873q.877-.883,1.76-1.761a.606.606,0,0,1,.888-.055q.628.489,1.252.984a.2.2,0,0,0,.246.034c.565-.244,1.136-.471,1.7-.713a.268.268,0,0,0,.14-.171c.071-.485.144-.972.182-1.46A.794.794,0,0,1,1276.681,1290.551Zm-3.625,10.206a5.1,5.1,0,1,0,5.1-5.106A5.111,5.111,0,0,0,1273.056,1300.757Z" transform="translate(0)"/></g></svg>