<svg xmlns="http://www.w3.org/2000/svg" xmlns:xlink="http://www.w3.org/1999/xlink" width="180.865" height="81" viewBox="0 0 180.865 81"><defs><style>.a{fill:#fff;}.b{fill:#0e4c9b;font-size:15px;font-family:HomepageBaukasten-Book, HomepageBaukasten;letter-spacing:0.015em;}.c{filter:url(#a);}</style><filter id="a" x="0" y="19.774" width="180.865" height="61.226" filterUnits="userSpaceOnUse"><feOffset dy="7" input="SourceAlpha"/><feGaussianBlur stdDeviation="5" result="b"/><feFlood flood-color="#5c62fa" flood-opacity="0.302"/><feComposite operator="in" in2="b"/><feComposite in="SourceGraphic"/></filter></defs><g transform="translate(-598 -743)"><g transform="translate(612.534 743)"><g class="c" transform="matrix(1, 0, 0, 1, -14.53, 0)"><path class="a" d="M0,0H150.865V10.886c0,6.57-12.5,20.34-16.145,20.34H11.917C8.275,31.226,0,25.9,0,19.33Z" transform="translate(15 27.77)"/></g><g transform="translate(0.466 0)"><path class="a" d="M0,0H151a0,0,0,0,1,0,0V15a16,16,0,0,1-16,16H16A16,16,0,0,1,0,15V0A0,0,0,0,1,0,0Z" transform="translate(0 28)"/><path class="a" d="M16,0H135a16,16,0,0,1,16,16V44a0,0,0,0,1,0,0H0a0,0,0,0,1,0,0V16A16,16,0,0,1,16,0Z"/></g></g><text class="b" transform="translate(668 778)"><tspan x="0" y="0">Feeditor</tspan></text><path class="a" d="M14.027,0H52.6V59H14.027C6.28,59,0,53.65,0,47.051v-35.1C0,5.35,6.28,0,14.027,0Z" transform="translate(612.534 743)"/></g></svg>