<svg xmlns="http://www.w3.org/2000/svg" xmlns:xlink="http://www.w3.org/1999/xlink" width="85.649" height="85.019" viewBox="0 0 85.649 85.019"><defs><filter id="a" x="0" y="0" width="69.149" height="69.519" filterUnits="userSpaceOnUse"><feOffset dx="-4" dy="-4" input="SourceAlpha"/><feGaussianBlur stdDeviation="5" result="b"/><feFlood flood-color="#fff"/><feComposite operator="in" in2="b"/><feComposite in="SourceGraphic"/></filter><filter id="c" x="1.5" y="0.5" width="84.149" height="84.519" filterUnits="userSpaceOnUse"><feOffset dx="4" dy="4" input="SourceAlpha"/><feGaussianBlur stdDeviation="7.5" result="d"/><feFlood flood-color="#595ffc" flood-opacity="0.549"/><feComposite operator="in" in2="d"/><feComposite in="SourceGraphic"/></filter><filter id="e" x="16.399" y="25.373" width="46.845" height="32.219" filterUnits="userSpaceOnUse"><feOffset dy="3" input="SourceAlpha"/><feGaussianBlur stdDeviation="3" result="f"/><feFlood flood-color="#262a98" flood-opacity="0.51"/><feComposite operator="in" in2="f"/><feComposite in="SourceGraphic"/></filter></defs><g transform="translate(-731 -110.481)"><g transform="matrix(1, 0, 0, 1, 731, 110.48)" filter="url(#a)"><g transform="translate(19 19)" fill="#595ffc"><path d="M 31.39339637756348 39.01875305175781 L 7.756017208099365 39.01875305175781 C 3.755037069320679 39.01875305175781 0.4999970197677612 35.76371383666992 0.4999970197677612 31.76273536682129 L 0.4999970197677612 7.756014823913574 C 0.4999970197677612 3.755034685134888 3.755037069320679 0.5000045895576477 7.756017208099365 0.5000045895576477 L 31.39339637756348 0.5000045895576477 C 35.39437866210938 0.5000045895576477 38.64941787719727 3.755034685134888 38.64941787719727 7.756014823913574 L 38.64941787719727 31.76273536682129 C 38.64941787719727 35.76371383666992 35.39437866210938 39.01875305175781 31.39339637756348 39.01875305175781 Z" stroke="none"/><path d="M 7.756017684936523 0.9999961853027344 C 4.030738830566406 0.9999961853027344 0.9999961853027344 4.030735015869141 0.9999961853027344 7.756013870239258 L 0.9999961853027344 31.76273345947266 C 0.9999961853027344 35.48801422119141 4.030738830566406 38.51874542236328 7.756017684936523 38.51874542236328 L 31.39339637756348 38.51874542236328 C 35.11867523193359 38.51874542236328 38.14941787719727 35.48801422119141 38.14941787719727 31.76273345947266 L 38.14941787719727 7.756013870239258 C 38.14941787719727 4.030735015869141 35.11867523193359 0.9999961853027344 31.39339637756348 0.9999961853027344 L 7.756017684936523 0.9999961853027344 M 7.756017684936523 -3.814697265625e-06 L 31.39339637756348 -3.814697265625e-06 C 35.67692565917969 -3.814697265625e-06 39.14941787719727 3.472484588623047 39.14941787719727 7.756013870239258 L 39.14941787719727 31.76273345947266 C 39.14941787719727 36.0462646484375 35.67692565917969 39.51874542236328 31.39339637756348 39.51874542236328 L 7.756017684936523 39.51874542236328 C 3.472488403320313 39.51874542236328 -3.814697265625e-06 36.0462646484375 -3.814697265625e-06 31.76273345947266 L -3.814697265625e-06 7.756013870239258 C -3.814697265625e-06 3.472484588623047 3.472488403320313 -3.814697265625e-06 7.756017684936523 -3.814697265625e-06 Z" stroke="none" fill="#f4f5ff"/></g></g><g transform="translate(16)"><g transform="matrix(1, 0, 0, 1, 715, 110.48)" filter="url(#c)"><g transform="translate(20 19)" fill="#595ffc"><path d="M 31.39339637756348 39.01875305175781 L 7.756017208099365 39.01875305175781 C 3.755037069320679 39.01875305175781 0.4999970197677612 35.76371383666992 0.4999970197677612 31.76273536682129 L 0.4999970197677612 7.756014823913574 C 0.4999970197677612 3.755034685134888 3.755037069320679 0.5000045895576477 7.756017208099365 0.5000045895576477 L 31.39339637756348 0.5000045895576477 C 35.39437866210938 0.5000045895576477 38.64941787719727 3.755034685134888 38.64941787719727 7.756014823913574 L 38.64941787719727 31.76273536682129 C 38.64941787719727 35.76371383666992 35.39437866210938 39.01875305175781 31.39339637756348 39.01875305175781 Z" stroke="none"/><path d="M 7.756017684936523 0.9999961853027344 C 4.030738830566406 0.9999961853027344 0.9999961853027344 4.030735015869141 0.9999961853027344 7.756013870239258 L 0.9999961853027344 31.76273345947266 C 0.9999961853027344 35.48801422119141 4.030738830566406 38.51874542236328 7.756017684936523 38.51874542236328 L 31.39339637756348 38.51874542236328 C 35.11867523193359 38.51874542236328 38.14941787719727 35.48801422119141 38.14941787719727 31.76273345947266 L 38.14941787719727 7.756013870239258 C 38.14941787719727 4.030735015869141 35.11867523193359 0.9999961853027344 31.39339637756348 0.9999961853027344 L 7.756017684936523 0.9999961853027344 M 7.756017684936523 -3.814697265625e-06 L 31.39339637756348 -3.814697265625e-06 C 35.67692565917969 -3.814697265625e-06 39.14941787719727 3.472484588623047 39.14941787719727 7.756013870239258 L 39.14941787719727 31.76273345947266 C 39.14941787719727 36.0462646484375 35.67692565917969 39.51874542236328 31.39339637756348 39.51874542236328 L 7.756017684936523 39.51874542236328 C 3.472488403320313 39.51874542236328 -3.814697265625e-06 36.0462646484375 -3.814697265625e-06 31.76273345947266 L -3.814697265625e-06 7.756013870239258 C -3.814697265625e-06 3.472484588623047 3.472488403320313 -3.814697265625e-06 7.756017684936523 -3.814697265625e-06 Z" stroke="none" fill="#eef0ff"/></g></g><g transform="matrix(1, 0, 0, 1, 715, 110.48)" filter="url(#e)"><path d="M4.62-38.5H15.345v2.783H7.728v2.884h6.7v2.783h-6.7v2.986h7.719v2.783H4.62Zm25.757,8.146a2.527,2.527,0,0,0-.467-1.656,1.649,1.649,0,0,0-1.341-.559A1.727,1.727,0,0,0,27.2-32a2.426,2.426,0,0,0-.5,1.645v6.074H23.613v-6.074a2.527,2.527,0,0,0-.467-1.656,1.649,1.649,0,0,0-1.341-.559A1.727,1.727,0,0,0,20.434-32a2.426,2.426,0,0,0-.5,1.645v6.074H16.849V-35.169h3.088v1.544a5.308,5.308,0,0,1,1.381-1.28,3.4,3.4,0,0,1,1.828-.467,3.7,3.7,0,0,1,1.849.447,3.007,3.007,0,0,1,1.219,1.28,4.556,4.556,0,0,1,3.575-1.727A3.542,3.542,0,0,1,32.5-34.346a4.186,4.186,0,0,1,.965,2.976v7.089H30.377Z" transform="translate(20.78 69.87)" fill="#f4f5ff"/></g></g></g></svg>