<svg xmlns="http://www.w3.org/2000/svg" width="20.252" height="16.038" viewBox="0 0 20.252 16.038"><defs><style>.a{fill:#ff68a0;}</style></defs><g transform="translate(-33.916 -133.405)"><g transform="translate(33.916 133.405)"><path class="a" d="M42.306,280.5l-2.724,2.715a.894.894,0,0,1-1.262.031L35.547,280.6a.894.894,0,0,1-.031-1.262l5.687-5.972a.9.9,0,0,1,1.263-.031l2.773,2.642a.893.893,0,0,1,.035,1.257l-.656.675a.678.678,0,0,0,.973.945l.66-.679A2.249,2.249,0,0,0,46.174,275L43.4,272.356a2.252,2.252,0,0,0-3.179.078L34.534,278.4a2.252,2.252,0,0,0,.079,3.179l2.772,2.641a2.248,2.248,0,0,0,1.554.62,2.218,2.218,0,0,0,1.612-.685l2.712-2.7a.678.678,0,1,0-.957-.96Z" transform="translate(-33.916 -268.807)"/><path class="a" d="M391.327,138.239a2.231,2.231,0,0,0-.7-1.574l-2.772-2.641a2.249,2.249,0,0,0-3.168.067l-2.719,2.732a.678.678,0,0,0,.961.956l2.73-2.743a.9.9,0,0,1,1.263-.031l2.772,2.641a.893.893,0,0,1,.031,1.263l-5.686,5.971a.9.9,0,0,1-1.264.032L380,142.273a.9.9,0,0,1-.03-1.264l.621-.655a.678.678,0,1,0-.983-.933l-.62.653a2.253,2.253,0,0,0,.077,3.18l2.773,2.641a2.255,2.255,0,0,0,3.179-.079l5.687-5.972A2.234,2.234,0,0,0,391.327,138.239Z" transform="translate(-371.076 -133.405)"/></g></g></svg>