<svg id="Path_3618" data-name="Path 3618" xmlns="http://www.w3.org/2000/svg" width="20" height="20" viewBox="0 0 20 20">
  <path id="Path_3620" data-name="Path 3620" d="M1.845,6.092A1.5,1.5,0,0,1,3.284,8.016a7.009,7.009,0,0,0,8.4,8.782,1.5,1.5,0,0,1,.717,2.913h0l-.036.009h0a9.989,9.989,0,0,1-1.6.252h0l-.047,0H10.7l-.038,0h-.01l-.028,0H10.6l-.028,0H10A10,10,0,0,1,0,10s0,0,0-.007V9.985H0V9.96H0v-.04H0V9.9H0V9.9H0V9.879H0V9.863H0V9.839H0V9.823H0V9.815H0V9.8H0V9.791H0V9.782H0V9.775H0V9.767H0V9.758H0V9.743H0V9.734H0V9.727H0V9.718H0V9.686H0V9.678h0V9.67h0V9.654h0V9.646h0V9.638h0V9.63h0V9.606h0V9.6h0V9.59h0V9.566h0V9.558h0v-.03h0V9.518h0V9.51h0V9.494h0V9.486h0V9.478h0V9.47h0V9.454h0V9.438h0V9.43h0V9.414h0V9.4h0V9.39h0V9.374h0V9.358h0V9.35h0V9.334h0V9.318h0V9.31h0V9.295h0V9.278h0l0-.023h0V9.239h0V9.231h0V9.215h0V9.2h0l0-.023h0V9.159h0l0-.024h0V9.12h0V9.1h0V9.1h0V9.08h0l0-.024h0V9.041h0l.006-.063h0l0-.015h0l0-.016h0l.007-.063h0l0-.039h0l0-.039h0l0-.016h0L.08,8.726h0q.013-.106.029-.21h0l0-.015h0V8.493h0l0-.015h0l0-.015h0l0-.023h0l0-.015h0V8.416h0V8.407h0V8.4h0l0-.015h0V8.376h0V8.369h0V8.361h0l0-.015h0V8.338h0V8.33h0V8.323h0l0-.014h0V8.3h0V8.292h0V8.284h0l0-.014h0V8.262h0V8.253h0V8.238h0V8.223h0V8.2h0V8.056l0-.014h0v0h0l0-.009h0v0h0L.2,8h0l0-.021h0q.085-.413.2-.813A1.5,1.5,0,0,1,1.845,6.092ZM10,0A10,10,0,0,1,20,10h0v.016h0v.015h0v.015h0s0,0,0,.007v.009h0s0,0,0,.007v.009h0s0,0,0,.007v0s0,0,0,.007h0v.009s0,0,0,.007h0s0,0,0,.007v0s0,0,0,.007h0s0,0,0,.007v0s0,0,0,.007h0s0,0,0,.007h0s0,0,0,.007h0s0,0,0,.007h0v.015h0v.031h0s0,0,0,.007h0s0,0,0,.007h0v.015a.01.01,0,0,0,0,0s0,.01,0,.014v0s0,0,0,.007h0s0,0,0,.007v0s0,.01,0,.014a.007.007,0,0,0,0,0s0,.01,0,.015v0s0,.01,0,.015h0s0,.01,0,.015h0s0,.01,0,.015h0s0,.01,0,.015a.008.008,0,0,1,0,0s0,.01,0,.014v0s0,.01,0,.015h0v.015h0v.014a.01.01,0,0,1,0,0v.014a.01.01,0,0,1,0,0v.014a.007.007,0,0,0,0,0v.007h0s0,0,0,.007V10.5h0v.007a.009.009,0,0,1,0,0s0,.01,0,.014a.009.009,0,0,1,0,0v.016s0,.01,0,.014a.006.006,0,0,1,0,0s0,.01,0,.015v.016a.007.007,0,0,1,0,0s0,.01,0,.015h0v.015h0v.015h0v.015h0c0,.005,0,.01,0,.015h0v.015h0V10.7h0v.015h0v.015h0v.015h0v.015h0v.015h0v.015h0v.015h0v.015h0v.015h0v.015h0v.015h0v.015h0V10.9h0v.015h0v.015h0l0,.015h0v.015h0l0,.015h0V11h0l0,.015h0l0,.015h0l0,.015h0l0,.015h0l0,.015h0l0,.015h0l0,.016h0l0,.016h0l0,.015h0l0,.015h0l0,.016h0l0,.031h0a9.934,9.934,0,0,1-1.3,3.847,1.5,1.5,0,0,1-2.587-1.519A7,7,0,0,0,10,3h0a6.915,6.915,0,0,0-3.255.8,1.5,1.5,0,0,1-1.4-2.654l.164-.084h0l.041-.021h0l.008,0h0l.024-.012h0l.007,0h0l.007,0h0l.016-.008h0l.007,0h0l.006,0h0l.007,0h0L5.659.989h0l.006,0h0l.006,0h0L5.693.973h0l.006,0h0l.005,0h0l.006,0h0l.008,0h0l.006,0h0l0,0,0,0,0,0,0,0,0,0h0l.007,0h0l.005,0,0,0,0,0,0,0,0,0,0,0,.005,0,0,0,.006,0,0,0,0,0,0,0,0,0,0,0,0,0,0,0,0,0,.007,0,0,0,0,0,0,0,0,0h0l0,0h0l.01,0h0l0,0h0l0,0h0l0,0h0l.005,0h0L5.925.865h0l.005,0h0l.005,0h0l.005,0h0L5.967.847h0l.005,0h0l.005,0h0l.006,0h0l.02-.009h0l.006,0h0l.006,0h0L6.05.81h0l.006,0h0l.006,0h0l.02-.009h0l.006,0h0l.006,0h0L6.129.777h0l.007,0h0A9.924,9.924,0,0,1,8.415.125h.008L8.461.118h.008l.031,0h.008L8.547.1h.009L8.593.1H8.6l.03,0h.017l.023,0h.016l.03,0h.017l.03,0h.017l.022,0h.018l.022,0h.026l.02,0h.027l.02,0H9l.019,0H10Z" fill="#595ffc"/>
</svg>
