<svg xmlns="http://www.w3.org/2000/svg" xmlns:xlink="http://www.w3.org/1999/xlink" width="79.5" height="79.5" viewBox="0 0 79.5 79.5">
  <defs>
    <filter id="Path_3852" x="0" y="0" width="63.102" height="64" filterUnits="userSpaceOnUse">
      <feOffset dx="-4" dy="-4" input="SourceAlpha"/>
      <feGaussianBlur stdDeviation="5" result="blur"/>
      <feFlood flood-color="#fff"/>
      <feComposite operator="in" in2="blur"/>
      <feComposite in="SourceGraphic"/>
    </filter>
    <filter id="Path_3853" x="1.398" y="0.5" width="78.102" height="79" filterUnits="userSpaceOnUse">
      <feOffset dx="4" dy="4" input="SourceAlpha"/>
      <feGaussianBlur stdDeviation="7.5" result="blur-2"/>
      <feFlood flood-color="#595ffc" flood-opacity="0.239"/>
      <feComposite operator="in" in2="blur-2"/>
      <feComposite in="SourceGraphic"/>
    </filter>
    <filter id="Path_3854" x="15.749" y="23.381" width="41.845" height="30.774" filterUnits="userSpaceOnUse">
      <feOffset dy="3" input="SourceAlpha"/>
      <feGaussianBlur stdDeviation="3" result="blur-3"/>
      <feFlood flood-color="#262a98" flood-opacity="0.51"/>
      <feComposite operator="in" in2="blur-3"/>
      <feComposite in="SourceGraphic"/>
    </filter>
  </defs>
  <g id="Group_7995" data-name="Group 7995" transform="translate(-731 -110.481)">
    <g transform="matrix(1, 0, 0, 1, 731, 110.48)" filter="url(#Path_3852)">
      <g id="Path_3852-2" data-name="Path 3852" transform="translate(19 19)" fill="#595ffc">
        <path d="M 26.54379653930664 33.5 L 6.557876586914063 33.5 C 3.217546463012695 33.5 0.4999965727329254 30.73085021972656 0.4999965727329254 27.32710075378418 L 0.4999965727329254 6.672900199890137 C 0.4999965727329254 3.269150018692017 3.217546463012695 0.5 6.557876586914063 0.5 L 26.54379653930664 0.5 C 29.88412666320801 0.5 32.60167694091797 3.269150018692017 32.60167694091797 6.672900199890137 L 32.60167694091797 27.32710075378418 C 32.60167694091797 30.73085021972656 29.88412666320801 33.5 26.54379653930664 33.5 Z" stroke="none"/>
        <path d="M 6.557876586914063 1 C 3.493246078491211 1 0.9999961853027344 3.544849395751953 0.9999961853027344 6.67289924621582 L 0.9999961853027344 27.32709884643555 C 0.9999961853027344 30.45515060424805 3.493246078491211 33 6.557876586914063 33 L 26.54379653930664 33 C 29.60842704772949 33 32.10167694091797 30.45515060424805 32.10167694091797 27.32709884643555 L 32.10167694091797 6.67289924621582 C 32.10167694091797 3.544849395751953 29.60842704772949 1 26.54379653930664 1 L 6.557876586914063 1 M 6.557876586914063 0 L 26.54379653930664 0 C 30.16560745239258 0 33.10167694091797 2.987560272216797 33.10167694091797 6.67289924621582 L 33.10167694091797 27.32709884643555 C 33.10167694091797 31.0124397277832 30.16560745239258 34 26.54379653930664 34 L 6.557876586914063 34 C 2.936056137084961 34 -3.814697265625e-06 31.0124397277832 -3.814697265625e-06 27.32709884643555 L -3.814697265625e-06 6.67289924621582 C -3.814697265625e-06 2.987560272216797 2.936056137084961 0 6.557876586914063 0 Z" stroke="none" fill="#f4f5ff"/>
      </g>
    </g>
    <g id="Group_7990" data-name="Group 7990" transform="translate(750.898 129.481)">
      <g transform="matrix(1, 0, 0, 1, -19.9, -19)" filter="url(#Path_3853)">
        <g id="Path_3853-2" data-name="Path 3853" transform="translate(19.9 19)" fill="#595ffc">
          <path d="M 26.54379653930664 33.5 L 6.557876586914063 33.5 C 3.217546463012695 33.5 0.4999965727329254 30.73085021972656 0.4999965727329254 27.32710075378418 L 0.4999965727329254 6.672900199890137 C 0.4999965727329254 3.269150018692017 3.217546463012695 0.5 6.557876586914063 0.5 L 26.54379653930664 0.5 C 29.88412666320801 0.5 32.60167694091797 3.269150018692017 32.60167694091797 6.672900199890137 L 32.60167694091797 27.32710075378418 C 32.60167694091797 30.73085021972656 29.88412666320801 33.5 26.54379653930664 33.5 Z" stroke="none"/>
          <path d="M 6.557876586914063 1 C 3.493246078491211 1 0.9999961853027344 3.544849395751953 0.9999961853027344 6.67289924621582 L 0.9999961853027344 27.32709884643555 C 0.9999961853027344 30.45515060424805 3.493246078491211 33 6.557876586914063 33 L 26.54379653930664 33 C 29.60842704772949 33 32.10167694091797 30.45515060424805 32.10167694091797 27.32709884643555 L 32.10167694091797 6.67289924621582 C 32.10167694091797 3.544849395751953 29.60842704772949 1 26.54379653930664 1 L 6.557876586914063 1 M 6.557876586914063 0 L 26.54379653930664 0 C 30.16560745239258 0 33.10167694091797 2.987560272216797 33.10167694091797 6.67289924621582 L 33.10167694091797 27.32709884643555 C 33.10167694091797 31.0124397277832 30.16560745239258 34 26.54379653930664 34 L 6.557876586914063 34 C 2.936056137084961 34 -3.814697265625e-06 31.0124397277832 -3.814697265625e-06 27.32709884643555 L -3.814697265625e-06 6.67289924621582 C -3.814697265625e-06 2.987560272216797 2.936056137084961 0 6.557876586914063 0 Z" stroke="none" fill="#eef0ff"/>
        </g>
      </g>
      <g transform="matrix(1, 0, 0, 1, -19.9, -19)" filter="url(#Path_3854)">
        <path id="Path_3854-2" data-name="Path 3854" d="M4.62-38.5h8.866V-36h-6.3v2.591h5.541v2.5H7.189v2.682H13.57v2.5H4.62Zm21.293,7.317a2.412,2.412,0,0,0-.386-1.487,1.315,1.315,0,0,0-1.108-.5,1.376,1.376,0,0,0-1.133.511,2.309,2.309,0,0,0-.411,1.478v5.456H20.321v-5.456a2.412,2.412,0,0,0-.386-1.487,1.315,1.315,0,0,0-1.108-.5,1.376,1.376,0,0,0-1.133.511,2.309,2.309,0,0,0-.411,1.478v5.456H14.729v-9.781h2.552v1.387a4.552,4.552,0,0,1,1.142-1.15,2.637,2.637,0,0,1,1.511-.42,2.865,2.865,0,0,1,1.528.4,2.619,2.619,0,0,1,1.008,1.15,3.661,3.661,0,0,1,2.955-1.551,2.806,2.806,0,0,1,2.242.922,3.972,3.972,0,0,1,.8,2.673v6.369H25.913Z" transform="translate(20.13 67.88)" fill="#f4f5ff"/>
      </g>
    </g>
  </g>
</svg>
