<svg xmlns="http://www.w3.org/2000/svg" width="33.12" height="33.12" viewBox="0 0 33.12 33.12"><defs><style>.a{fill:#5a60fd;}.b{fill:#fdfdfe;stroke:#fdfdfe;stroke-width:0.5px;}</style></defs><g transform="translate(-334 -186)"><path class="a" d="M4.907,0H28.213A4.907,4.907,0,0,1,33.12,4.907V28.213a4.907,4.907,0,0,1-4.907,4.907H4.907A4.907,4.907,0,0,1,0,28.213V4.907A4.907,4.907,0,0,1,4.907,0Z" transform="translate(334 186)"/><path class="b" d="M8.714-6.615V-7.7H1.089V2.848h7.7V1.763H2.279V-1.929H8.036V-3.014H2.279v-3.6ZM18.764-6.6V-7.7H11.185V2.848h1.19v-4.6h5.711V-2.833H12.375V-6.6Z" transform="translate(341.252 205.07)"/></g></svg>