<svg xmlns="http://www.w3.org/2000/svg" width="17.799" height="22.532" viewBox="0 0 17.799 22.532"><defs><style>.a{fill:#c3c6fe;}</style></defs><g transform="translate(-370 -427.468)"><g transform="translate(236.583 394.728)"><g transform="translate(133.417 32.74)"><path class="a" d="M146.953,42.557v-4.83c0-2.983-1.713-4.987-4.263-4.987s-4.263,2-4.263,4.987v4.83h-5.011V55.272h17.8V42.557Zm-8.024-4.83c0-2.725,1.477-4.486,3.761-4.486s3.761,1.761,3.761,4.486v4.83H138.93Zm-.251,6.85a.741.741,0,1,1,.741-.74A.741.741,0,0,1,138.679,44.577Zm8.024.049a.741.741,0,1,1,.741-.741A.741.741,0,0,1,146.7,44.626Z" transform="translate(-133.417 -32.74)"/></g></g></g></svg>