<svg xmlns="http://www.w3.org/2000/svg" width="34.05" height="40.952" viewBox="0 0 34.05 40.952">
  <path id="oops" d="M25.728,14.109a6.846,6.846,0,0,1-3.42,7.188,3.992,3.992,0,0,0-1.58,2.983v1.265H17.323V24.28a7.34,7.34,0,0,1,3.34-5.959A3.405,3.405,0,0,0,22.374,14.7a3.446,3.446,0,0,0-2.724-2.724,3.405,3.405,0,0,0-4.03,3.351H12.215a6.812,6.812,0,0,1,13.513-1.221ZM36.05,9.315V20.422c0,12.662-12,18.471-15.675,19.948l-1.422.572-1.362-.681C13.926,38.428,2,31.6,2,20.422V9.315A5.094,5.094,0,0,1,5.5,4.476L19.025-.01,32.553,4.476A5.094,5.094,0,0,1,36.05,9.315Zm-3.405,0a1.7,1.7,0,0,0-1.165-1.607L19.025,3.582,6.57,7.708A1.7,1.7,0,0,0,5.405,9.315V20.422c0,9.221,10.486,15.181,13.7,16.79,3.177-1.282,13.54-6.264,13.54-16.79ZM17.323,32.355h3.405V28.95H17.323Z" transform="translate(-2 0.01)" fill="#d8534f"/>
</svg>
