<svg id="error" xmlns="http://www.w3.org/2000/svg" width="34.05" height="40.86" viewBox="0 0 34.05 40.86">
  <path id="Path_4237" data-name="Path 4237" d="M18.937,40.869l-.6-.267C17.663,40.308,2,33.234,2,20.424V9.317A5.079,5.079,0,0,1,5.492,4.5L19.025.009,32.558,4.5A5.079,5.079,0,0,1,36.05,9.317V20.424c0,14.6-15.813,20.013-16.487,20.238Zm.089-37.29L6.57,7.709A1.689,1.689,0,0,0,5.405,9.317V20.424c0,9.354,10.964,15.421,13.7,16.789,2.731-1.1,13.54-6.126,13.54-16.789V9.317a1.689,1.689,0,0,0-1.165-1.607Z" transform="translate(-2 -0.009)" fill="#d8534f"/>
  <path id="fi-rs-add" d="M22.133,18.728h6.81v3.405h-6.81v6.81H18.728v-6.81h-6.81V18.728h6.81v-6.81h3.405Z" transform="translate(17.025 -8.462) rotate(45)" fill="#d8534f"/>
</svg>
