<svg id="export_complete_green" xmlns="http://www.w3.org/2000/svg" width="34.05" height="40.86" viewBox="0 0 34.05 40.86">
  <path id="Path_4237" data-name="Path 4237" d="M18.937,40.869l-.6-.267C17.663,40.308,2,33.234,2,20.424V9.317A5.079,5.079,0,0,1,5.492,4.5L19.025.009,32.558,4.5A5.079,5.079,0,0,1,36.05,9.317V20.424c0,14.6-15.813,20.013-16.487,20.238Zm.089-37.29L6.57,7.709A1.689,1.689,0,0,0,5.405,9.317V20.424c0,9.354,10.964,15.421,13.7,16.789,2.731-1.1,13.54-6.126,13.54-16.789V9.317a1.689,1.689,0,0,0-1.165-1.607Z" transform="translate(-2 -0.009)" fill="#1fa597"/>
  <path id="Path_4238" data-name="Path 4238" d="M13.7,19.616h-.056a3.187,3.187,0,0,1-2.29-1.022L7.427,14.509,9.88,12.156,13.7,16.14l8.821-8.821,2.407,2.407-8.957,8.957A3.189,3.189,0,0,1,13.7,19.616Z" transform="translate(1.813 5.126)" fill="#1fa597"/>
</svg>
