<svg xmlns="http://www.w3.org/2000/svg" width="11.53" height="11.462" viewBox="0 0 11.53 11.462">
  <g id="Group_255" data-name="Group 255" transform="translate(-1397.277 -477.433)">
    <path id="Path_131" data-name="Path 131" d="M1463.542,585.8l5.913-5.912,2.316,2.318-5.909,5.911Z" transform="translate(-65.013 -100.514)" fill="#5a60fd"/>
    <path id="Path_132" data-name="Path 132" d="M1811.382,481.065l-2.342-2.342.424-.418c.2-.2.4-.4.605-.6a1.019,1.019,0,0,1,1.389-.006c.377.361.754.724,1.107,1.109a.76.76,0,0,1-.024,1.1c-.372.389-.759.763-1.14,1.144A.077.077,0,0,1,1811.382,481.065Z" transform="translate(-403.981)" fill="#5a60fd"/>
    <path id="Path_133" data-name="Path 133" d="M1397.869,928.245l2.312,2.313-.681.167-1.843.446c-.187.045-.318-.012-.367-.168a.28.28,0,0,1-.008-.138q.287-1.3.579-2.607A.026.026,0,0,1,1397.869,928.245Z" transform="translate(0 -442.292)" fill="#5a60fd"/>
  </g>
</svg>
