<svg xmlns="http://www.w3.org/2000/svg" width="18" height="15.269" viewBox="0 0 18 15.269"><defs><style>.a{fill:#c3c6fe;}</style></defs><g transform="translate(-5.066 -7.084)"><g transform="translate(5.066 7.084)"><path class="a" d="M22.594,21.409H20.545V12.061h-2.42v9.348H15.671V10.14H13.252V21.409H10.945V14.717H8.527v6.692H6.78V7.556a.472.472,0,0,0-.472-.472H5.538a.472.472,0,0,0,0,.943h.3v2.638h-.3a.472.472,0,1,0,0,.943h.3v2.637h-.3a.472.472,0,1,0,0,.943h.3v2.638h-.3a.472.472,0,0,0,0,.943h.3v2.638h-.3a.472.472,0,1,0,0,.943H22.594a.472.472,0,1,0,0-.944Z" transform="translate(-5.066 -7.084)"/></g></g></svg>