<?xml version="1.0" encoding="utf-8"?>
<!-- Generator: Adobe Illustrator 26.4.1, SVG Export Plug-In . SVG Version: 6.00 Build 0)  -->
<svg version="1.1" id="Layer_1" xmlns="http://www.w3.org/2000/svg" xmlns:xlink="http://www.w3.org/1999/xlink" x="0px" y="0px"
	 viewBox="0 0 23.9 24.7" style="enable-background:new 0 0 23.9 24.7;" xml:space="preserve">
<style type="text/css">
	.st0{fill:#5A60FD;}
</style>
<g id="XMLID_520_" transform="translate(-5.094)">
	<path id="XMLID_521_" class="st0" d="M5.2,16.6l2.2,3.9c0.3,0.5,0.8,0.7,1.3,0.5l3.3-1.1c0.3,0.2,0.6,0.4,0.9,0.5l0.7,3.4
		c0.1,0.5,0.6,0.9,1.1,0.9h4.5c0.5,0,1-0.4,1.1-0.9l0.7-3.4c0.3-0.2,0.6-0.3,0.9-0.5l3.3,1.1c0.5,0.2,1.1,0,1.3-0.5l2.2-3.9
		c0.3-0.5,0.2-1-0.2-1.4L26,12.9c0-0.2,0-0.3,0-0.5s0-0.3,0-0.5l2.6-2.3c0.4-0.4,0.5-0.9,0.2-1.4l-2.2-3.9c-0.3-0.5-0.8-0.7-1.3-0.5
		L22,4.8c-0.3-0.2-0.6-0.4-0.9-0.5l-0.7-3.4C20.3,0.4,19.8,0,19.3,0h-4.5c-0.5,0-1,0.4-1.1,0.9L13,4.3c-0.3,0.2-0.6,0.3-0.9,0.5
		L8.8,3.7c-0.5-0.2-1.1,0-1.3,0.5L5.2,8.1C5,8.6,5.1,9.2,5.5,9.5l2.6,2.3c0,0.2,0,0.3,0,0.5s0,0.3,0,0.5l-2.6,2.3
		C5.1,15.5,5,16.1,5.2,16.6z M17.1,7.9c2.5,0,4.5,2,4.5,4.5s-2,4.5-4.5,4.5s-4.5-2-4.5-4.5l0,0C12.6,9.9,14.6,7.9,17.1,7.9z"/>
</g>
</svg>
