<svg xmlns="http://www.w3.org/2000/svg" width="12" height="12.026" viewBox="0 0 12 12.026"><defs><style>.a{opacity:0.5;}.b{fill:#a5a8fb;}</style></defs><g class="a"><path class="b" d="M1733.413,1121.483h-1.175c-.031-.06-.09-.047-.14-.054a6.066,6.066,0,0,1-1.468-.381,5.992,5.992,0,0,1,1.207-11.467,2.447,2.447,0,0,0,.669-.124h.588c.048.076.127.047.194.052a5.97,5.97,0,0,1,5.545,6.159c0,.086-.035.178.033.256v.053c-.076.047-.049.127-.058.193a5.982,5.982,0,0,1-5.069,5.241C1733.63,1121.43,1733.505,1121.39,1733.413,1121.483Zm-.653-2.343a2.965,2.965,0,0,0,1.26-.325.269.269,0,0,0,.135-.342c-.036-.146-.157-.013-.241-.018a1.382,1.382,0,0,0-.184.024c-.527.043-.681-.121-.605-.649a10.247,10.247,0,0,1,.26-1.089,6.291,6.291,0,0,0,.3-1.323.981.981,0,0,0-1.079-1.122,2.814,2.814,0,0,0-.478.039,5.035,5.035,0,0,0-.836.27.321.321,0,0,0-.2.391c.029.123.178-.008.275-.006.124,0,.248-.024.371-.026a.347.347,0,0,1,.387.377,1.37,1.37,0,0,1-.027.37c-.1.423-.216.844-.327,1.265a4.522,4.522,0,0,0-.22,1.2.9.9,0,0,0,.608.882A1.539,1.539,0,0,0,1732.76,1119.14Zm.616-5.645a.848.848,0,1,0-.9-.852A.866.866,0,0,0,1733.376,1113.5Z" transform="translate(-1726.865 -1109.457)"/></g></svg>