<svg xmlns="http://www.w3.org/2000/svg" xmlns:xlink="http://www.w3.org/1999/xlink" width="49" height="54.174" viewBox="0 0 49 54.174"><defs><style>.a{fill:#f3f5fa;}.b{fill:#b6b7c7;}.c{filter:url(#e);}.d{filter:url(#c);}.e{filter:url(#a);}</style><filter id="a" x="0" y="0" width="49" height="49" filterUnits="userSpaceOnUse"><feOffset dy="-5" input="SourceAlpha"/><feGaussianBlur stdDeviation="3.5" result="b"/><feFlood flood-color="#fff"/><feComposite operator="in" in2="b"/><feComposite in="SourceGraphic"/></filter><filter id="c" x="5.95" y="23.822" width="37.172" height="30.352" filterUnits="userSpaceOnUse"><feOffset dy="5" input="SourceAlpha"/><feGaussianBlur stdDeviation="3.5" result="d"/><feFlood flood-color="#d1d2ff" flood-opacity="0.298"/><feComposite operator="in" in2="d"/><feComposite in="SourceGraphic"/></filter><filter id="e" x="10" y="14" width="29" height="30" filterUnits="userSpaceOnUse"><feOffset dy="5" input="SourceAlpha"/><feGaussianBlur stdDeviation="3.5" result="f"/><feFlood flood-color="#d1d2ff" flood-opacity="0.298"/><feComposite operator="in" in2="f"/><feComposite in="SourceGraphic"/></filter></defs><g transform="translate(-1757.5 -135.5)"><g class="e" transform="matrix(1, 0, 0, 1, 1757.5, 135.5)"><rect class="a" width="28" height="28" rx="14" transform="translate(10.5 15.5)"/></g><rect class="a" width="28" height="28" rx="14" transform="translate(1768 151)"/><g class="d" transform="matrix(1, 0, 0, 1, 1757.5, 135.5)"><path class="b" d="M6,0h4c3.314,0,5.983,3.022,5.983,5.517S16.313,9.074,13,9.074L3,9C-.313,9-.017,8.012-.017,5.517S2.686,0,6,0Z" transform="matrix(1, -0.02, 0.02, 1, 16.47, 29.6)"/></g><g class="c" transform="matrix(1, 0, 0, 1, 1757.5, 135.5)"><rect class="b" width="8" height="9" rx="4" transform="translate(20.5 19.5)"/></g></g></svg>